<svg width="40" height="40" viewBox="0 0 40 40" fill="none" xmlns="http://www.w3.org/2000/svg">
<path d="M20 0C8.9718 0 0 8.9718 0 20C0 31.0282 8.9718 40 20 40C31.0282 40 40 31.0282 40 20C40 8.9718 31.0282 0 20 0ZM20 38.4615C17.1667 38.4615 14.5923 35.5077 12.9616 31.0256H27.0385C25.4077 35.5077 22.8333 38.4615 20 38.4615ZM12.4539 29.4872C11.6923 26.9051 11.2282 23.9231 11.1615 20.7692H28.8334C28.7667 23.9231 28.3026 26.9051 27.5411 29.4872H12.4513H12.4539ZM1.55643 20.7692H9.62308C9.68206 23.9333 10.1052 26.8897 10.818 29.4872H4.16923C2.62564 26.918 1.68976 23.9462 1.55643 20.7692ZM20 1.53846C22.8333 1.53846 25.4077 4.49231 27.0385 8.97436H12.9616C14.5923 4.49231 17.1667 1.53846 20 1.53846ZM27.5436 10.5128C28.3052 13.0949 28.7693 16.0769 28.836 19.2308H11.1641C11.2308 16.0769 11.6949 13.0949 12.4564 10.5128H27.5462H27.5436ZM9.62565 19.2308H1.55899C1.68976 16.0538 2.62565 13.0821 4.1718 10.5128H10.8206C10.1077 13.1103 9.68463 16.0667 9.62565 19.2308ZM30.3744 20.7692H38.4411C38.3103 23.9462 37.3744 26.918 35.8282 29.4872H29.1795C29.8923 26.8897 30.3154 23.9333 30.3744 20.7692ZM30.3744 19.2308C30.3154 16.0667 29.8923 13.1103 29.1795 10.5128H35.8282C37.3718 13.0821 38.3077 16.0538 38.4411 19.2308H30.3744ZM34.7975 8.97436H28.7103C27.736 6.08461 26.3795 3.7359 24.7693 2.16667C28.8308 3.25385 32.3462 5.69231 34.7975 8.97436ZM15.2308 2.16667C13.6206 3.7359 12.2667 6.08461 11.2898 8.97436H5.20257C7.65386 5.69231 11.1693 3.25385 15.2308 2.16667ZM5.20001 31.0256H11.2872C12.2615 33.9154 13.618 36.2641 15.2282 37.8333C11.1667 36.7462 7.65129 34.3077 5.20001 31.0256ZM24.7693 37.8333C26.3795 36.2641 27.7334 33.9154 28.7103 31.0256H34.7975C32.3462 34.3077 28.8308 36.7462 24.7693 37.8333Z" fill="#292929"/>
</svg>
