<svg width="80" height="80" viewBox="0 0 80 80" fill="none" xmlns="http://www.w3.org/2000/svg">
<path d="M70 80H10C4.48 80 0 75.52 0 70V10C0 4.48 4.48 0 10 0H70C75.52 0 80 4.48 80 10V70C80 75.53 75.52 80 70 80Z" fill="#E40616"/>
<path d="M25.1402 41.81C24.9702 42.28 24.4502 42.54 23.9602 42.49C23.6102 42.45 23.3002 42.27 23.0602 42.03C23.3202 41.75 23.5702 41.45 23.7802 41.14C24.1102 40.66 24.3702 40.13 24.5502 39.58C24.7202 39.09 24.8102 38.48 24.4302 38.06C24.0202 37.62 23.3402 37.65 22.8702 37.98C22.4002 38.31 22.0902 38.87 21.9002 39.41C21.6302 40.21 21.6602 41.16 22.0502 41.93C21.6902 42.23 21.3002 42.49 20.8902 42.71C20.4502 42.94 20.8402 43.6 21.2802 43.37C21.7202 43.14 22.1202 42.87 22.5002 42.56C22.5602 42.63 22.6302 42.69 22.7002 42.75C23.7502 43.61 25.3802 43.36 25.8802 42.03C26.0502 41.55 25.3102 41.35 25.1402 41.81ZM22.6402 41.34C22.4802 40.92 22.4502 40.44 22.5402 40.01C22.6302 39.51 22.8802 38.85 23.3402 38.58C23.5202 38.47 23.8102 38.42 23.9102 38.66C24.0002 38.87 23.8802 39.16 23.8102 39.37C23.6502 39.83 23.4302 40.26 23.1702 40.66C23.0102 40.9 22.8302 41.13 22.6402 41.34Z" fill="white"/>
<path d="M58.3601 33.12C58.2801 33.04 58.1401 32.98 58.0301 32.98C57.7801 32.99 57.5501 33.19 57.5601 33.45C57.5601 33.54 57.5601 33.62 57.5701 33.71C57.5701 33.83 57.6201 33.96 57.7101 34.04C57.7901 34.12 57.9301 34.18 58.0401 34.18C58.2901 34.17 58.5201 33.97 58.5101 33.71C58.5101 33.62 58.5101 33.54 58.5001 33.45C58.4901 33.33 58.4401 33.21 58.3601 33.12Z" fill="white"/>
<path d="M62.8301 33.12C62.7501 33.04 62.6101 32.98 62.5001 32.98C62.2501 32.99 62.0201 33.19 62.0301 33.45C62.0301 33.54 62.0301 33.62 62.0401 33.71C62.0401 33.83 62.0901 33.96 62.1801 34.04C62.2601 34.12 62.4001 34.18 62.5101 34.18C62.7601 34.17 62.9901 33.97 62.9801 33.71C62.9801 33.62 62.9801 33.54 62.9701 33.45C62.9701 33.33 62.9201 33.21 62.8301 33.12Z" fill="white"/>
<path d="M60.27 33.76H60.24C60.06 33.76 59.18 33.77 58.85 34.1C58.76 34.19 58.71 34.3 58.71 34.42C58.71 34.54 58.76 34.65 58.85 34.74C59.18 35.06 60.04 35.08 60.23 35.08H60.24H60.27C60.44 35.08 61.33 35.07 61.66 34.74C61.75 34.65 61.8 34.54 61.8 34.42C61.8 34.3 61.75 34.19 61.66 34.1C61.33 33.78 60.44 33.76 60.27 33.76ZM61.39 34.48C61.23 34.64 60.65 34.71 60.28 34.71C60.28 34.71 60.28 34.71 60.27 34.71H60.24C59.88 34.71 59.28 34.64 59.12 34.48C59.09 34.45 59.09 34.44 59.09 34.43C59.09 34.42 59.09 34.41 59.12 34.38C59.28 34.22 59.86 34.15 60.23 34.15C60.23 34.15 60.23 34.15 60.24 34.15H60.27H60.28C60.65 34.15 61.23 34.22 61.39 34.38C61.41 34.4 61.41 34.42 61.41 34.43C61.41 34.43 61.41 34.45 61.39 34.48Z" fill="white"/>
<path d="M50.44 29.89C51.5335 29.89 52.42 29.0035 52.42 27.91C52.42 26.8165 51.5335 25.93 50.44 25.93C49.3464 25.93 48.46 26.8165 48.46 27.91C48.46 29.0035 49.3464 29.89 50.44 29.89Z" fill="white"/>
<path d="M43.9601 24.68C44.1601 24.41 43.7101 24.16 43.5201 24.42C43.2001 24.85 42.7501 25.1 42.2701 25.17C42.2701 25.16 42.2701 25.15 42.2701 25.13C42.2701 24.82 42.2601 24.52 42.2601 24.21C42.4101 24.16 42.5501 24.08 42.6801 23.98C42.9301 23.8 43.1301 23.57 43.3001 23.31C43.4101 23.14 43.6801 22.74 43.4501 22.65C41.8601 22.02 40.6201 22.72 40.6201 22.72C40.5601 22.75 40.5001 22.78 40.4801 22.84C40.4601 22.9 40.4901 22.97 40.5101 23.02C40.6601 23.33 40.8301 23.64 41.0801 23.88C41.2601 24.05 41.4901 24.19 41.7301 24.23C41.7301 24.52 41.7401 24.82 41.7401 25.11C41.7401 25.13 41.7401 25.14 41.7401 25.15C41.2601 25.1 40.7901 24.87 40.4401 24.46C40.2201 24.21 39.8601 24.57 40.0801 24.82C41.1601 26.07 43.0201 25.95 43.9601 24.68Z" fill="white"/>
<path d="M39.17 22.51C39.4 22.51 39.65 22.3 39.63 22.05C39.6 21.68 39.57 21.32 39.54 20.95C39.52 20.7 39.34 20.49 39.08 20.49C38.85 20.49 38.6 20.7 38.62 20.95C38.65 21.32 38.68 21.68 38.71 22.05C38.73 22.3 38.91 22.51 39.17 22.51Z" fill="white"/>
<path d="M44.4701 22.18C44.7001 22.18 44.9501 21.97 44.9301 21.72C44.9001 21.35 44.8701 20.99 44.8401 20.62C44.8201 20.37 44.6401 20.16 44.3801 20.16C44.1501 20.16 43.9001 20.37 43.9201 20.62C43.9501 20.99 43.9801 21.35 44.0101 21.72C44.0301 21.97 44.2101 22.18 44.4701 22.18Z" fill="white"/>
<path d="M34.3501 30.21H34.3601C35.4501 30.2 36.3301 29.32 36.3301 28.23C36.3301 27.14 35.4401 26.25 34.3501 26.25C33.9601 26.25 33.6001 26.36 33.2901 26.56C33.1001 26.68 32.9301 26.83 32.7901 27.01C32.5301 27.35 32.3701 27.77 32.3701 28.23C32.3701 29.1 32.9301 29.83 33.7001 30.1C33.9101 30.17 34.1201 30.21 34.3501 30.21Z" fill="white"/>
<path d="M16.3101 29.49C15.4301 29.48 14.5801 29.69 13.7901 30.09C13.3501 30.31 13.7401 30.98 14.1801 30.75C14.8501 30.41 15.5701 30.25 16.3101 30.25C16.8101 30.26 16.8101 29.49 16.3101 29.49Z" fill="white"/>
<path d="M14.8 33.57C15.38 32.92 16.07 32.42 16.86 32.07C17.31 31.87 16.92 31.21 16.47 31.41C15.62 31.78 14.86 32.33 14.25 33.03C13.93 33.39 14.48 33.94 14.8 33.57Z" fill="white"/>
<path d="M30.91 33.57C31.24 33.94 31.78 33.4 31.45 33.03C30.84 32.34 30.08 31.78 29.23 31.41C28.78 31.21 28.39 31.88 28.84 32.07C29.64 32.42 30.33 32.92 30.91 33.57Z" fill="white"/>
<path d="M24.32 29.06C24.12 29.07 23.95 29.22 23.95 29.43C23.95 29.45 23.95 29.48 23.95 29.5V29.49C23.95 29.5 23.95 29.5 23.95 29.51C23.95 29.53 23.94 29.55 23.94 29.55C23.94 29.57 23.93 29.59 23.93 29.61C23.92 29.62 23.92 29.63 23.91 29.64C23.9 29.65 23.89 29.65 23.88 29.66H23.87C23.86 29.66 23.85 29.67 23.83 29.67C23.82 29.67 23.81 29.67 23.81 29.67C23.79 29.67 23.77 29.67 23.75 29.67C23.73 29.66 23.7 29.66 23.68 29.65C23.66 29.64 23.64 29.63 23.63 29.62L23.62 29.61C23.6 29.58 23.56 29.56 23.54 29.53L23.53 29.52C23.52 29.51 23.51 29.49 23.5 29.48C23.48 29.45 23.46 29.42 23.45 29.39C23.41 29.36 23.41 29.36 23.41 29.35C23.4 29.33 23.39 29.3 23.39 29.28C23.37 29.22 23.37 29.17 23.35 29.11C23.38 29.21 23.35 29.13 23.35 29.1C23.35 29.08 23.35 29.06 23.35 29.03C23.62 28.92 23.85 28.72 23.97 28.46C24.01 28.37 24.04 28.28 24.01 28.18C23.99 28.09 23.92 28 23.84 27.96C23.68 27.87 23.42 27.9 23.33 28.09C23.32 28.12 23.3 28.15 23.28 28.18C23.27 28.19 23.27 28.2 23.26 28.21C23.24 28.23 23.21 28.26 23.19 28.28C23.18 28.29 23.17 28.29 23.16 28.3C23.14 28.31 23.11 28.33 23.09 28.34H23.08C23.04 28.36 23.06 28.35 23.08 28.34C23.07 28.34 23.06 28.35 23.05 28.35C23.03 28.36 23.02 28.36 23 28.36C22.99 28.36 22.98 28.36 22.97 28.37C22.95 28.37 22.94 28.37 22.92 28.37C22.91 28.37 22.9 28.37 22.89 28.37C22.86 28.36 22.83 28.36 22.8 28.35C22.8 28.35 22.78 28.34 22.77 28.34C22.74 28.32 22.71 28.31 22.68 28.29C22.67 28.28 22.66 28.28 22.66 28.27C22.64 28.25 22.62 28.23 22.6 28.21C22.59 28.2 22.59 28.19 22.58 28.18C22.57 28.17 22.56 28.15 22.55 28.13C22.55 28.13 22.55 28.13 22.55 28.12C22.52 28.04 22.47 27.97 22.39 27.92C22.31 27.87 22.19 27.85 22.11 27.88C21.94 27.94 21.78 28.14 21.85 28.33C21.94 28.56 22.08 28.75 22.28 28.9C22.37 28.97 22.48 29.02 22.59 29.05C22.59 29.06 22.59 29.07 22.59 29.08C22.59 29.09 22.59 29.1 22.59 29.11C22.58 29.14 22.56 29.25 22.56 29.26C22.55 29.29 22.54 29.32 22.53 29.34C22.53 29.34 22.53 29.33 22.54 29.33C22.54 29.34 22.53 29.34 22.53 29.35C22.53 29.36 22.52 29.36 22.52 29.37C22.5 29.4 22.49 29.43 22.47 29.46C22.46 29.48 22.45 29.49 22.44 29.51C22.41 29.54 22.38 29.57 22.35 29.59C22.35 29.59 22.34 29.59 22.34 29.6C22.32 29.61 22.3 29.62 22.28 29.64C22.26 29.65 22.23 29.66 22.21 29.66C22.19 29.66 22.18 29.66 22.16 29.66C22.15 29.66 22.14 29.66 22.13 29.66C22.12 29.66 22.1 29.66 22.09 29.65C22.08 29.65 22.07 29.64 22.07 29.64C22.07 29.64 22.06 29.64 22.06 29.63C22.06 29.63 22.05 29.63 22.05 29.62L22.04 29.61C22.04 29.6 22.03 29.6 22.03 29.59C22.02 29.57 22.02 29.55 22.01 29.53C22.01 29.54 22 29.52 22 29.49C22 29.48 22 29.48 22 29.47C22 29.48 22 29.48 22 29.48C22 29.46 22 29.43 22 29.41C22 29.22 21.83 29.03 21.63 29.04C21.43 29.05 21.26 29.2 21.26 29.41C21.26 29.62 21.3 29.85 21.43 30.02C21.6 30.25 21.85 30.37 22.14 30.39C22.48 30.41 22.77 30.25 22.98 30C23.01 30.03 23.03 30.06 23.07 30.09C23.26 30.27 23.5 30.37 23.76 30.38C24 30.4 24.27 30.31 24.45 30.13C24.64 29.94 24.71 29.67 24.71 29.4C24.69 29.24 24.52 29.05 24.32 29.06ZM22.03 29.64C22.02 29.64 22.02 29.63 22.02 29.63C22.03 29.63 22.03 29.64 22.03 29.64C22.04 29.65 22.04 29.64 22.03 29.64C22.04 29.65 22.04 29.65 22.03 29.64C22.04 29.65 22.04 29.65 22.04 29.66C22.04 29.66 22.04 29.65 22.03 29.64ZM22.62 28.22C22.62 28.23 22.63 28.24 22.62 28.22V28.22Z" fill="white"/>
<path d="M19.28 28.15C19.8378 28.15 20.29 27.6978 20.29 27.14C20.29 26.5822 19.8378 26.13 19.28 26.13C18.7222 26.13 18.27 26.5822 18.27 27.14C18.27 27.6978 18.7222 28.15 19.28 28.15Z" fill="white"/>
<path d="M26.4199 28.15C26.9777 28.15 27.4299 27.6978 27.4299 27.14C27.4299 26.5822 26.9777 26.13 26.4199 26.13C25.8621 26.13 25.4099 26.5822 25.4099 27.14C25.4099 27.6978 25.8621 28.15 26.4199 28.15Z" fill="white"/>
<path d="M47.18 14.58C47.18 14.57 47.19 14.57 47.18 14.58C47.17 14.6 47.18 14.59 47.18 14.58Z" fill="white"/>
<path d="M36.88 16.26C36.85 16.23 36.91 16.3 36.88 16.26V16.26Z" fill="white"/>
<path d="M47.1401 13.52C47.1401 13.53 47.1501 13.54 47.1401 13.52V13.52Z" fill="white"/>
<path d="M47.05 13.34C47.05 13.35 47.06 13.36 47.05 13.34V13.34Z" fill="white"/>
<path d="M47.25 14.3C47.25 14.31 47.25 14.31 47.25 14.32C47.26 14.29 47.26 14.29 47.25 14.3Z" fill="white"/>
<path d="M28.2399 21.1C28.2399 21.09 28.2399 21.09 28.2399 21.1C28.2299 21.11 28.2299 21.12 28.2399 21.1Z" fill="white"/>
<path d="M36.66 14.86C36.65 14.86 36.64 14.86 36.64 14.86H36.63C36.59 14.87 36.68 14.86 36.66 14.86Z" fill="white"/>
<path d="M37.53 15.04C37.53 15.03 37.54 15.03 37.53 15.04V15.04Z" fill="white"/>
<path d="M42.2001 14.64C42.1601 14.63 42.2201 14.64 42.2001 14.64V14.64Z" fill="white"/>
<path d="M36.7601 15.96C36.7501 15.93 36.7601 16.01 36.7601 15.96V15.96Z" fill="white"/>
<path d="M44.05 15.11C44.04 15.11 44.04 15.11 44.04 15.1C44.04 15.1 44.04 15.1 44.05 15.11C44.04 15.1 44.04 15.1 44.05 15.11Z" fill="white"/>
<path d="M36.42 13.06C36.41 13.07 36.42 13.07 36.42 13.06V13.06Z" fill="white"/>
<path d="M37.2201 12.27C37.2301 12.27 37.2301 12.27 37.2201 12.27C37.2001 12.29 37.2401 12.26 37.2201 12.27Z" fill="white"/>
<path d="M38.8301 11.35C38.8201 11.36 38.8301 11.36 38.8301 11.35C38.8401 11.35 38.8401 11.35 38.8301 11.35Z" fill="white"/>
<path d="M36.0299 13.72C36.0399 13.71 36.0399 13.71 36.0299 13.72C36.0199 13.75 36.0499 13.68 36.0299 13.72Z" fill="white"/>
<path d="M47.0601 14.78C47.0701 14.78 47.0701 14.78 47.0601 14.78C47.0501 14.8 47.0601 14.79 47.0601 14.78Z" fill="white"/>
<path d="M15.77 39.3C15.76 39.29 15.76 39.27 15.76 39.26C15.75 39.25 15.75 39.23 15.74 39.22C15.75 39.25 15.76 39.28 15.77 39.3Z" fill="white"/>
<path d="M15.49 38.29C15.49 38.28 15.49 38.27 15.49 38.26C15.49 38.25 15.49 38.24 15.49 38.24C15.49 38.23 15.49 38.22 15.48 38.2C15.48 38.23 15.49 38.26 15.49 38.29Z" fill="white"/>
<path d="M16.25 40.09C16.24 40.08 16.2299 40.07 16.2199 40.05C16.2099 40.04 16.2 40.03 16.2 40.02C16.21 40.05 16.23 40.07 16.25 40.09Z" fill="white"/>
<path d="M27.19 22.45C27.18 22.47 27.19 22.46 27.19 22.45C27.19 22.46 27.19 22.46 27.19 22.45Z" fill="white"/>
<path d="M15.4299 37.02C15.4299 37 15.4399 36.98 15.4399 36.97C15.4399 36.96 15.4399 36.95 15.4399 36.94C15.4399 36.97 15.4399 37 15.4299 37.02Z" fill="white"/>
<path d="M17.54 40.32C17.55 40.33 17.55 40.35 17.55 40.36C17.56 40.37 17.56 40.38 17.57 40.4C17.56 40.37 17.55 40.34 17.54 40.32Z" fill="white"/>
<path d="M16.1201 36.42C16.1201 36.44 16.1201 36.46 16.1201 36.47C16.1201 36.48 16.1301 36.49 16.1301 36.5C16.1201 36.48 16.1201 36.45 16.1201 36.42Z" fill="white"/>
<path d="M16.0701 36.29C16.0801 36.3 16.0801 36.32 16.0801 36.33C16.0901 36.34 16.0901 36.35 16.1001 36.37C16.0901 36.34 16.0801 36.32 16.0701 36.29Z" fill="white"/>
<path d="M16 36.19C16.01 36.2 16.01 36.21 16.02 36.22C16.03 36.23 16.04 36.24 16.05 36.25C16.03 36.23 16.01 36.21 16 36.19Z" fill="white"/>
<path d="M15.55 36.51C15.55 36.5 15.56 36.49 15.57 36.48C15.58 36.47 15.58 36.45 15.59 36.44C15.57 36.46 15.56 36.49 15.55 36.51Z" fill="white"/>
<path d="M17.25 39.86C17.26 39.87 17.27 39.88 17.27 39.89C17.28 39.9 17.29 39.91 17.3 39.92C17.29 39.91 17.27 39.88 17.25 39.86Z" fill="white"/>
<path d="M18.2801 18.79C18.2501 18.81 18.3001 18.78 18.2801 18.79V18.79Z" fill="white"/>
<path d="M27.72 21.59L27.71 21.6L27.72 21.59Z" fill="white"/>
<path d="M19.89 17.87C19.87 17.88 19.88 17.87 19.89 17.87C19.9 17.87 19.9 17.87 19.89 17.87Z" fill="white"/>
<path d="M17.09 20.24C17.07 20.27 17.1 20.2 17.09 20.24V20.24Z" fill="white"/>
<path d="M17.72 21.38C17.71 21.38 17.7 21.38 17.7 21.38H17.69C17.64 21.39 17.73 21.38 17.72 21.38Z" fill="white"/>
<path d="M16.9701 21.16C16.9401 21.11 16.9701 21.19 16.9701 21.16V21.16Z" fill="white"/>
<path d="M17.88 21.36C17.89 21.35 17.89 21.35 17.88 21.36C17.86 21.36 17.87 21.36 17.88 21.36Z" fill="white"/>
<path d="M67.03 40.89C67.02 40.9 67.01 40.9 67 40.91C66.99 40.92 66.98 40.93 66.97 40.94C66.99 40.93 67.01 40.91 67.03 40.89Z" fill="white"/>
<path d="M63.1499 28.26C63.1599 28.27 63.1699 28.23 63.1499 28.26V28.26Z" fill="white"/>
<path d="M56.64 27.62C56.6 27.62 56.68 27.63 56.64 27.62V27.62Z" fill="white"/>
<path d="M66.9701 37.32C66.9401 37.32 66.9101 37.31 66.8801 37.31C66.8901 37.31 66.9101 37.32 66.9201 37.32C66.9401 37.32 66.9501 37.32 66.9701 37.32Z" fill="white"/>
<path d="M67 37.33C67.01 37.34 67.03 37.34 67.04 37.35C67.05 37.35 67.07 37.36 67.08 37.36C67.05 37.35 67.03 37.34 67 37.33Z" fill="white"/>
<path d="M56.4199 27.49C56.4199 27.48 56.4099 27.48 56.4099 27.47C56.4199 27.48 56.4199 27.49 56.4199 27.49Z" fill="white"/>
<path d="M56.4 27.41C56.39 27.38 56.4 27.45 56.4 27.41V27.41Z" fill="white"/>
<path d="M37.5901 16.58C37.5801 16.58 37.5801 16.58 37.5901 16.58C37.5201 16.57 37.6301 16.59 37.5901 16.58Z" fill="white"/>
<path d="M56.4399 27.53L56.4299 27.52C56.4499 27.53 56.4499 27.54 56.4399 27.53Z" fill="white"/>
<path d="M56.4799 27.57C56.4599 27.56 56.4899 27.58 56.4799 27.57V27.57Z" fill="white"/>
<path d="M67.27 40.65C67.26 40.66 67.26 40.67 67.25 40.67C67.24 40.68 67.23 40.7 67.22 40.71C67.23 40.69 67.25 40.67 67.27 40.65Z" fill="white"/>
<path d="M17.6699 40.75C17.6699 40.76 17.6699 40.77 17.6699 40.79C17.6699 40.81 17.6799 40.82 17.6799 40.84C17.6699 40.81 17.6699 40.78 17.6699 40.75Z" fill="white"/>
<path d="M67.4699 40.27C67.4599 40.28 67.4599 40.3 67.4499 40.31C67.4499 40.32 67.4399 40.33 67.4399 40.34C67.4499 40.32 67.4599 40.3 67.4699 40.27Z" fill="white"/>
<path d="M67.4199 37.77C67.4299 37.78 67.4299 37.79 67.4399 37.8C67.4299 37.77 67.4199 37.75 67.4099 37.72C67.4099 37.74 67.4099 37.76 67.4199 37.77Z" fill="white"/>
<path d="M67.5601 38.31C67.5601 38.33 67.5701 38.35 67.5701 38.37C67.5701 38.38 67.5701 38.39 67.5701 38.4C67.5601 38.37 67.5601 38.34 67.5601 38.31Z" fill="white"/>
<path d="M67.6101 39.7C67.6101 39.71 67.6101 39.73 67.6001 39.74C67.6001 39.76 67.6001 39.77 67.6001 39.79C67.6001 39.75 67.6101 39.73 67.6101 39.7Z" fill="white"/>
<path d="M66.7201 41.09C66.7001 41.1 66.6901 41.1 66.6701 41.11C66.6601 41.11 66.6501 41.12 66.6401 41.12C66.6701 41.11 66.7001 41.1 66.7201 41.09Z" fill="white"/>
<path d="M67.1401 37.4C67.1501 37.41 67.1601 37.42 67.1701 37.43C67.1801 37.44 67.1901 37.44 67.2001 37.45C67.1801 37.43 67.1601 37.41 67.1401 37.4Z" fill="white"/>
<path d="M66.2499 41.23C66.2399 41.23 66.2199 41.23 66.2099 41.23C66.1899 41.23 66.1799 41.24 66.1599 41.24C66.1899 41.24 66.2199 41.23 66.2499 41.23Z" fill="white"/>
<path d="M67.27 37.51C67.28 37.52 67.28 37.53 67.29 37.54C67.3 37.55 67.31 37.56 67.32 37.57C67.3 37.56 67.28 37.53 67.27 37.51Z" fill="white"/>
<path d="M65.5099 41.23C65.4899 41.23 65.4799 41.23 65.4599 41.22C65.4499 41.22 65.4299 41.22 65.4199 41.22C65.4499 41.22 65.4799 41.23 65.5099 41.23Z" fill="white"/>
<path d="M64.1701 40.91C64.1601 40.9 64.1401 40.9 64.1301 40.89C64.1201 40.89 64.1001 40.88 64.0901 40.88C64.1201 40.89 64.1501 40.9 64.1701 40.91Z" fill="white"/>
<path d="M66.7099 36.69C66.6999 36.69 66.6899 36.7 66.6799 36.7C66.7099 36.69 66.7499 36.68 66.7899 36.68C66.7599 36.68 66.7299 36.68 66.7099 36.69Z" fill="white"/>
<path d="M37.0501 15.27C37.0201 15.28 37.0201 15.28 37.0501 15.27V15.27Z" fill="white"/>
<path d="M39.3701 14.61H39.3801C39.4001 14.6 39.4001 14.6 39.3701 14.61Z" fill="white"/>
<path d="M46.1899 15.68L46.1999 15.69C46.1899 15.68 46.1899 15.68 46.1899 15.68Z" fill="white"/>
<path d="M46.21 15.79C46.21 15.79 46.21 15.79 46.22 15.77C46.21 15.78 46.21 15.79 46.21 15.79Z" fill="white"/>
<path d="M45.64 16.29C45.6 16.31 45.65 16.29 45.64 16.29V16.29Z" fill="white"/>
<path d="M38.3499 16.58C38.3399 16.58 38.3399 16.58 38.3399 16.58C38.2699 16.59 38.4099 16.57 38.3499 16.58Z" fill="white"/>
<path d="M46.1999 15.83C46.1899 15.86 46.2099 15.81 46.1999 15.83V15.83Z" fill="white"/>
<path d="M56.99 28.19C56.98 28.23 56.99 28.17 56.99 28.19V28.19Z" fill="white"/>
<path d="M57.06 28.56C57.05 28.55 57.05 28.55 57.04 28.54C57.07 28.56 57.07 28.57 57.06 28.56Z" fill="white"/>
<path d="M56.99 28.39V28.38C56.99 28.38 56.99 28.38 56.99 28.37C56.98 28.38 56.99 28.38 56.99 28.39Z" fill="white"/>
<path d="M57.12 28.62C57.09 28.6 57.15 28.65 57.12 28.62V28.62Z" fill="white"/>
<path d="M57.9999 28.75H57.9899C57.9399 28.76 58.0399 28.75 57.9999 28.75Z" fill="white"/>
<path d="M57.24 28.69C57.2 28.67 57.27 28.71 57.24 28.69V28.69Z" fill="white"/>
<path d="M57.0099 27.98C56.9799 27.99 56.9899 27.99 57.0099 27.98C57.0099 27.99 57.0099 27.99 57.0099 27.98Z" fill="white"/>
<path d="M63.2001 27.83H63.1901H63.1801C63.1501 27.84 63.2401 27.83 63.2001 27.83Z" fill="white"/>
<path d="M57.1401 27.96C57.1501 27.96 57.1501 27.95 57.1601 27.95C57.1701 27.95 57.1701 27.95 57.1401 27.96Z" fill="white"/>
<path d="M16.8701 38.36C16.8601 38.35 16.8601 38.33 16.8501 38.32C16.8401 38.31 16.8401 38.3 16.8301 38.28C16.8501 38.31 16.8601 38.34 16.8701 38.36Z" fill="white"/>
<path d="M47.6001 37.89C47.6101 37.88 47.6201 37.87 47.6301 37.85C47.6401 37.84 47.6401 37.83 47.6501 37.82C47.6301 37.85 47.6201 37.87 47.6001 37.89Z" fill="white"/>
<path d="M51.3301 32.98C51.3401 32.99 51.3401 33 51.3501 33.01C51.3601 33.02 51.3701 33.03 51.3801 33.04C51.3601 33.02 51.3401 33 51.3301 32.98Z" fill="white"/>
<path d="M47.45 38.16C47.45 38.15 47.46 38.14 47.47 38.13C47.48 38.12 47.48 38.1 47.49 38.09C47.47 38.11 47.46 38.14 47.45 38.16Z" fill="white"/>
<path d="M48.1001 37.4C48.1101 37.39 48.1201 37.39 48.1301 37.38C48.1401 37.37 48.1501 37.36 48.1701 37.35C48.1401 37.36 48.1201 37.38 48.1001 37.4Z" fill="white"/>
<path d="M47.3999 38.37C47.3999 38.36 47.4099 38.34 47.4099 38.33C47.4099 38.32 47.4099 38.3 47.4099 38.29C47.4099 38.32 47.3999 38.34 47.3999 38.37Z" fill="white"/>
<path d="M47.4699 38.74C47.4599 38.73 47.4599 38.71 47.4599 38.7C47.4499 38.69 47.4499 38.68 47.4399 38.66C47.4499 38.69 47.4599 38.72 47.4699 38.74Z" fill="white"/>
<path d="M47.55 38.85C47.54 38.84 47.53 38.83 47.53 38.82C47.52 38.81 47.51 38.8 47.5 38.79C47.51 38.81 47.53 38.83 47.55 38.85Z" fill="white"/>
<path d="M47.4099 38.57C47.4099 38.56 47.4099 38.54 47.4099 38.53C47.4099 38.52 47.3999 38.5 47.3999 38.49C47.3999 38.52 47.4099 38.55 47.4099 38.57Z" fill="white"/>
<path d="M51.0701 32.79C51.0801 32.8 51.1001 32.8 51.1101 32.81C51.1201 32.81 51.1401 32.82 51.1501 32.82C51.1201 32.81 51.0901 32.8 51.0701 32.79Z" fill="white"/>
<path d="M50.0901 33.49C50.0901 33.48 50.1001 33.47 50.1001 33.46C50.1101 33.44 50.1101 33.43 50.1201 33.41C50.1201 33.43 50.1001 33.46 50.0901 33.49Z" fill="white"/>
<path d="M50.9399 32.77C50.9499 32.77 50.9699 32.78 50.9799 32.78C50.9899 32.78 51.0099 32.78 51.0199 32.78C50.9999 32.78 50.9699 32.77 50.9399 32.77Z" fill="white"/>
<path d="M51.1899 32.86C51.1999 32.87 51.2099 32.88 51.2199 32.89C51.2299 32.9 51.2399 32.91 51.2599 32.91C51.2399 32.89 51.2199 32.87 51.1899 32.86Z" fill="white"/>
<path d="M50.26 33.19C50.27 33.18 50.28 33.17 50.29 33.16C50.3 33.15 50.3 33.14 50.31 33.13C50.29 33.15 50.27 33.17 50.26 33.19Z" fill="white"/>
<path d="M50.8201 32.78C50.8301 32.78 50.8501 32.78 50.8601 32.78C50.8701 32.78 50.8901 32.77 50.9001 32.77C50.8801 32.78 50.8501 32.78 50.8201 32.78Z" fill="white"/>
<path d="M50.46 32.97C50.47 32.96 50.48 32.95 50.5 32.95C50.51 32.94 50.52 32.93 50.53 32.92C50.51 32.93 50.48 32.95 50.46 32.97Z" fill="white"/>
<path d="M50 33.9C50 33.88 50.01 33.87 50.01 33.85C50.01 33.84 50.01 33.82 50.01 33.81C50.01 33.84 50 33.87 50 33.9Z" fill="white"/>
<path d="M48.9699 35.88C48.9599 35.89 48.9499 35.9 48.9399 35.91C48.9299 35.92 48.9199 35.93 48.9199 35.95C48.9399 35.92 48.9599 35.9 48.9699 35.88Z" fill="white"/>
<path d="M49.1601 35.52C49.1501 35.54 49.1401 35.56 49.1401 35.57C49.1401 35.58 49.1301 35.58 49.1301 35.59C49.1401 35.57 49.1501 35.54 49.1601 35.52Z" fill="white"/>
<path d="M47.6201 38.92C47.6101 38.91 47.6001 38.9 47.5901 38.89C47.5801 38.88 47.5701 38.88 47.5601 38.87C47.5801 38.88 47.6001 38.9 47.6201 38.92Z" fill="white"/>
<path d="M34.6999 35.59C34.6999 35.58 34.6899 35.58 34.6899 35.57C34.6799 35.55 34.6699 35.53 34.6699 35.52C34.6799 35.54 34.6899 35.57 34.6999 35.59Z" fill="white"/>
<path d="M49.3 34.92C49.3 34.93 49.3 34.94 49.29 34.96C49.29 34.98 49.29 34.99 49.28 35.01C49.3 34.98 49.3 34.95 49.3 34.92Z" fill="white"/>
<path d="M34.53 35C34.53 34.98 34.53 34.97 34.52 34.95C34.52 34.94 34.52 34.92 34.51 34.91C34.52 34.95 34.53 34.98 34.53 35Z" fill="white"/>
<path d="M48.55 36.28C48.54 36.29 48.53 36.29 48.53 36.3C48.52 36.31 48.5 36.32 48.49 36.33C48.51 36.31 48.53 36.29 48.55 36.28Z" fill="white"/>
<path d="M47.82 38.97C47.8 38.97 47.79 38.96 47.77 38.96C47.76 38.96 47.75 38.96 47.73 38.96C47.76 38.96 47.79 38.96 47.82 38.97Z" fill="white"/>
<path d="M47.9501 38.95C47.9401 38.95 47.9301 38.95 47.9201 38.95C47.9001 38.95 47.8901 38.96 47.8701 38.96C47.9001 38.96 47.9201 38.96 47.9501 38.95Z" fill="white"/>
<path d="M47.7001 38.95C47.6901 38.94 47.6701 38.94 47.6601 38.93C47.6501 38.93 47.6401 38.92 47.6201 38.92C47.6501 38.93 47.6801 38.94 47.7001 38.95Z" fill="white"/>
<path d="M51.1401 36.1C51.1301 36.11 51.1301 36.12 51.1201 36.14C51.1101 36.15 51.1101 36.17 51.1101 36.18C51.1201 36.15 51.1301 36.12 51.1401 36.1Z" fill="white"/>
<path d="M48.2199 38.87C48.2099 38.88 48.1899 38.88 48.1799 38.89C48.1699 38.9 48.1599 38.9 48.1499 38.91C48.1699 38.89 48.1899 38.88 48.2199 38.87Z" fill="white"/>
<path d="M50.6301 37C50.6201 37.01 50.6101 37.02 50.6001 37.03C50.5901 37.04 50.5901 37.05 50.5801 37.06C50.5901 37.04 50.6101 37.02 50.6301 37Z" fill="white"/>
<path d="M34.9001 35.94C34.8901 35.93 34.8801 35.92 34.8801 35.9C34.8701 35.89 34.8601 35.88 34.8501 35.87C34.8701 35.9 34.8801 35.92 34.9001 35.94Z" fill="white"/>
<path d="M49.7499 37.87C49.7399 37.88 49.7299 37.89 49.7199 37.89C49.7099 37.9 49.6999 37.91 49.6899 37.92C49.7099 37.9 49.7299 37.89 49.7499 37.87Z" fill="white"/>
<path d="M54.3 37.6C54.3 37.59 54.29 37.59 54.29 37.58C54.28 37.56 54.26 37.55 54.25 37.53C54.27 37.56 54.28 37.58 54.3 37.6Z" fill="white"/>
<path d="M54.1501 37.37C54.1401 37.36 54.1401 37.34 54.1401 37.33C54.1301 37.32 54.1301 37.31 54.1201 37.3C54.1201 37.32 54.1401 37.34 54.1501 37.37Z" fill="white"/>
<path d="M53.8101 36.68C53.8901 36.69 53.9501 36.71 54.0101 36.77C53.9701 36.73 53.9301 36.7 53.8801 36.69C53.8601 36.68 53.8301 36.68 53.8101 36.68Z" fill="white"/>
<path d="M53.58 37.33C53.55 37.34 53.53 37.35 53.5 37.36C53.51 37.35 53.53 37.35 53.54 37.35C53.56 37.34 53.57 37.34 53.58 37.33Z" fill="white"/>
<path d="M53.6201 37.32C53.6301 37.32 53.6501 37.32 53.6601 37.32C53.6701 37.32 53.6901 37.31 53.7001 37.31C53.6701 37.31 53.6501 37.32 53.6201 37.32Z" fill="white"/>
<path d="M66.49 36.89C66.52 36.82 66.57 36.75 66.64 36.71C66.61 36.72 66.59 36.74 66.56 36.76C66.53 36.8 66.51 36.85 66.49 36.89Z" fill="white"/>
<path d="M17.38 41.1C17.37 41.1 17.36 41.09 17.35 41.08C17.33 41.07 17.32 41.07 17.3 41.06C17.33 41.08 17.35 41.09 17.38 41.1Z" fill="white"/>
<path d="M66.34 37.54C66.33 37.55 66.32 37.57 66.31 37.58C66.3 37.59 66.3 37.6 66.29 37.6C66.3 37.58 66.32 37.56 66.34 37.54Z" fill="white"/>
<path d="M66.4699 37.29C66.4699 37.3 66.4599 37.31 66.4499 37.32C66.4399 37.33 66.4399 37.35 66.4399 37.36C66.4499 37.34 66.4599 37.32 66.4699 37.29Z" fill="white"/>
<path d="M53.3701 40.71C53.3601 40.7 53.3501 40.68 53.3401 40.67C53.3301 40.66 53.3301 40.65 53.3201 40.65C53.3401 40.67 53.3501 40.69 53.3701 40.71Z" fill="white"/>
<path d="M53.1499 37.81C53.1599 37.8 53.1599 37.79 53.1699 37.78C53.1799 37.77 53.1799 37.75 53.1899 37.74C53.1699 37.76 53.1599 37.78 53.1499 37.81Z" fill="white"/>
<path d="M53.27 37.58C53.28 37.57 53.29 37.56 53.3 37.55C53.31 37.54 53.31 37.53 53.32 37.52C53.3 37.53 53.28 37.56 53.27 37.58Z" fill="white"/>
<path d="M53.02 38.39C53.02 38.38 53.02 38.37 53.02 38.36C53.02 38.34 53.02 38.32 53.03 38.3C53.02 38.34 53.02 38.37 53.02 38.39Z" fill="white"/>
<path d="M53.3801 37.45C53.3901 37.44 53.4001 37.43 53.4101 37.43C53.4201 37.42 53.4301 37.41 53.4401 37.4C53.4301 37.41 53.4101 37.43 53.3801 37.45Z" fill="white"/>
<path d="M51.54 33.43C51.54 33.45 51.54 33.46 51.54 33.48C51.54 33.49 51.55 33.51 51.55 33.52C51.55 33.49 51.54 33.46 51.54 33.43Z" fill="white"/>
<path d="M51.46 33.18C51.47 33.19 51.47 33.2 51.47 33.22C51.48 33.23 51.48 33.25 51.49 33.26C51.48 33.23 51.47 33.2 51.46 33.18Z" fill="white"/>
<path d="M52.99 39.78C52.99 39.76 52.99 39.75 52.98 39.73C52.98 39.72 52.98 39.7 52.97 39.69C52.98 39.73 52.98 39.75 52.99 39.78Z" fill="white"/>
<path d="M53.6101 40.94C53.6001 40.93 53.59 40.92 53.58 40.91C53.57 40.9 53.56 40.9 53.55 40.89C53.57 40.91 53.5901 40.93 53.6101 40.94Z" fill="white"/>
<path d="M53.1501 40.35C53.1501 40.34 53.1401 40.33 53.1401 40.32C53.1301 40.31 53.1301 40.29 53.1201 40.28C53.1301 40.3 53.1401 40.32 53.1501 40.35Z" fill="white"/>
<path d="M56.4899 40.87C56.4799 40.88 56.4599 40.88 56.4499 40.88C56.4399 40.89 56.4199 40.89 56.4099 40.9C56.4399 40.9 56.4599 40.89 56.4899 40.87Z" fill="white"/>
<path d="M55.1601 41.22C55.1501 41.22 55.1301 41.22 55.1201 41.22C55.1001 41.22 55.0901 41.23 55.0701 41.23C55.1001 41.23 55.1301 41.22 55.1601 41.22Z" fill="white"/>
<path d="M53.9401 41.12C53.9301 41.12 53.9201 41.11 53.9101 41.11C53.8901 41.1 53.8801 41.1 53.8601 41.09C53.8901 41.1 53.9101 41.11 53.9401 41.12Z" fill="white"/>
<path d="M54.4201 41.24C54.4001 41.24 54.3901 41.23 54.3701 41.23C54.3601 41.23 54.3401 41.23 54.3301 41.23C54.3701 41.23 54.4001 41.24 54.4201 41.24Z" fill="white"/>
<path d="M32.45 33.04C32.46 33.03 32.4699 33.02 32.4799 33.01C32.4899 33 32.49 32.99 32.5 32.98C32.48 33 32.46 33.02 32.45 33.04Z" fill="white"/>
<path d="M32.6799 32.82C32.6899 32.81 32.7099 32.81 32.7199 32.81C32.7299 32.8 32.7399 32.8 32.7599 32.79C32.7299 32.8 32.7099 32.81 32.6799 32.82Z" fill="white"/>
<path d="M32.3301 33.26C32.3401 33.25 32.3401 33.23 32.3501 33.22C32.3501 33.21 32.3601 33.2 32.3601 33.18C32.3501 33.2 32.3401 33.23 32.3301 33.26Z" fill="white"/>
<path d="M34.1401 37.92C34.1301 37.91 34.1201 37.9 34.1001 37.89C34.0901 37.88 34.0801 37.88 34.0701 37.87C34.1001 37.89 34.1201 37.9 34.1401 37.92Z" fill="white"/>
<path d="M33.25 37.06C33.24 37.05 33.2299 37.04 33.2299 37.03C33.2199 37.02 33.21 37.01 33.2 37C33.21 37.02 33.23 37.04 33.25 37.06Z" fill="white"/>
<path d="M32.79 32.78C32.8 32.78 32.82 32.78 32.83 32.78C32.84 32.78 32.86 32.77 32.87 32.77C32.85 32.77 32.82 32.78 32.79 32.78Z" fill="white"/>
<path d="M32.27 33.52C32.27 33.51 32.28 33.49 32.28 33.48C32.28 33.46 32.28 33.45 32.28 33.43C32.28 33.46 32.28 33.49 32.27 33.52Z" fill="white"/>
<path d="M32.7199 36.17C32.7099 36.16 32.7099 36.14 32.7099 36.13C32.6999 36.12 32.6999 36.11 32.6899 36.09C32.6999 36.12 32.7099 36.15 32.7199 36.17Z" fill="white"/>
<path d="M29.4499 37.95C29.4499 37.97 29.4399 37.98 29.4399 38C29.4399 38.01 29.4399 38.03 29.4399 38.04C29.4399 38.01 29.4499 37.98 29.4499 37.95Z" fill="white"/>
<path d="M16.78 38.04C16.78 38.03 16.78 38.01 16.78 38C16.78 37.98 16.77 37.97 16.77 37.95C16.77 37.98 16.77 38.01 16.78 38.04Z" fill="white"/>
<path d="M29.3701 38.28C29.3601 38.29 29.3601 38.3 29.3501 38.32C29.3401 38.33 29.3401 38.35 29.3301 38.36C29.3501 38.34 29.3601 38.31 29.3701 38.28Z" fill="white"/>
<path d="M29.1501 38.68C29.1401 38.69 29.1301 38.7 29.1301 38.71C29.1201 38.72 29.1101 38.74 29.1001 38.75C29.1201 38.72 29.1301 38.7 29.1501 38.68Z" fill="white"/>
<path d="M17.1201 38.74C17.1101 38.73 17.1101 38.72 17.1001 38.71C17.0901 38.7 17.0801 38.69 17.0701 38.67C17.0801 38.7 17.1001 38.72 17.1201 38.74Z" fill="white"/>
<path d="M17.1401 40.97C17.1301 40.96 17.1201 40.95 17.1101 40.94C17.1001 40.93 17.0901 40.93 17.0801 40.92C17.1001 40.93 17.1201 40.95 17.1401 40.97Z" fill="white"/>
<path d="M35.33 36.33C35.32 36.32 35.3 36.31 35.29 36.3C35.28 36.29 35.27 36.29 35.26 36.28C35.29 36.29 35.31 36.31 35.33 36.33Z" fill="white"/>
<path d="M28.54 40.84C28.54 40.82 28.55 40.81 28.55 40.79C28.55 40.78 28.55 40.77 28.55 40.75C28.55 40.78 28.54 40.81 28.54 40.84Z" fill="white"/>
<path d="M28.6499 40.39C28.6599 40.38 28.6599 40.37 28.6699 40.35C28.6799 40.34 28.6799 40.32 28.6799 40.31C28.6699 40.34 28.6599 40.37 28.6499 40.39Z" fill="white"/>
<path d="M28.9101 41.07C28.8901 41.08 28.8801 41.08 28.8601 41.09C28.8501 41.09 28.8401 41.1 28.8301 41.11C28.8601 41.09 28.8901 41.08 28.9101 41.07Z" fill="white"/>
<path d="M30.4799 39.23C30.4699 39.24 30.4699 39.26 30.4599 39.27C30.4499 39.28 30.45 39.3 30.45 39.31C30.46 39.28 30.4699 39.25 30.4799 39.23Z" fill="white"/>
<path d="M28.9099 39.93C28.9199 39.92 28.9299 39.91 28.9399 39.9C28.9499 39.89 28.9599 39.88 28.9599 39.87C28.9499 39.88 28.9299 39.91 28.9099 39.93Z" fill="white"/>
<path d="M29.1401 40.92C29.1301 40.93 29.1201 40.93 29.1101 40.94C29.1001 40.95 29.0901 40.96 29.0801 40.97C29.1001 40.95 29.1201 40.93 29.1401 40.92Z" fill="white"/>
<path d="M30.02 40.02C30.01 40.03 30 40.04 30 40.05C29.99 40.06 29.98 40.07 29.97 40.09C29.99 40.07 30 40.05 30.02 40.02Z" fill="white"/>
<path d="M36.3401 38.09C36.3501 38.1 36.3501 38.12 36.3601 38.13C36.3701 38.14 36.3701 38.15 36.3801 38.16C36.3601 38.14 36.3501 38.11 36.3401 38.09Z" fill="white"/>
<path d="M36.4099 38.29C36.4099 38.3 36.4099 38.32 36.4099 38.33C36.4099 38.34 36.4199 38.36 36.4199 38.37C36.4199 38.34 36.4199 38.32 36.4099 38.29Z" fill="white"/>
<path d="M33.8101 33.81C33.8101 33.82 33.8101 33.84 33.8101 33.85C33.8101 33.87 33.8201 33.88 33.8201 33.9C33.8201 33.87 33.8201 33.84 33.8101 33.81Z" fill="white"/>
<path d="M35.6599 37.35C35.6699 37.36 35.6799 37.37 35.6999 37.38C35.7099 37.39 35.7199 37.39 35.7299 37.4C35.6999 37.38 35.6799 37.36 35.6599 37.35Z" fill="white"/>
<path d="M36.1699 37.82C36.1799 37.83 36.1799 37.84 36.1899 37.85C36.1999 37.86 36.2099 37.87 36.2199 37.89C36.2099 37.87 36.1899 37.85 36.1699 37.82Z" fill="white"/>
<path d="M36.33 38.79C36.32 38.8 36.31 38.81 36.3 38.82C36.29 38.83 36.29 38.84 36.28 38.85C36.29 38.83 36.31 38.81 36.33 38.79Z" fill="white"/>
<path d="M36.3901 38.67C36.3801 38.68 36.3801 38.7 36.3701 38.71C36.3701 38.72 36.3601 38.74 36.3601 38.75C36.3601 38.72 36.3801 38.69 36.3901 38.67Z" fill="white"/>
<path d="M35.9601 38.97C35.9401 38.97 35.9201 38.96 35.9101 38.96C35.9001 38.96 35.8901 38.96 35.8801 38.96C35.9001 38.96 35.9301 38.96 35.9601 38.97Z" fill="white"/>
<path d="M35.6801 38.9C35.6701 38.9 35.6601 38.89 35.6501 38.89C35.6301 38.88 35.6201 38.88 35.6001 38.87C35.6301 38.88 35.6601 38.89 35.6801 38.9Z" fill="white"/>
<path d="M36.09 38.96C36.08 38.96 36.07 38.96 36.05 38.96C36.03 38.96 36.02 38.97 36 38.97C36.04 38.96 36.06 38.96 36.09 38.96Z" fill="white"/>
<path d="M36.2599 38.87C36.2499 38.88 36.2399 38.88 36.2299 38.89C36.2199 38.9 36.21 38.91 36.2 38.92C36.22 38.9 36.2399 38.88 36.2599 38.87Z" fill="white"/>
<path d="M36.2001 38.92C36.1901 38.92 36.1801 38.93 36.1601 38.93C36.1501 38.94 36.1301 38.94 36.1201 38.95C36.1401 38.94 36.1701 38.93 36.2001 38.92Z" fill="white"/>
<path d="M36.4199 38.49C36.4199 38.5 36.4099 38.52 36.4099 38.53C36.4099 38.54 36.4099 38.56 36.4099 38.57C36.4199 38.55 36.4199 38.52 36.4199 38.49Z" fill="white"/>
<path d="M33.0901 32.81C33.1001 32.82 33.1101 32.82 33.1301 32.83C33.1401 32.83 33.1601 32.84 33.1701 32.84C33.1401 32.83 33.1101 32.82 33.0901 32.81Z" fill="white"/>
<path d="M32.9199 32.77C32.9299 32.77 32.9499 32.78 32.9599 32.78C32.9699 32.78 32.9899 32.78 32.9999 32.78C32.9799 32.78 32.9499 32.78 32.9199 32.77Z" fill="white"/>
<path d="M33.7 33.41C33.71 33.43 33.71 33.44 33.72 33.46C33.72 33.47 33.7299 33.48 33.7299 33.49C33.7199 33.46 33.71 33.43 33.7 33.41Z" fill="white"/>
<path d="M33.52 33.13C33.53 33.14 33.53 33.15 33.54 33.16C33.55 33.17 33.56 33.18 33.57 33.19C33.55 33.17 33.53 33.15 33.52 33.13Z" fill="white"/>
<path d="M37.3601 14.59C37.3701 14.58 37.3901 14.58 37.4001 14.57C37.3901 14.57 37.3901 14.57 37.3801 14.58C37.3701 14.59 37.3701 14.59 37.3601 14.59Z" fill="white"/>
<path d="M37.3999 14.58C37.4699 14.55 37.5499 14.53 37.6199 14.5C37.7499 14.46 37.8799 14.42 38.0099 14.39C38.1499 14.35 38.2899 14.32 38.4299 14.29C37.9599 14.4 37.6299 14.49 37.3999 14.58Z" fill="white"/>
<path d="M35.8799 14.51C35.8799 14.5 35.8799 14.49 35.8799 14.48C35.8699 14.49 35.8799 14.54 35.8799 14.51Z" fill="white"/>
<path d="M36.1099 14.82C36.0999 14.82 36.0999 14.82 36.0999 14.81C36.0499 14.8 36.1399 14.84 36.1099 14.82Z" fill="white"/>
<path d="M36.0099 14.77C35.9999 14.76 36.0099 14.76 36.0099 14.77C35.9799 14.75 36.0499 14.8 36.0099 14.77Z" fill="white"/>
<path d="M37.06 14.74C37.11 14.71 37.16 14.68 37.22 14.66C37.26 14.64 37.31 14.62 37.36 14.6C37.19 14.67 37.08 14.73 37 14.78C37.02 14.76 37.04 14.75 37.06 14.74Z" fill="white"/>
<path d="M35.9501 14.71C35.9101 14.67 35.9701 14.74 35.9501 14.71V14.71Z" fill="white"/>
<path d="M35.9101 14.64C35.8901 14.6 35.9201 14.67 35.9101 14.64V14.64Z" fill="white"/>
<path d="M68.27 39.17C68.26 38.92 68.24 38.68 68.21 38.44C68.18 38.2 68.15 37.95 68.08 37.72C68 37.48 67.89 37.25 67.72 37.07C67.64 36.98 67.53 36.9 67.42 36.83C68.76 35.78 69.09 34.17 68.41 32.05C67.49 29.2 65.73 27.72 64.22 26.94C64.21 26.88 64.19 26.81 64.17 26.75C64.14 26.67 64.11 26.6 64.07 26.52C64.02 26.43 63.94 26.35 63.88 26.27C63.75 26.12 63.63 25.97 63.49 25.84C63.36 25.72 63.22 25.6 63.07 25.49C62.41 25.01 61.63 24.72 60.83 24.62C60.83 24.58 60.83 24.53 60.82 24.49C60.78 24.32 60.62 24.2 60.47 24.12C60.3 24.04 60.12 24 59.93 24.03C59.75 24.06 59.57 24.17 59.49 24.34C59.44 24.44 59.43 24.55 59.44 24.65C59.32 24.67 59.2 24.69 59.08 24.72C58.48 24.87 57.88 25.11 57.36 25.44C56.87 25.75 56.41 26.17 56.17 26.71C56.13 26.8 56.1 26.89 56.07 26.98C56.16 26.4 56.12 26.01 56.12 25.93C56.01 24.76 55.78 23.63 55.42 22.57C55.41 22.54 55.4 22.52 55.39 22.49C55.32 22.27 55.24 22.06 55.16 21.85C55.16 21.84 55.17 21.84 55.17 21.83C56.59 20.17 56.43 17.53 55.43 15.68C54.88 14.66 54.05 13.8 53.07 13.19C51.87 12.45 50.4 12.15 49 12.34C48.38 12.42 47.79 12.56 47.21 12.79C47.2 12.78 47.2 12.78 47.19 12.77C47 12.54 46.8 12.31 46.58 12.1C46.38 11.91 46.16 11.74 45.94 11.58C45.07 10.96 44.05 10.54 43 10.35C42.87 10.33 42.73 10.31 42.59 10.29C42.61 10.21 42.61 10.12 42.59 10.04C42.53 9.78 42.29 9.6 42.06 9.49C41.81 9.37 41.53 9.31 41.25 9.35C40.98 9.4 40.71 9.57 40.59 9.82C40.51 9.99 40.49 10.17 40.52 10.34C40.33 10.37 40.13 10.41 39.94 10.46C39.04 10.68 38.16 11.04 37.38 11.55C36.74 11.96 36.13 12.49 35.75 13.16C35.68 13.14 35.61 13.12 35.54 13.11C34.87 12.95 34.17 12.85 33.47 12.9C32.76 12.95 32.05 13.09 31.4 13.37C30.3 13.83 29.34 14.63 28.64 15.59C28.02 16.45 27.63 17.45 27.48 18.5C27.32 18.36 27.16 18.23 26.99 18.11C26.12 17.49 25.1 17.07 24.05 16.88C23.92 16.86 23.78 16.84 23.64 16.82C23.66 16.74 23.66 16.65 23.64 16.57C23.58 16.31 23.34 16.13 23.11 16.02C22.86 15.9 22.58 15.84 22.3 15.88C22.03 15.93 21.76 16.1 21.64 16.35C21.56 16.52 21.54 16.7 21.57 16.87C21.38 16.9 21.18 16.94 20.99 16.99C20.09 17.21 19.21 17.57 18.43 18.08C17.9 18.42 17.38 18.85 17 19.37C16.22 19.02 15.16 18.74 13.76 18.73H13.53L13.45 18.94C13.4 19.09 12.17 22.55 13.37 24.78C12.74 25.65 10.16 29.51 11.69 32.65C12.29 33.89 13.46 34.84 15.17 35.5C14.97 35.78 14.86 36.12 14.87 36.46C14.86 36.48 14.86 36.5 14.85 36.52C14.79 36.74 14.76 36.97 14.75 37.2C14.72 37.64 14.75 38.09 14.84 38.52C14.85 38.56 14.86 38.6 14.87 38.65C14.87 38.66 14.88 38.67 14.88 38.68C14.91 38.83 14.95 38.99 14.99 39.14C15.07 39.4 15.18 39.66 15.31 39.9C15.35 39.98 15.4 40.06 15.45 40.14L16.13 44.16C16.26 44.95 16.91 45.6 17.83 45.85C18.82 46.12 20.53 46.44 23.06 46.44C25.59 46.44 27.3 46.12 28.29 45.85C29.21 45.6 29.86 44.95 29.99 44.16L30.49 40.44C30.58 40.32 30.67 40.19 30.75 40.06C31.01 39.64 31.18 39.17 31.28 38.69C31.28 38.68 31.29 38.67 31.29 38.66C31.34 38.45 31.37 38.24 31.39 38.02C31.41 37.81 31.42 37.59 31.41 37.38C31.4 36.94 31.34 36.47 31.12 36.07C31.09 36.02 31.06 35.97 31.02 35.92C30.99 35.72 30.92 35.52 30.82 35.34C31.13 35.2 31.42 35.06 31.69 34.9C31.69 34.92 31.69 34.94 31.7 34.96C31.71 35.01 31.71 35.06 31.72 35.11C31.72 35.12 31.72 35.13 31.72 35.14C31.72 35.16 31.72 35.18 31.73 35.2C31.86 35.89 32.1 36.58 32.49 37.17C32.66 37.43 32.86 37.68 33.09 37.9C33.15 37.96 33.21 38.02 33.27 38.08L34.12 44.47C34.26 45.53 34.99 46.45 36 46.8C37.14 47.19 39.1 47.66 42 47.66C44.9 47.66 46.86 47.19 48 46.8C49.01 46.45 49.75 45.54 49.88 44.48L50.76 37.83C50.9 37.68 51.03 37.52 51.15 37.36C51.56 36.81 51.82 36.16 51.98 35.49C52 35.42 52.01 35.35 52.03 35.27C52.24 35.89 52.61 36.42 53.16 36.85C52.94 36.97 52.75 37.17 52.63 37.39C52.52 37.6 52.44 37.84 52.4 38.08C52.35 38.34 52.33 38.6 52.31 38.86C52.28 39.26 52.28 39.67 52.36 40.06C52.22 41.05 52.28 42.12 52.82 43.09C53.85 44.95 56.36 45.9 60.26 45.91H60.32C64.22 45.9 66.73 44.95 67.76 43.09C68.32 42.09 68.36 40.97 68.2 39.95C68.26 39.67 68.28 39.42 68.27 39.17ZM67.44 37.81C67.43 37.8 67.43 37.79 67.42 37.78C67.49 37.97 67.54 38.17 67.56 38.38C67.56 38.36 67.56 38.34 67.55 38.32C67.55 38.35 67.56 38.38 67.56 38.41C67.56 38.4 67.56 38.39 67.56 38.38C67.62 38.83 67.66 39.29 67.6 39.75C67.6 39.74 67.6 39.72 67.61 39.71C67.61 39.74 67.6 39.77 67.6 39.8C67.6 39.78 67.6 39.77 67.6 39.75C67.59 39.81 67.58 39.88 67.56 39.94C67.53 40.07 67.49 40.2 67.44 40.32C67.45 40.31 67.45 40.29 67.46 40.28C67.45 40.31 67.44 40.33 67.43 40.36C67.43 40.35 67.44 40.34 67.44 40.33C67.38 40.46 67.32 40.58 67.23 40.69C67.24 40.68 67.24 40.67 67.25 40.67C67.23 40.69 67.22 40.71 67.2 40.73C67.21 40.72 67.22 40.7 67.23 40.69C67.16 40.78 67.08 40.86 66.99 40.94C67 40.93 67.01 40.93 67.02 40.92C67 40.94 66.98 40.95 66.96 40.97C66.97 40.96 66.98 40.95 66.99 40.94C66.89 41.01 66.78 41.08 66.66 41.13C66.68 41.12 66.69 41.12 66.71 41.11C66.68 41.12 66.66 41.13 66.63 41.14C66.64 41.14 66.65 41.13 66.66 41.13C66.51 41.19 66.35 41.23 66.19 41.25C66.2 41.25 66.22 41.25 66.23 41.25C66.2 41.25 66.17 41.26 66.14 41.26C66.16 41.26 66.17 41.25 66.19 41.25C65.94 41.28 65.69 41.27 65.45 41.24C65.47 41.24 65.48 41.25 65.5 41.25C65.47 41.25 65.44 41.24 65.41 41.24C65.42 41.24 65.44 41.24 65.45 41.24C65.22 41.21 64.99 41.15 64.77 41.09C64.65 41.06 64.53 41.03 64.41 40.99C64.31 40.96 64.22 40.93 64.12 40.9C64.13 40.91 64.15 40.91 64.16 40.92C64.13 40.91 64.11 40.9 64.08 40.89C64.09 40.9 64.1 40.9 64.12 40.9C64.09 40.88 64.05 40.87 64.02 40.85C64.03 40.86 64.04 40.87 64.06 40.88C64.04 40.87 64.02 40.85 64.01 40.84C64.01 40.84 64.01 40.85 64.02 40.85L64.01 40.84C64.01 40.84 64.01 40.84 64 40.84C64 40.84 64 40.84 64.01 40.84C64 40.83 64 40.82 63.99 40.81C63.99 40.82 63.99 40.82 64 40.83C64 40.82 63.99 40.81 63.99 40.8C63.99 40.81 63.98 40.82 63.98 40.83C63.98 40.82 63.98 40.81 63.98 40.8C63.98 40.81 63.97 40.81 63.97 40.82C63.97 40.81 63.98 40.8 63.98 40.79C63.98 40.79 63.98 40.79 63.98 40.78C63.98 40.77 63.98 40.77 63.97 40.76C63.97 40.77 63.98 40.77 63.98 40.77C63.98 40.76 63.98 40.75 63.98 40.74C63.98 40.75 63.99 40.76 63.99 40.76C63.99 40.75 63.99 40.74 63.99 40.73C63.99 40.74 63.99 40.74 63.99 40.75C63.99 40.74 64 40.73 64 40.73C64 40.74 64 40.74 64 40.75C64.01 40.74 64.02 40.72 64.03 40.71C64.02 40.72 64.01 40.73 64.01 40.75C64.1 40.65 64.2 40.57 64.31 40.49C64.44 40.39 64.56 40.28 64.68 40.18C64.93 39.97 65.17 39.75 65.4 39.53C65.87 39.08 66.31 38.61 66.72 38.11C66.78 38.03 66.85 37.96 66.9 37.87C66.91 37.86 66.91 37.86 66.92 37.85C66.98 37.76 67.02 37.66 67.06 37.57C67.08 37.52 67.1 37.47 67.11 37.41C67.13 37.42 67.15 37.44 67.17 37.45C67.16 37.44 67.15 37.43 67.14 37.42C67.16 37.44 67.18 37.45 67.2 37.47C67.19 37.46 67.18 37.45 67.17 37.45C67.21 37.49 67.26 37.53 67.29 37.57C67.28 37.56 67.28 37.55 67.27 37.54C67.29 37.56 67.3 37.58 67.32 37.6C67.31 37.59 67.3 37.58 67.29 37.57C67.34 37.64 67.38 37.72 67.42 37.8C67.41 37.76 67.41 37.74 67.4 37.73C67.41 37.76 67.43 37.78 67.44 37.81ZM66.68 36.7C66.69 36.7 66.7 36.69 66.71 36.69C66.73 36.68 66.76 36.68 66.79 36.68C66.75 36.68 66.71 36.69 66.68 36.7ZM66.88 37.31C66.91 37.31 66.94 37.32 66.97 37.32C66.96 37.32 66.94 37.32 66.93 37.32C66.91 37.32 66.9 37.31 66.88 37.31ZM67 37.33C67.03 37.34 67.05 37.35 67.08 37.36C67.07 37.35 67.05 37.35 67.04 37.35C67.03 37.34 67.02 37.34 67 37.33ZM59.75 24.55C59.75 24.53 59.76 24.52 59.76 24.51V24.5C59.76 24.5 59.76 24.5 59.76 24.49L59.78 24.46C59.79 24.45 59.8 24.44 59.81 24.42C59.82 24.41 59.82 24.41 59.82 24.41C59.83 24.41 59.83 24.4 59.84 24.4C59.86 24.39 59.87 24.38 59.89 24.37H59.9H59.91C59.93 24.36 59.95 24.36 59.97 24.35C59.98 24.35 59.99 24.35 60 24.35C60 24.35 60 24.35 60.01 24.35C60.03 24.35 60.05 24.35 60.07 24.35C60.08 24.35 60.09 24.35 60.1 24.35C60.11 24.35 60.11 24.35 60.11 24.35C60.13 24.35 60.15 24.36 60.17 24.36C60.26 24.38 60.31 24.41 60.39 24.46C60.39 24.46 60.44 24.5 60.42 24.48C60.43 24.49 60.44 24.5 60.46 24.51C60.47 24.52 60.47 24.52 60.48 24.53C60.48 24.53 60.48 24.53 60.48 24.54C60.48 24.55 60.49 24.55 60.49 24.56C60.49 24.56 60.49 24.56 60.49 24.57C60.49 24.58 60.49 24.58 60.49 24.58C60.49 24.59 60.49 24.59 60.49 24.6C60.49 24.6 60.49 24.6 60.48 24.6C60.23 24.59 59.98 24.59 59.73 24.62C59.73 24.61 59.73 24.61 59.73 24.6C59.75 24.58 59.75 24.55 59.75 24.55ZM56.4 27.41C56.4 27.4 56.4 27.39 56.4 27.37C56.4 27.34 56.4 27.31 56.4 27.28C56.4 27.28 56.4 27.27 56.4 27.26V27.27C56.4 27.26 56.4 27.26 56.4 27.26C56.41 27.25 56.41 27.23 56.41 27.21C56.44 27.08 56.47 26.98 56.52 26.87C56.57 26.76 56.63 26.66 56.7 26.55C56.74 26.49 56.75 26.47 56.8 26.42C56.85 26.36 56.89 26.31 56.94 26.26C57.03 26.16 57.13 26.07 57.24 25.99C57.29 25.95 57.32 25.92 57.38 25.88C57.44 25.84 57.51 25.79 57.57 25.75C57.69 25.67 57.81 25.6 57.94 25.54C58.2 25.4 58.44 25.3 58.72 25.21C59.29 25.02 59.87 24.93 60.47 24.96C61.12 24.99 61.76 25.17 62.33 25.48C62.61 25.63 62.88 25.81 63.12 26.02C63.26 26.14 63.38 26.27 63.5 26.41C63.57 26.5 63.67 26.6 63.73 26.69C63.75 26.72 63.76 26.74 63.77 26.77C63.83 26.9 63.85 27.03 63.85 27.16C63.85 27.25 63.83 27.35 63.8 27.43C63.79 27.45 63.78 27.47 63.77 27.5C63.71 27.61 63.62 27.69 63.49 27.75C63.36 27.81 63.21 27.83 63.06 27.83C63.02 27.83 62.98 27.83 62.94 27.82C62.95 27.82 62.95 27.82 62.94 27.82C62.78 27.8 62.63 27.76 62.48 27.71C62.29 27.65 62.11 27.58 61.94 27.51C61.61 27.39 61.28 27.29 60.94 27.23C60.66 27.17 60.38 27.13 60.1 27.11C59.91 27.1 59.72 27.09 59.53 27.09C59.46 27.09 59.39 27.09 59.33 27.09C59.11 27.1 58.9 27.11 58.69 27.14C58.61 27.15 58.53 27.16 58.46 27.17C58.45 27.17 58.43 27.17 58.42 27.18C58.42 27.18 58.42 27.18 58.41 27.18C58.13 27.23 57.85 27.29 57.57 27.37C57.48 27.4 57.4 27.42 57.31 27.46C57.23 27.49 57.16 27.54 57.09 27.58C57.02 27.61 56.97 27.61 56.9 27.63C56.89 27.63 56.89 27.63 56.88 27.63C56.87 27.63 56.87 27.63 56.87 27.63H56.88C56.86 27.63 56.82 27.63 56.82 27.64C56.79 27.64 56.76 27.64 56.72 27.64C56.71 27.64 56.69 27.64 56.68 27.64C56.67 27.64 56.66 27.64 56.66 27.64C56.7 27.65 56.62 27.64 56.65 27.64C56.65 27.64 56.65 27.64 56.66 27.64C56.63 27.63 56.6 27.63 56.57 27.62C56.56 27.62 56.56 27.62 56.55 27.61C56.57 27.62 56.54 27.61 56.54 27.61C56.53 27.6 56.51 27.6 56.5 27.59H56.49C56.47 27.58 56.51 27.61 56.49 27.59C56.49 27.59 56.49 27.59 56.48 27.58C56.47 27.57 56.46 27.56 56.45 27.55C56.45 27.56 56.45 27.55 56.44 27.54L56.45 27.55C56.45 27.55 56.44 27.54 56.44 27.53C56.44 27.52 56.43 27.51 56.43 27.51C56.43 27.51 56.43 27.51 56.43 27.52C56.43 27.52 56.43 27.51 56.42 27.5C56.42 27.5 56.42 27.51 56.43 27.51V27.5C56.41 27.45 56.4 27.43 56.4 27.41C56.4 27.45 56.39 27.38 56.4 27.41ZM63.16 28.24C63.15 28.24 63.15 28.24 63.16 28.24V28.25V28.26C63.16 28.26 63.16 28.26 63.16 28.27C63.16 28.27 63.16 28.28 63.16 28.29V28.28C63.16 28.29 63.16 28.29 63.16 28.29C63.15 28.31 63.13 28.35 63.13 28.35C63.04 28.46 62.9 28.54 62.77 28.59C62.46 28.7 62.11 28.69 61.79 28.64C61.4 28.58 61.02 28.48 60.63 28.44C60.25 28.4 59.86 28.41 59.48 28.45C59.08 28.5 58.7 28.6 58.32 28.69C58.22 28.71 58.11 28.74 58.01 28.76H58.02C58.05 28.76 57.96 28.77 58 28.76C57.99 28.76 57.98 28.76 57.96 28.76C57.85 28.77 57.74 28.77 57.64 28.77C57.61 28.77 57.57 28.77 57.54 28.76C57.52 28.76 57.51 28.76 57.49 28.75C57.55 28.76 57.49 28.75 57.48 28.75C57.41 28.74 57.34 28.72 57.28 28.7C57.27 28.7 57.26 28.69 57.26 28.69C57.29 28.71 57.22 28.68 57.25 28.69C57.25 28.69 57.25 28.69 57.26 28.69C57.24 28.68 57.23 28.67 57.21 28.67C57.19 28.66 57.18 28.65 57.16 28.64C57.15 28.64 57.15 28.63 57.14 28.62C57.1 28.59 57.16 28.65 57.14 28.62C57.12 28.6 57.1 28.58 57.08 28.56C57.08 28.56 57.08 28.56 57.06 28.54C57.07 28.55 57.07 28.55 57.08 28.56C57.08 28.55 57.06 28.53 57.05 28.52C57.04 28.5 57.03 28.48 57.02 28.47C57.05 28.51 57.02 28.47 57.01 28.45C57 28.43 57 28.41 56.99 28.38C56.99 28.37 56.99 28.36 56.99 28.36C56.99 28.36 56.99 28.36 56.99 28.37C56.99 28.36 56.99 28.35 56.99 28.34C56.99 28.32 56.99 28.29 56.99 28.27C56.99 28.24 56.99 28.21 57 28.18C56.99 28.22 57 28.16 57 28.18C57 28.16 57.01 28.15 57.01 28.13C57.02 28.09 57.03 28.05 57.04 28.01C57.06 28 57.07 27.99 57.09 27.99C57.11 27.98 57.13 27.97 57.15 27.96C57.16 27.96 57.17 27.95 57.17 27.95C57.16 27.95 57.16 27.96 57.15 27.96C57.17 27.95 57.17 27.95 57.16 27.95C57.16 27.95 57.17 27.95 57.17 27.94C57.17 27.94 57.17 27.94 57.18 27.94H57.19C57.25 27.92 57.3 27.89 57.36 27.87C57.72 27.73 58.1 27.63 58.48 27.55C58.72 27.51 58.97 27.48 59.22 27.47C59.57 27.45 59.92 27.47 60.27 27.5C60.3 27.5 60.33 27.51 60.36 27.51C60.37 27.51 60.37 27.51 60.38 27.51C60.39 27.51 60.39 27.51 60.4 27.51C60.47 27.52 60.54 27.53 60.6 27.54C60.99 27.6 61.37 27.68 61.73 27.83C61.75 27.84 61.82 27.87 61.86 27.88C62.03 27.95 62.2 28.01 62.37 28.07C62.52 28.12 62.67 28.15 62.82 28.18C62.85 28.18 62.88 28.19 62.91 28.19C62.99 28.2 63.06 28.2 63.14 28.2C63.19 28.2 63.24 28.19 63.29 28.19C63.24 28.2 63.19 28.21 63.14 28.21C63.15 28.23 63.15 28.23 63.16 28.24C63.15 28.23 63.15 28.23 63.16 28.24ZM57.01 27.98C57.01 27.99 57.01 27.99 57.01 27.98C56.98 27.99 56.99 27.99 57.01 27.98ZM58.68 27.52C58.69 27.52 58.7 27.52 58.68 27.52V27.52ZM63.18 27.84H63.19H63.2C63.24 27.83 63.15 27.84 63.18 27.84ZM55.22 24.28C55.34 24.83 55.43 25.41 55.48 26.01C55.48 26.01 55.56 26.69 55.27 27.64C55.12 28.13 54.86 28.69 54.45 29.26C54.35 29.4 54.24 29.54 54.12 29.67C53.74 30.11 53.25 30.54 52.64 30.95C52.34 31.15 52 31.34 51.63 31.53C51.37 31.66 51.1 31.78 50.81 31.9C48.95 32.64 46.36 33.14 42.76 33.14H42.38C38.69 33.14 36.07 32.61 34.2 31.85C34.09 31.81 33.99 31.76 33.88 31.72C33.79 31.68 33.69 31.63 33.6 31.59C33.13 31.36 32.71 31.12 32.34 30.87C32.23 30.8 32.13 30.72 32.03 30.65C31.65 30.36 31.33 30.06 31.06 29.76C29.41 27.92 29.63 26.03 29.63 26.03C29.69 25.42 29.78 24.84 29.89 24.29C29.94 24.04 30 23.8 30.07 23.56C30.19 23.6 30.31 23.63 30.43 23.65C30.53 23.67 30.62 23.68 30.72 23.69C30.83 23.7 30.94 23.7 31.05 23.7C31.1 23.7 31.15 23.7 31.2 23.7C31.22 23.7 31.25 23.7 31.27 23.69C31.52 23.67 31.75 23.62 31.98 23.54C32.23 23.45 32.47 23.33 32.69 23.17C33.18 22.82 33.56 22.3 33.73 21.68C33.9 21.06 33.9 20.42 34.04 19.8C34.16 19.28 34.35 18.77 34.62 18.3C35.05 17.54 35.69 16.91 36.48 16.55C36.65 16.78 36.92 16.93 37.19 17.01C37.6 17.13 38.06 17.13 38.48 17.06C38.86 17 39.23 16.89 39.6 16.8C39.97 16.71 40.35 16.63 40.72 16.59C41.48 16.51 42.24 16.54 42.98 16.69C43.73 16.84 44.47 17.03 45.24 16.92C45.58 16.87 45.91 16.75 46.19 16.55C46.44 16.37 46.7 16.11 46.69 15.78C47.45 16.02 48.12 16.47 48.64 17.12C48.95 17.51 49.2 17.96 49.38 18.43C49.6 19 49.69 19.58 49.77 20.18C49.85 20.82 49.97 21.47 50.36 22C50.7 22.45 51.16 22.78 51.69 22.97C52.71 23.32 53.83 23.04 54.66 22.38C54.7 22.5 54.75 22.62 54.79 22.74C54.96 23.21 55.11 23.73 55.22 24.28ZM33.39 32.19C33.38 32.21 33.38 32.22 33.37 32.24C33.34 32.23 33.32 32.22 33.29 32.21L33.28 32.15C33.32 32.16 33.35 32.17 33.39 32.19ZM36.76 15.67C36.77 15.63 36.78 15.58 36.78 15.54C36.79 15.48 36.81 15.43 36.82 15.37C36.83 15.37 36.84 15.36 36.84 15.36C36.88 15.34 36.93 15.32 36.97 15.3C36.99 15.29 37 15.28 37.02 15.28C37.02 15.28 37.03 15.28 37.03 15.27C37.01 15.28 37 15.28 37.04 15.27H37.03C37.03 15.27 37.03 15.27 37.04 15.27C37.06 15.26 37.08 15.26 37.09 15.25C37.1 15.25 37.11 15.24 37.12 15.24C37.32 15.16 37.52 15.08 37.73 15.02C37.73 15.02 37.73 15.02 37.74 15.02C37.75 15.02 37.76 15.01 37.78 15.01C37.92 14.96 38.07 14.92 38.21 14.88C38.24 14.87 38.26 14.87 38.29 14.86C38.54 14.79 38.79 14.73 39.05 14.68C39.07 14.68 39.08 14.67 39.1 14.67C39.15 14.66 39.2 14.65 39.25 14.64C39.27 14.64 39.29 14.63 39.31 14.63C39.32 14.63 39.36 14.62 39.37 14.62H39.36C39.39 14.62 39.39 14.62 39.37 14.62C39.48 14.61 39.58 14.59 39.69 14.59C39.85 14.58 40.01 14.57 40.17 14.56C40.74 14.53 41.32 14.55 41.9 14.62C41.91 14.62 41.92 14.62 41.93 14.62C42.48 14.69 43.06 14.81 43.61 14.98C43.83 15.05 44.04 15.13 44.25 15.21C44.32 15.24 44.4 15.27 44.47 15.3C44.62 15.36 44.78 15.42 44.94 15.47C44.98 15.48 45.02 15.49 45.06 15.51C45.15 15.54 45.24 15.56 45.33 15.59C45.48 15.63 45.64 15.66 45.79 15.67C45.91 15.69 46.04 15.7 46.17 15.69C46.17 15.69 46.17 15.69 46.17 15.7C46.17 15.7 46.17 15.7 46.18 15.71L46.17 15.7C46.17 15.7 46.18 15.73 46.18 15.74C46.18 15.74 46.18 15.75 46.18 15.76C46.18 15.74 46.18 15.75 46.18 15.76C46.18 15.77 46.18 15.78 46.18 15.76C46.18 15.77 46.18 15.77 46.18 15.78C46.18 15.8 46.18 15.82 46.18 15.82C46.18 15.81 46.18 15.81 46.19 15.8C46.19 15.82 46.18 15.82 46.18 15.82C46.18 15.83 46.17 15.85 46.17 15.86C46.17 15.86 46.17 15.86 46.17 15.85C46.19 15.82 46.17 15.88 46.17 15.86C46.17 15.87 46.16 15.87 46.16 15.88C46.15 15.91 46.13 15.93 46.11 15.96C46.1 15.98 46.11 15.97 46.11 15.96C46.1 15.97 46.09 15.98 46.08 15.99C46.06 16.01 46.04 16.03 46.02 16.05C45.97 16.1 45.94 16.12 45.9 16.15C45.85 16.19 45.8 16.22 45.74 16.25C45.71 16.26 45.69 16.28 45.66 16.29C45.65 16.3 45.64 16.3 45.63 16.31C45.62 16.31 45.62 16.32 45.61 16.32C45.58 16.34 45.62 16.32 45.61 16.32C45.61 16.32 45.61 16.32 45.6 16.32C45.48 16.37 45.36 16.4 45.24 16.43C45.11 16.46 45.03 16.47 44.88 16.47C44.62 16.48 44.35 16.46 44.1 16.43C43.5 16.34 42.92 16.18 42.32 16.11C41.73 16.05 41.13 16.05 40.55 16.13C39.95 16.2 39.37 16.36 38.78 16.5C38.63 16.54 38.47 16.57 38.32 16.6H38.33C38.39 16.59 38.25 16.61 38.32 16.6C38.3 16.6 38.27 16.61 38.25 16.61C38.08 16.63 37.92 16.63 37.75 16.62C37.7 16.62 37.64 16.61 37.59 16.61C37.58 16.61 37.57 16.61 37.56 16.61H37.57C37.6 16.62 37.5 16.6 37.56 16.61C37.54 16.61 37.51 16.6 37.49 16.6C37.38 16.58 37.28 16.55 37.18 16.52C37.18 16.52 37.18 16.52 37.17 16.52C37.17 16.52 37.17 16.52 37.15 16.51H37.14C37.14 16.51 37.14 16.51 37.15 16.51C37.13 16.5 37.11 16.49 37.08 16.48C37.04 16.46 37 16.43 36.96 16.4C36.97 16.41 36.98 16.42 36.95 16.4C36.95 16.4 36.94 16.4 36.94 16.39C36.94 16.39 36.95 16.39 36.95 16.4C36.94 16.4 36.94 16.39 36.93 16.39C36.93 16.39 36.92 16.39 36.92 16.38C36.9 16.36 36.88 16.34 36.86 16.32C36.85 16.31 36.85 16.31 36.84 16.3C36.87 16.34 36.81 16.26 36.83 16.29C36.83 16.29 36.83 16.29 36.84 16.3C36.83 16.28 36.81 16.26 36.8 16.23C36.79 16.22 36.79 16.2 36.78 16.18C36.78 16.19 36.78 16.19 36.77 16.17C36.77 16.17 36.77 16.17 36.77 16.16C36.77 16.15 36.76 16.13 36.76 16.12C36.75 16.09 36.74 16.06 36.74 16.04C36.74 16.03 36.73 16.01 36.73 16C36.72 15.97 36.73 16.05 36.73 16C36.73 15.95 36.72 15.9 36.73 15.85C36.73 15.83 36.73 15.8 36.73 15.78C36.76 15.72 36.76 15.7 36.76 15.67C36.76 15.68 36.76 15.68 36.76 15.67C36.76 15.71 36.76 15.64 36.76 15.67ZM37.54 15.03C37.53 15.04 37.53 15.04 37.54 15.03V15.03ZM42.2 14.64C42.16 14.63 42.22 14.64 42.2 14.64V14.64ZM44.03 15.1C44.03 15.1 44.04 15.1 44.04 15.11C44.04 15.1 44.04 15.1 44.03 15.1C44.04 15.1 44.04 15.1 44.03 15.1ZM47.64 13.48C47.62 13.41 47.59 13.35 47.56 13.29C48.25 13.04 48.99 12.89 49.72 12.88C50.94 12.86 52.14 13.24 53.13 13.95C53.95 14.54 54.62 15.33 55.06 16.24C55.79 17.74 55.91 19.78 54.95 21.19C54.93 21.21 54.92 21.23 54.9 21.26C54.76 21.45 54.61 21.63 54.43 21.79C54.38 21.83 54.33 21.88 54.28 21.92C53.57 22.5 52.57 22.7 51.71 22.34C51.3 22.17 50.94 21.87 50.71 21.48C50.41 20.98 50.36 20.38 50.29 19.82C50.16 18.78 49.84 17.76 49.21 16.91C48.69 16.2 48 15.64 47.19 15.32C47.53 15.05 47.72 14.64 47.73 14.2C47.75 13.95 47.71 13.71 47.64 13.48ZM41 10.16C41.01 10.14 41.01 10.11 41.02 10.09C41.02 10.08 41.02 10.08 41.02 10.08C41.02 10.08 41.02 10.07 41.03 10.07C41.03 10.06 41.06 10.02 41.06 10.02C41.08 10 41.1 9.98 41.11 9.96C41.12 9.95 41.13 9.95 41.13 9.95C41.14 9.94 41.15 9.94 41.15 9.93C41.18 9.91 41.2 9.9 41.23 9.89C41.24 9.89 41.24 9.89 41.24 9.88C41.24 9.88 41.25 9.88 41.26 9.88C41.29 9.87 41.32 9.86 41.35 9.86C41.36 9.86 41.38 9.85 41.39 9.85H41.4C41.43 9.85 41.46 9.85 41.5 9.85C41.51 9.85 41.57 9.86 41.57 9.86C41.6 9.86 41.63 9.87 41.65 9.88C41.78 9.91 41.86 9.95 41.98 10.03C41.99 10.03 42.03 10.07 42.03 10.07C42.05 10.08 42.06 10.1 42.08 10.11C42.09 10.12 42.1 10.13 42.11 10.14C42.11 10.14 42.11 10.15 42.12 10.15C42.13 10.16 42.13 10.17 42.14 10.18V10.19C42.14 10.2 42.14 10.2 42.14 10.21C42.14 10.22 42.14 10.23 42.14 10.23C42.14 10.23 42.14 10.23 42.14 10.24C42.11 10.26 42.09 10.27 42.06 10.29C42.05 10.29 42.04 10.29 42.03 10.29C41.78 10.28 41.52 10.28 41.27 10.3C41.18 10.3 41.09 10.3 41 10.3C41 10.29 41 10.29 40.99 10.28C40.99 10.27 40.99 10.27 40.99 10.27C40.99 10.26 40.99 10.25 40.99 10.24C41 10.21 41.01 10.16 41 10.16ZM35.88 14.29C35.88 14.28 35.88 14.27 35.88 14.26C35.88 14.23 35.89 14.2 35.89 14.18C35.91 14.09 35.93 13.99 35.96 13.9C35.97 13.88 35.97 13.86 35.98 13.84C35.99 13.82 36 13.79 36 13.77C36.01 13.75 36.02 13.73 36.02 13.71C36 13.74 36.03 13.67 36.02 13.71C36.03 13.7 36.03 13.68 36.04 13.67C36.1 13.55 36.16 13.43 36.23 13.31C36.26 13.26 36.29 13.21 36.32 13.17C36.35 13.13 36.37 13.09 36.4 13.06C36.39 13.07 36.39 13.07 36.41 13.05C36.41 13.05 36.41 13.05 36.4 13.06C36.41 13.05 36.41 13.04 36.42 13.04C36.44 13.02 36.46 12.99 36.48 12.97C36.55 12.89 36.61 12.82 36.69 12.74C36.83 12.59 36.99 12.45 37.15 12.32C37.17 12.3 37.19 12.29 37.21 12.27C37.21 12.27 37.21 12.27 37.22 12.27C37.19 12.29 37.24 12.26 37.22 12.27C37.23 12.26 37.24 12.26 37.24 12.25C37.29 12.21 37.33 12.18 37.38 12.15C37.47 12.09 37.56 12.02 37.65 11.96C37.84 11.84 38.03 11.73 38.22 11.63C38.32 11.58 38.42 11.53 38.52 11.48C38.57 11.46 38.62 11.44 38.66 11.41C38.68 11.4 38.71 11.39 38.73 11.38C38.74 11.37 38.76 11.37 38.77 11.36C38.77 11.36 38.8 11.35 38.81 11.34C38.79 11.35 38.8 11.34 38.81 11.34C38.82 11.34 38.82 11.34 38.81 11.34H38.82C38.83 11.33 38.85 11.33 38.86 11.32C38.88 11.31 38.91 11.3 38.93 11.29C38.98 11.27 39.03 11.25 39.09 11.23C39.19 11.19 39.3 11.15 39.41 11.12C40.01 10.92 40.6 10.79 41.21 10.75C41.5 10.75 41.79 10.74 42.07 10.74C42.08 10.74 42.1 10.74 42.11 10.74C42.23 10.75 42.35 10.76 42.48 10.77C42.61 10.78 42.68 10.79 42.83 10.82C43.08 10.86 43.33 10.92 43.57 10.99C44.07 11.13 44.5 11.3 44.95 11.54C45.17 11.66 45.39 11.79 45.6 11.94C45.81 12.08 45.96 12.21 46.16 12.38C46.37 12.57 46.56 12.78 46.74 12.99L46.75 13C46.84 13.11 46.93 13.22 47.02 13.32C47.03 13.33 47.03 13.33 47.03 13.33C47.04 13.34 47.04 13.35 47.03 13.33C47.04 13.34 47.04 13.35 47.05 13.37C47.06 13.39 47.07 13.41 47.08 13.43C47.09 13.44 47.09 13.45 47.1 13.46C47.11 13.48 47.11 13.49 47.12 13.51C47.12 13.51 47.12 13.51 47.12 13.52C47.12 13.51 47.12 13.51 47.12 13.52C47.12 13.53 47.13 13.54 47.12 13.52C47.12 13.53 47.13 13.55 47.13 13.56C47.17 13.66 47.2 13.77 47.22 13.88C47.22 13.89 47.23 13.93 47.23 13.94C47.23 13.92 47.23 13.93 47.23 13.94C47.23 13.95 47.23 13.95 47.23 13.94V13.95C47.23 13.96 47.23 13.98 47.23 13.99C47.23 14.05 47.24 14.11 47.24 14.16C47.24 14.21 47.24 14.25 47.23 14.29C47.23 14.29 47.23 14.29 47.23 14.31C47.23 14.3 47.23 14.3 47.23 14.29C47.23 14.3 47.23 14.33 47.22 14.34C47.21 14.37 47.21 14.4 47.2 14.42C47.19 14.47 47.17 14.52 47.15 14.57C47.15 14.57 47.15 14.57 47.15 14.58C47.15 14.57 47.16 14.57 47.15 14.58C47.14 14.6 47.15 14.59 47.15 14.58C47.15 14.59 47.14 14.6 47.14 14.6C47.13 14.62 47.12 14.65 47.1 14.67C47.09 14.69 47.08 14.71 47.06 14.73C47.05 14.74 47.04 14.75 47.04 14.76C47.04 14.76 47.04 14.76 47.03 14.77C47.02 14.78 47.03 14.78 47.03 14.77C47.02 14.78 47 14.81 46.99 14.81C46.97 14.83 46.95 14.86 46.92 14.88C46.9 14.89 46.89 14.91 46.87 14.92C46.87 14.92 46.87 14.92 46.86 14.93C46.86 14.93 46.86 14.93 46.87 14.92C46.87 14.92 46.83 14.95 46.82 14.95C46.77 14.99 46.71 15.02 46.66 15.04C46.65 15.05 46.63 15.05 46.62 15.06C46.62 15.06 46.62 15.06 46.63 15.06H46.62C46.62 15.06 46.61 15.06 46.6 15.07C46.57 15.08 46.55 15.09 46.52 15.1C46.46 15.12 46.4 15.13 46.33 15.15C46.31 15.15 46.3 15.16 46.28 15.16L46.2 15.17C46.19 15.17 46.19 15.17 46.18 15.17C46.17 15.17 46.15 15.17 46.14 15.17C46.09 15.17 46.04 15.17 45.98 15.17C45.95 15.17 45.92 15.17 45.89 15.16C45.88 15.16 45.82 15.16 45.79 15.15C45.78 15.15 45.78 15.15 45.78 15.15C45.73 15.14 45.69 15.14 45.64 15.13C45.61 15.12 45.58 15.12 45.55 15.11C45.43 15.09 45.32 15.06 45.21 15.02H45.2C44.93 14.93 44.66 14.82 44.39 14.72C44.35 14.7 44.31 14.69 44.27 14.68C44.26 14.68 44.25 14.67 44.24 14.67C43.68 14.43 43.1 14.29 42.5 14.19C42.32 14.16 42.15 14.14 41.97 14.12C41.53 14.07 41.09 14.04 40.64 14.04C40.58 14.04 40.52 14.04 40.46 14.04C40.07 14.05 39.69 14.07 39.31 14.12C39.21 14.13 39.11 14.15 39.01 14.16C38.99 14.16 38.97 14.17 38.95 14.17C38.94 14.17 38.94 14.17 38.93 14.17C38.75 14.2 38.58 14.23 38.41 14.27C38.27 14.3 38.13 14.33 37.99 14.37C37.86 14.4 37.73 14.44 37.6 14.48C37.52 14.5 37.45 14.53 37.38 14.56C37.37 14.57 37.35 14.57 37.34 14.58C37.29 14.6 37.25 14.62 37.2 14.64C37.15 14.67 37.1 14.7 37.04 14.72C37.02 14.73 37 14.74 36.97 14.75C36.79 14.88 36.4 14.85 36.4 14.85C36.39 14.85 36.38 14.85 36.36 14.85C36.35 14.85 36.34 14.85 36.34 14.85C36.33 14.85 36.32 14.85 36.31 14.85C36.3 14.85 36.3 14.85 36.29 14.85C35.91 14.8 35.86 14.51 35.86 14.36C35.87 14.35 35.87 14.32 35.88 14.29ZM36.11 14.82C36.14 14.84 36.05 14.8 36.1 14.81C36.1 14.82 36.1 14.82 36.11 14.82ZM36.01 14.77C35.98 14.75 36.05 14.8 36.01 14.77C36 14.76 36.01 14.76 36.01 14.77ZM35.95 14.71C35.91 14.67 35.97 14.74 35.95 14.71V14.71ZM35.87 14.49C35.87 14.5 35.87 14.51 35.87 14.52C35.88 14.54 35.87 14.49 35.87 14.49ZM35.91 14.64C35.89 14.6 35.92 14.67 35.91 14.64V14.64ZM28.04 19.05C28.07 18.51 28.17 17.98 28.33 17.5C28.65 16.55 29.22 15.69 29.96 15.01C30.34 14.66 30.76 14.37 31.21 14.12C31.76 13.82 32.37 13.65 32.99 13.55C33.84 13.42 34.7 13.49 35.53 13.71C35.49 13.82 35.46 13.93 35.43 14.05C35.36 14.41 35.36 14.83 35.66 15.1C35.85 15.27 36.09 15.34 36.34 15.35C36.29 15.56 36.26 15.77 36.28 15.98C35.77 16.21 35.3 16.53 34.9 16.94C34.21 17.65 33.74 18.57 33.5 19.53C33.36 20.1 33.35 20.7 33.23 21.28C33.15 21.68 32.99 22.05 32.73 22.35C32.65 22.45 32.56 22.54 32.46 22.62C32.34 22.72 32.21 22.8 32.08 22.86C31.87 22.97 31.64 23.03 31.4 23.07C31.23 23.1 31.05 23.1 30.87 23.09C30.81 23.09 30.75 23.08 30.7 23.07C30.54 23.05 30.39 23.02 30.24 22.97C30.15 22.94 30.06 22.91 29.97 22.87C29.87 22.82 29.78 22.77 29.69 22.72C29.68 22.71 29.67 22.7 29.65 22.7C29.23 22.44 28.9 22.1 28.65 21.7C28.61 21.64 28.57 21.58 28.54 21.51C28.54 21.5 28.53 21.5 28.53 21.49C28.48 21.4 28.44 21.32 28.4 21.23C28.36 21.13 28.32 21.03 28.28 20.93C28.21 20.74 28.16 20.54 28.12 20.34C28.08 20.16 28.06 19.97 28.05 19.79C28.05 19.74 28.04 19.69 28.04 19.64C28.03 19.44 28.03 19.24 28.04 19.05ZM28.24 21.1C28.23 21.11 28.23 21.12 28.24 21.1C28.24 21.09 28.24 21.09 28.24 21.1ZM28.12 21.3C28.12 21.29 28.12 21.29 28.12 21.3V21.3ZM22.06 16.68C22.07 16.66 22.07 16.63 22.08 16.61C22.08 16.6 22.08 16.6 22.08 16.6C22.08 16.6 22.08 16.59 22.09 16.59C22.09 16.58 22.12 16.54 22.12 16.54C22.14 16.52 22.16 16.5 22.17 16.48C22.18 16.47 22.19 16.47 22.19 16.47C22.2 16.46 22.21 16.46 22.21 16.45C22.24 16.43 22.26 16.42 22.29 16.41C22.3 16.41 22.3 16.41 22.3 16.4C22.3 16.4 22.31 16.4 22.32 16.4C22.35 16.39 22.38 16.38 22.41 16.38C22.42 16.38 22.44 16.37 22.45 16.37H22.46C22.49 16.37 22.52 16.37 22.56 16.37C22.57 16.37 22.63 16.38 22.63 16.38C22.66 16.38 22.69 16.39 22.71 16.4C22.84 16.43 22.92 16.47 23.04 16.55C23.05 16.55 23.09 16.59 23.09 16.59C23.11 16.6 23.12 16.62 23.14 16.63C23.15 16.64 23.16 16.65 23.17 16.66C23.17 16.66 23.17 16.67 23.18 16.67C23.19 16.68 23.19 16.69 23.2 16.7V16.71C23.2 16.72 23.2 16.72 23.2 16.73C23.2 16.74 23.2 16.75 23.2 16.75C23.2 16.75 23.2 16.75 23.2 16.76C23.17 16.78 23.15 16.79 23.12 16.81C23.11 16.81 23.1 16.81 23.09 16.81C22.84 16.8 22.58 16.8 22.33 16.82C22.24 16.82 22.15 16.82 22.06 16.82C22.06 16.81 22.06 16.81 22.05 16.8V16.79C22.05 16.78 22.05 16.77 22.05 16.76C22.06 16.73 22.06 16.68 22.06 16.68ZM16.93 20.81C16.93 20.8 16.93 20.8 16.93 20.81C16.93 20.8 16.93 20.79 16.93 20.78C16.93 20.75 16.94 20.72 16.94 20.7C16.96 20.61 16.98 20.51 17.01 20.42C17.02 20.38 17.04 20.34 17.05 20.29C17.06 20.27 17.07 20.25 17.07 20.23C17.05 20.26 17.08 20.19 17.07 20.23C17.08 20.22 17.08 20.2 17.09 20.19C17.1 20.17 17.11 20.15 17.12 20.14C17.19 19.98 17.28 19.84 17.38 19.69C17.41 19.65 17.43 19.62 17.46 19.58C17.46 19.58 17.46 19.58 17.47 19.57C17.47 19.57 17.47 19.57 17.47 19.58C17.48 19.57 17.48 19.56 17.49 19.56C17.51 19.54 17.53 19.51 17.55 19.49C17.62 19.41 17.68 19.34 17.76 19.26C17.9 19.11 18.06 18.97 18.22 18.84C18.24 18.82 18.26 18.81 18.28 18.79C18.28 18.79 18.28 18.79 18.29 18.79C18.26 18.81 18.31 18.78 18.29 18.79C18.3 18.78 18.31 18.78 18.31 18.77C18.36 18.73 18.4 18.7 18.45 18.67C18.54 18.61 18.63 18.54 18.72 18.48C18.91 18.36 19.1 18.25 19.29 18.15C19.39 18.1 19.49 18.05 19.59 18C19.64 17.98 19.69 17.96 19.73 17.93C19.75 17.92 19.78 17.91 19.8 17.9C19.81 17.89 19.83 17.89 19.84 17.88C19.84 17.88 19.87 17.87 19.88 17.86C19.86 17.87 19.87 17.86 19.88 17.86C19.89 17.86 19.89 17.86 19.88 17.86H19.89C19.9 17.85 19.92 17.85 19.93 17.84C19.95 17.83 19.98 17.82 20 17.81C20.05 17.79 20.1 17.77 20.16 17.75C20.26 17.71 20.37 17.67 20.48 17.64C21.08 17.44 21.67 17.31 22.28 17.27C22.57 17.27 22.86 17.26 23.14 17.26C23.15 17.26 23.17 17.26 23.18 17.26C23.3 17.27 23.42 17.28 23.55 17.29C23.68 17.3 23.75 17.31 23.9 17.34C24.15 17.38 24.4 17.44 24.64 17.51C25.14 17.65 25.57 17.82 26.02 18.06C26.24 18.18 26.46 18.31 26.67 18.46C26.88 18.6 27.03 18.73 27.23 18.9C27.31 18.97 27.38 19.04 27.45 19.11C27.44 19.41 27.45 19.71 27.48 20.01C27.51 20.25 27.55 20.5 27.61 20.73C27.68 20.99 27.77 21.25 27.88 21.5C27.84 21.53 27.79 21.55 27.75 21.57C27.74 21.58 27.72 21.58 27.71 21.59C27.71 21.59 27.71 21.59 27.72 21.59H27.71C27.71 21.59 27.7 21.59 27.69 21.6C27.66 21.61 27.63 21.62 27.61 21.63C27.55 21.65 27.49 21.66 27.42 21.68C27.4 21.68 27.39 21.69 27.37 21.69C27.37 21.69 27.36 21.69 27.35 21.69C27.36 21.69 27.36 21.69 27.35 21.69C27.34 21.69 27.34 21.69 27.35 21.69C27.34 21.69 27.32 21.69 27.32 21.69C27.31 21.69 27.29 21.69 27.28 21.69C27.21 21.7 27.14 21.7 27.07 21.7C27 21.7 26.94 21.7 26.89 21.69C26.89 21.69 26.89 21.69 26.87 21.69C26.86 21.69 26.85 21.69 26.84 21.68C26.82 21.68 26.8 21.67 26.77 21.67C26.72 21.66 26.66 21.65 26.61 21.64C26.5 21.62 26.39 21.59 26.27 21.55C26 21.46 25.73 21.35 25.46 21.25C25.42 21.23 25.38 21.22 25.34 21.21C25.33 21.21 25.32 21.2 25.31 21.2C24.75 20.96 24.17 20.82 23.57 20.72C23.4 20.69 23.23 20.67 23.06 20.65C23.04 20.65 23.02 20.65 23 20.64C22.95 20.63 22.9 20.63 22.84 20.62C22.65 20.6 22.46 20.58 22.26 20.57C22.06 20.56 21.87 20.56 21.67 20.56C21.12 20.56 20.56 20.58 20.02 20.69C20.01 20.69 20 20.69 19.99 20.7C19.54 20.77 19.1 20.87 18.66 21.01C18.55 21.04 18.45 21.08 18.35 21.12C18.32 21.13 18.29 21.15 18.26 21.16C18.21 21.19 18.16 21.22 18.1 21.24C18.07 21.25 18.05 21.27 18.02 21.28C18.01 21.29 17.99 21.29 17.98 21.3C17.98 21.3 17.97 21.3 17.97 21.31H17.96C17.96 21.31 17.96 21.31 17.97 21.31C17.94 21.32 17.91 21.33 17.88 21.34H17.87C17.88 21.34 17.88 21.34 17.87 21.34C17.85 21.34 17.86 21.34 17.87 21.34C17.86 21.34 17.84 21.34 17.84 21.34C17.81 21.34 17.79 21.35 17.76 21.35C17.74 21.35 17.73 21.36 17.71 21.36C17.7 21.36 17.69 21.36 17.68 21.36C17.69 21.36 17.7 21.36 17.7 21.36C17.71 21.36 17.62 21.37 17.67 21.36C17.63 21.36 17.58 21.37 17.54 21.37C17.49 21.37 17.44 21.37 17.4 21.37C17.38 21.37 17.36 21.37 17.33 21.36H17.32C17.29 21.36 17.31 21.36 17.32 21.36C17.31 21.36 17.3 21.36 17.29 21.36C17.24 21.35 17.19 21.34 17.15 21.32C17.1 21.28 17.04 21.24 16.99 21.21C16.98 21.19 16.96 21.17 16.95 21.14C16.93 21.1 16.96 21.17 16.95 21.14C16.95 21.12 16.94 21.11 16.93 21.09C16.92 21.07 16.92 21.04 16.91 21.02C16.91 21.05 16.91 21 16.91 20.99C16.91 21 16.91 21.01 16.91 21.02C16.91 21.02 16.91 21.02 16.91 21.01C16.91 21 16.91 20.99 16.91 20.99C16.91 20.97 16.91 20.95 16.91 20.93C16.93 20.9 16.93 20.85 16.93 20.81ZM27.16 22.48C27.14 22.5 27.12 22.52 27.1 22.54C27.05 22.59 27.02 22.61 26.98 22.64C26.93 22.68 26.88 22.71 26.82 22.74C26.79 22.75 26.77 22.77 26.74 22.78C26.73 22.79 26.72 22.79 26.71 22.8C26.7 22.8 26.7 22.81 26.69 22.81C26.69 22.81 26.69 22.81 26.68 22.81C26.56 22.86 26.44 22.89 26.32 22.92C26.19 22.95 26.11 22.96 25.96 22.96C25.7 22.97 25.43 22.95 25.18 22.92C24.58 22.83 24 22.67 23.4 22.6C22.81 22.54 22.21 22.54 21.63 22.62C21.03 22.69 20.45 22.85 19.86 22.99C19.71 23.03 19.55 23.06 19.4 23.09C19.38 23.09 19.35 23.1 19.33 23.1C19.16 23.12 19 23.12 18.83 23.11C18.78 23.11 18.72 23.1 18.67 23.1C18.66 23.1 18.65 23.1 18.64 23.1C18.62 23.1 18.59 23.09 18.57 23.09C18.46 23.07 18.36 23.04 18.26 23.01C18.26 23.01 18.26 23.01 18.25 23.01C18.25 23.01 18.25 23.01 18.23 23H18.22C18.22 23 18.22 23 18.23 23C18.21 22.99 18.19 22.98 18.16 22.97C18.12 22.95 18.08 22.92 18.04 22.89C18.05 22.9 18.06 22.91 18.03 22.89C18.03 22.89 18.02 22.89 18.02 22.88C18.02 22.88 18.03 22.88 18.03 22.89C18.02 22.88 18.01 22.88 18 22.87C17.98 22.85 17.96 22.83 17.94 22.81C17.93 22.8 17.93 22.8 17.92 22.79C17.91 22.77 17.89 22.75 17.88 22.72C17.87 22.71 17.87 22.69 17.86 22.67C17.86 22.68 17.86 22.68 17.85 22.66C17.85 22.66 17.85 22.66 17.85 22.65C17.85 22.64 17.84 22.62 17.84 22.61C17.83 22.58 17.82 22.55 17.82 22.53C17.82 22.52 17.81 22.5 17.81 22.49C17.8 22.42 17.8 22.34 17.81 22.27C17.81 22.25 17.81 22.23 17.81 22.21V22.2C17.82 22.16 17.82 22.11 17.83 22.07C17.84 22.01 17.86 21.96 17.87 21.9C17.88 21.9 17.89 21.89 17.89 21.89C17.93 21.87 17.98 21.85 18.02 21.83C18.04 21.82 18.06 21.81 18.08 21.81C18.11 21.8 18.15 21.78 18.18 21.77C18.53 21.63 18.9 21.5 19.27 21.4C19.55 21.32 19.83 21.25 20.11 21.19C20.48 21.13 20.86 21.09 21.24 21.07C21.35 21.07 21.45 21.06 21.56 21.06C21.86 21.06 22.16 21.07 22.45 21.09C22.6 21.1 22.76 21.11 22.91 21.13C22.94 21.13 22.97 21.14 23 21.14C23.55 21.21 24.13 21.33 24.68 21.5C24.9 21.57 25.11 21.65 25.32 21.73C25.39 21.76 25.47 21.79 25.54 21.82C25.69 21.88 25.85 21.94 26.01 21.99C26.05 22 26.09 22.01 26.13 22.03C26.22 22.06 26.31 22.08 26.4 22.11C26.55 22.15 26.71 22.18 26.87 22.19C26.99 22.21 27.12 22.22 27.24 22.21C27.24 22.21 27.24 22.21 27.24 22.22C27.24 22.22 27.25 22.25 27.25 22.26C27.25 22.26 27.25 22.27 27.25 22.28C27.25 22.29 27.25 22.29 27.25 22.3C27.25 22.32 27.25 22.34 27.25 22.34C27.25 22.35 27.24 22.37 27.24 22.38C27.24 22.39 27.23 22.39 27.23 22.4C27.22 22.43 27.2 22.45 27.18 22.48C27.18 22.46 27.17 22.47 27.16 22.48ZM27.19 22.45C27.19 22.46 27.19 22.46 27.19 22.45C27.18 22.47 27.19 22.46 27.19 22.45ZM16.98 21.87C16.23 22.23 15.57 22.73 14.99 23.33C14.72 22.58 14.66 21.75 14.82 20.97C15.62 21.06 16.37 21.36 16.98 21.87ZM16.25 40.09C16.23 40.07 16.22 40.05 16.2 40.03C16.21 40.04 16.22 40.05 16.22 40.06C16.04 39.82 15.88 39.55 15.76 39.27C15.77 39.28 15.77 39.3 15.77 39.31C15.76 39.28 15.75 39.26 15.74 39.23C15.75 39.24 15.75 39.26 15.76 39.27C15.63 38.94 15.54 38.6 15.49 38.25C15.49 38.26 15.49 38.27 15.49 38.27C15.49 38.28 15.49 38.29 15.49 38.3C15.49 38.27 15.48 38.24 15.48 38.21C15.48 38.22 15.48 38.23 15.49 38.25C15.49 38.21 15.48 38.18 15.46 38.15C15.46 38.14 15.45 38.14 15.45 38.13C15.45 38.14 15.45 38.15 15.45 38.17C15.45 38.16 15.45 38.14 15.44 38.13C15.44 38.11 15.44 38.1 15.43 38.08C15.43 38.1 15.44 38.11 15.44 38.13C15.39 37.75 15.38 37.36 15.43 36.98C15.43 37 15.42 37.02 15.42 37.03C15.42 37 15.43 36.97 15.43 36.94C15.43 36.95 15.43 36.96 15.43 36.97C15.45 36.8 15.49 36.64 15.55 36.48C15.54 36.49 15.54 36.5 15.53 36.51C15.54 36.48 15.55 36.46 15.56 36.43C15.55 36.44 15.55 36.46 15.54 36.47C15.57 36.4 15.61 36.33 15.66 36.26V36.25C15.65 36.26 15.65 36.26 15.64 36.27C15.65 36.26 15.65 36.25 15.66 36.24C15.67 36.23 15.68 36.21 15.69 36.2C15.68 36.21 15.68 36.22 15.67 36.23C15.7 36.2 15.72 36.17 15.75 36.15C15.74 36.16 15.72 36.17 15.71 36.18C15.73 36.16 15.75 36.15 15.77 36.13H15.76C15.77 36.13 15.77 36.13 15.78 36.12C15.79 36.11 15.8 36.11 15.82 36.1C15.81 36.1 15.81 36.1 15.8 36.1C15.81 36.1 15.82 36.1 15.82 36.1C15.82 36.1 15.83 36.1 15.83 36.09C15.84 36.09 15.84 36.09 15.85 36.09H15.86C15.86 36.09 15.86 36.09 15.85 36.09C15.85 36.09 15.85 36.09 15.86 36.09C15.86 36.09 15.87 36.09 15.87 36.1C15.88 36.1 15.89 36.1 15.9 36.1C15.89 36.1 15.89 36.1 15.88 36.1C15.89 36.1 15.9 36.11 15.91 36.11C15.92 36.11 15.92 36.12 15.93 36.12C15.93 36.12 15.92 36.12 15.91 36.11C15.93 36.12 15.94 36.14 15.96 36.15C15.95 36.14 15.94 36.13 15.92 36.13C15.94 36.15 15.96 36.17 15.98 36.19C15.97 36.18 15.97 36.17 15.96 36.16C15.98 36.18 15.99 36.2 16.01 36.22C16 36.21 15.99 36.2 15.98 36.19C16 36.23 16.03 36.26 16.04 36.3C16.04 36.29 16.03 36.27 16.03 36.26C16.04 36.29 16.05 36.31 16.06 36.34C16.05 36.33 16.05 36.32 16.04 36.3C16.06 36.35 16.07 36.39 16.08 36.44C16.08 36.42 16.08 36.4 16.08 36.39C16.08 36.42 16.09 36.45 16.09 36.48C16.09 36.47 16.09 36.46 16.08 36.45C16.1 36.68 16.09 36.91 16.09 37.13C16.09 37.36 16.07 37.6 16.08 37.83C16.09 38.13 16.16 38.42 16.3 38.69C16.41 38.91 16.58 39.11 16.74 39.3C16.9 39.49 17.08 39.67 17.24 39.86C17.23 39.85 17.22 39.84 17.22 39.83C17.24 39.85 17.25 39.87 17.27 39.89C17.26 39.88 17.25 39.87 17.24 39.86C17.35 40 17.44 40.16 17.52 40.32C17.51 40.31 17.51 40.29 17.51 40.28C17.52 40.31 17.53 40.33 17.54 40.36C17.53 40.35 17.53 40.34 17.52 40.32C17.57 40.46 17.61 40.6 17.64 40.75C17.64 40.74 17.64 40.73 17.64 40.71C17.64 40.74 17.65 40.77 17.65 40.8C17.65 40.78 17.64 40.77 17.64 40.75C17.65 40.8 17.65 40.85 17.64 40.89C17.64 40.87 17.65 40.86 17.65 40.84C17.65 40.87 17.64 40.89 17.64 40.92C17.64 40.92 17.64 40.92 17.64 40.93C17.63 40.95 17.62 40.97 17.61 40.99C17.6 41 17.59 41.02 17.58 41.03C17.58 41.03 17.58 41.03 17.57 41.03L17.56 41.04C17.56 41.04 17.56 41.03 17.57 41.03C17.56 41.04 17.55 41.05 17.54 41.05H17.55C17.54 41.05 17.54 41.06 17.53 41.06L17.52 41.07C17.51 41.07 17.51 41.07 17.5 41.07C17.49 41.07 17.48 41.08 17.48 41.08C17.49 41.08 17.49 41.07 17.5 41.07C17.49 41.07 17.48 41.07 17.47 41.07C17.45 41.07 17.42 41.06 17.4 41.06C17.42 41.06 17.43 41.06 17.45 41.06C17.41 41.05 17.37 41.04 17.33 41.03C17.34 41.03 17.35 41.04 17.36 41.05C17.33 41.04 17.31 41.03 17.28 41.02C17.3 41.03 17.31 41.03 17.33 41.04C17.24 41 17.16 40.95 17.09 40.89C17.1 40.9 17.11 40.91 17.12 40.92C17.1 40.9 17.08 40.89 17.06 40.87C17.07 40.88 17.08 40.88 17.09 40.89C16.92 40.76 16.76 40.61 16.61 40.46C16.48 40.33 16.36 40.2 16.25 40.06C16.23 40.04 16.22 40.02 16.2 40C16.23 40.06 16.24 40.08 16.25 40.09ZM29.26 44.03C29.18 44.51 28.73 44.93 28.12 45.1C27.18 45.36 25.54 45.66 23.1 45.66C20.66 45.66 19.02 45.35 18.08 45.1C17.47 44.93 17.02 44.51 16.94 44.02L16.47 41.23C16.54 41.29 16.61 41.35 16.68 41.41C16.75 41.47 16.83 41.52 16.9 41.57C16.98 41.62 17.06 41.66 17.14 41.69C17.31 41.76 17.49 41.78 17.67 41.75C17.88 41.71 18.04 41.58 18.16 41.41C18.27 41.26 18.32 41.06 18.32 40.88C18.32 40.79 18.3 40.7 18.29 40.62C18.28 40.56 18.27 40.5 18.25 40.44C18.19 40.21 18.09 39.98 17.96 39.77C17.73 39.41 17.43 39.12 17.15 38.79C17.13 38.76 17.11 38.74 17.09 38.71C17.1 38.72 17.1 38.73 17.11 38.74C17.09 38.72 17.08 38.7 17.06 38.68C17.07 38.69 17.08 38.7 17.09 38.72C17 38.6 16.92 38.47 16.85 38.33C16.86 38.34 16.86 38.36 16.87 38.37C16.86 38.34 16.85 38.32 16.84 38.29C16.85 38.3 16.85 38.31 16.86 38.33C16.82 38.23 16.79 38.12 16.77 38.01C16.77 38.02 16.77 38.04 16.77 38.05C16.77 38.02 16.76 37.99 16.76 37.96C16.76 37.98 16.77 37.99 16.77 38.01C16.76 37.88 16.76 37.74 16.76 37.61C16.76 37.43 16.77 37.25 16.77 37.07C16.78 36.7 16.8 36.29 16.6 35.96C18.22 36.38 20.21 36.61 22.55 36.63V36.64C22.69 36.64 22.84 36.64 22.98 36.64H23.05C25.79 36.61 28.04 36.3 29.79 35.74C29.78 35.75 29.76 35.76 29.75 35.78C29.65 35.89 29.58 36.02 29.52 36.16C29.48 36.26 29.46 36.37 29.45 36.47C29.43 36.63 29.43 36.78 29.43 36.94C29.43 37.12 29.44 37.31 29.44 37.49C29.44 37.63 29.45 37.78 29.44 37.93C29.44 37.96 29.43 37.99 29.43 38.02C29.43 38 29.44 37.99 29.44 37.97C29.44 38 29.43 38.03 29.43 38.06C29.43 38.05 29.43 38.03 29.43 38.02C29.41 38.13 29.38 38.24 29.34 38.34C29.35 38.33 29.35 38.32 29.36 38.3C29.35 38.33 29.34 38.35 29.33 38.38C29.34 38.37 29.34 38.35 29.35 38.34C29.29 38.48 29.21 38.6 29.12 38.72C29.13 38.71 29.14 38.7 29.14 38.69C29.12 38.71 29.11 38.73 29.09 38.75C29.1 38.74 29.11 38.72 29.12 38.71C28.87 39.03 28.57 39.31 28.33 39.65C28.19 39.84 28.08 40.06 28.01 40.28C27.97 40.39 27.94 40.51 27.93 40.62C27.9 40.81 27.88 40.99 27.94 41.17C28.01 41.37 28.13 41.54 28.31 41.66C28.38 41.71 28.47 41.74 28.56 41.76C28.68 41.78 28.77 41.78 28.89 41.76C29.05 41.74 29.2 41.66 29.33 41.58C29.43 41.52 29.52 41.44 29.61 41.37L29.26 44.03ZM30.62 36.33C31.24 36.81 30.46 39.26 30.46 39.26C30.46 39.25 30.46 39.26 30.45 39.28C30.45 39.28 30.45 39.29 30.44 39.3C30.45 39.29 30.45 39.27 30.45 39.26C30.33 39.54 30.17 39.8 29.99 40.05C30 40.04 30.01 40.03 30.01 40.02C29.99 40.04 29.98 40.06 29.96 40.08C29.97 40.07 29.98 40.06 29.99 40.04C29.91 40.14 29.83 40.23 29.75 40.33C29.7 40.39 29.64 40.44 29.59 40.5C29.44 40.65 29.28 40.8 29.11 40.93C29.12 40.92 29.13 40.92 29.14 40.91C29.12 40.93 29.1 40.94 29.08 40.96C29.09 40.95 29.1 40.94 29.11 40.93C29.03 40.99 28.95 41.04 28.87 41.08C28.89 41.07 28.9 41.07 28.92 41.06C28.89 41.07 28.87 41.08 28.84 41.09C28.85 41.09 28.86 41.08 28.87 41.07C28.83 41.08 28.79 41.09 28.75 41.1C28.77 41.1 28.78 41.1 28.8 41.1C28.78 41.1 28.75 41.11 28.73 41.11C28.72 41.11 28.71 41.11 28.7 41.11C28.71 41.11 28.71 41.12 28.72 41.12C28.71 41.12 28.7 41.11 28.7 41.11C28.69 41.11 28.69 41.11 28.68 41.11L28.67 41.1C28.66 41.1 28.66 41.09 28.65 41.09H28.66C28.65 41.08 28.64 41.07 28.63 41.07C28.63 41.07 28.63 41.08 28.64 41.08L28.63 41.07C28.63 41.07 28.63 41.07 28.62 41.07C28.61 41.06 28.6 41.04 28.59 41.03C28.58 41.01 28.57 40.99 28.56 40.97C28.56 40.97 28.56 40.97 28.56 40.96C28.56 40.93 28.55 40.91 28.55 40.88C28.55 40.9 28.56 40.91 28.56 40.93C28.56 40.88 28.56 40.83 28.56 40.79C28.56 40.81 28.55 40.82 28.55 40.84C28.55 40.81 28.56 40.78 28.56 40.75C28.56 40.76 28.56 40.77 28.56 40.79C28.58 40.64 28.62 40.5 28.68 40.36C28.67 40.37 28.67 40.38 28.66 40.4C28.67 40.37 28.68 40.35 28.69 40.32C28.68 40.33 28.68 40.35 28.68 40.36C28.75 40.2 28.85 40.04 28.96 39.9C28.95 39.91 28.94 39.92 28.93 39.93C28.95 39.91 28.96 39.89 28.98 39.87C28.97 39.88 28.96 39.89 28.96 39.9C29.25 39.53 29.62 39.21 29.85 38.8C29.93 38.66 29.99 38.51 30.03 38.35L30.11 37.76C30.11 37.59 30.1 37.43 30.1 37.26C30.1 37.1 30.09 36.95 30.09 36.79C30.08 36.79 30.14 35.95 30.62 36.33ZM31.64 33.54C31.63 33.75 31.64 33.96 31.65 34.17C31.28 34.41 30.87 34.63 30.41 34.82C30.35 34.85 30.29 34.87 30.22 34.9C28.46 35.59 26.04 35.95 23.02 35.99C19.99 35.99 17.54 35.66 15.73 35.02C15.62 34.98 15.51 34.94 15.4 34.9C13.87 34.3 12.83 33.45 12.3 32.37C10.77 29.24 14.01 25.04 14.04 25L14.18 24.82L14.06 24.63C13.02 22.96 13.77 20.17 14.02 19.37C15.17 19.41 16.05 19.65 16.71 19.93C16.7 19.95 16.69 19.97 16.68 19.98C16.6 20.17 16.53 20.36 16.49 20.56C16.47 20.67 16.45 20.78 16.45 20.89C15.88 20.61 15.26 20.45 14.62 20.4C14.5 20.39 14.43 20.45 14.39 20.53C14.38 20.55 14.37 20.57 14.36 20.6C14.07 21.71 14.2 22.89 14.68 23.93C14.75 24.08 14.99 24.1 15.09 23.98C15.71 23.27 16.46 22.66 17.32 22.27C17.31 22.5 17.35 22.73 17.46 22.94C17.62 23.23 17.92 23.41 18.23 23.49C18.64 23.61 19.1 23.61 19.52 23.54C19.9 23.48 20.27 23.37 20.64 23.28C21.01 23.19 21.39 23.11 21.76 23.07C22.52 22.99 23.28 23.02 24.02 23.17C24.77 23.32 25.51 23.51 26.28 23.4C26.62 23.35 26.95 23.23 27.23 23.03C27.49 22.84 27.75 22.57 27.73 22.23C27.73 22.18 27.72 22.13 27.7 22.09C27.82 22.05 27.94 22.01 28.06 21.94C28.07 21.93 28.08 21.92 28.1 21.92C28.1 21.93 28.11 21.93 28.11 21.94C28.16 22.02 28.21 22.1 28.27 22.18C28.59 22.62 29 23 29.47 23.26C29.23 24.12 29.07 25.01 28.98 25.93C28.96 26.1 28.83 27.76 30.06 29.51C29.84 29.48 29.61 29.47 29.39 29.47C28.9 29.47 28.89 30.24 29.39 30.24C29.9 30.24 30.4 30.31 30.88 30.47C31.33 30.92 31.85 31.32 32.44 31.67L32.51 32.18C32.44 32.21 32.37 32.24 32.31 32.28C31.89 32.56 31.66 33.05 31.64 33.54ZM34.14 37.92C34.12 37.9 34.1 37.89 34.08 37.87C34.09 37.88 34.1 37.88 34.11 37.89C34.09 37.87 34.07 37.86 34.05 37.84C33.81 37.65 33.59 37.45 33.39 37.22C33.33 37.16 33.28 37.09 33.23 37.03C33.24 37.04 33.24 37.05 33.25 37.06C33.23 37.04 33.22 37.02 33.2 37C33.21 37.01 33.22 37.02 33.23 37.03C33.2 36.99 33.18 36.96 33.15 36.92C32.98 36.67 32.83 36.41 32.71 36.13C32.72 36.14 32.72 36.16 32.72 36.17C32.71 36.14 32.7 36.12 32.69 36.09C32.7 36.1 32.7 36.11 32.71 36.13C32.56 35.77 32.46 35.39 32.38 35.01C32.36 34.83 32.34 34.66 32.32 34.48C32.31 34.41 32.3 34.33 32.3 34.26C32.29 34.07 32.27 33.88 32.28 33.69C32.28 33.62 32.28 33.54 32.29 33.47C32.29 33.48 32.28 33.5 32.28 33.51C32.28 33.48 32.29 33.45 32.29 33.42C32.29 33.44 32.29 33.45 32.29 33.47C32.3 33.38 32.33 33.29 32.36 33.21C32.35 33.22 32.35 33.24 32.34 33.25C32.35 33.22 32.36 33.2 32.37 33.17C32.36 33.18 32.36 33.19 32.36 33.21C32.39 33.14 32.43 33.07 32.48 33C32.47 33.01 32.46 33.02 32.45 33.03C32.47 33.01 32.48 32.99 32.5 32.97C32.49 32.98 32.49 32.99 32.48 33C32.52 32.95 32.56 32.91 32.61 32.87C32.6 32.88 32.59 32.89 32.57 32.89C32.58 32.88 32.6 32.87 32.61 32.86C32.62 32.85 32.63 32.85 32.63 32.84C32.62 32.85 32.62 32.85 32.61 32.86C32.65 32.84 32.68 32.81 32.72 32.79C32.71 32.79 32.69 32.8 32.68 32.8C32.71 32.79 32.73 32.78 32.76 32.77C32.75 32.78 32.73 32.78 32.72 32.79C32.76 32.78 32.8 32.77 32.84 32.76C32.83 32.76 32.81 32.76 32.8 32.76C32.83 32.76 32.86 32.75 32.89 32.75C32.88 32.75 32.86 32.76 32.85 32.76C32.89 32.76 32.93 32.76 32.98 32.76C32.97 32.76 32.95 32.75 32.94 32.75C32.97 32.75 33 32.76 33.03 32.76C33.02 32.76 33 32.76 32.99 32.76C33.02 32.77 33.05 32.77 33.09 32.78C33.11 32.79 33.13 32.79 33.15 32.8C33.14 32.79 33.13 32.79 33.11 32.78C33.14 32.79 33.16 32.8 33.19 32.81C33.18 32.8 33.16 32.8 33.15 32.8C33.22 32.83 33.29 32.87 33.35 32.92C33.38 32.94 33.4 32.96 33.42 32.99C33.47 33.04 33.52 33.09 33.56 33.14C33.55 33.13 33.55 33.12 33.54 33.11C33.56 33.13 33.57 33.15 33.59 33.17C33.58 33.16 33.57 33.15 33.56 33.14C33.57 33.15 33.58 33.17 33.58 33.18C33.64 33.26 33.69 33.35 33.73 33.44C33.72 33.42 33.72 33.41 33.71 33.39C33.72 33.42 33.73 33.44 33.74 33.47C33.74 33.46 33.73 33.45 33.73 33.44C33.78 33.57 33.81 33.7 33.83 33.84C33.83 33.83 33.83 33.81 33.83 33.8C33.83 33.83 33.84 33.86 33.84 33.89C33.84 33.87 33.83 33.86 33.83 33.84C33.86 34.09 33.86 34.34 33.87 34.59C33.88 34.9 33.92 35.21 34 35.5C34.05 35.67 34.12 35.85 34.21 36.01C34.28 36.15 34.36 36.27 34.46 36.38C34.64 36.58 34.86 36.75 35.08 36.91C35.29 37.06 35.5 37.21 35.7 37.36C35.69 37.35 35.68 37.34 35.66 37.33C35.68 37.35 35.7 37.36 35.72 37.38C35.71 37.37 35.7 37.37 35.69 37.36C35.87 37.5 36.04 37.66 36.19 37.84C36.18 37.83 36.18 37.82 36.17 37.81C36.19 37.83 36.2 37.85 36.22 37.87C36.21 37.86 36.2 37.85 36.19 37.83C36.25 37.92 36.31 38.01 36.36 38.11C36.35 38.1 36.35 38.08 36.34 38.07C36.35 38.1 36.36 38.12 36.37 38.15C36.37 38.14 36.36 38.13 36.35 38.12C36.37 38.19 36.39 38.25 36.41 38.32C36.41 38.31 36.41 38.29 36.41 38.28C36.41 38.31 36.42 38.34 36.42 38.37C36.42 38.36 36.41 38.34 36.41 38.33C36.42 38.4 36.42 38.46 36.41 38.53C36.41 38.52 36.42 38.5 36.42 38.49C36.42 38.52 36.41 38.55 36.41 38.58C36.41 38.57 36.41 38.55 36.41 38.54C36.4 38.6 36.38 38.66 36.36 38.71C36.37 38.7 36.37 38.69 36.38 38.67C36.37 38.7 36.36 38.72 36.35 38.75C36.36 38.74 36.36 38.72 36.36 38.71C36.34 38.75 36.32 38.79 36.29 38.82C36.3 38.81 36.31 38.8 36.32 38.79C36.3 38.81 36.29 38.83 36.27 38.85C36.28 38.84 36.29 38.83 36.29 38.82C36.27 38.84 36.25 38.87 36.22 38.89C36.23 38.88 36.24 38.88 36.25 38.87C36.23 38.89 36.21 38.9 36.19 38.92C36.2 38.91 36.21 38.9 36.22 38.89C36.2 38.91 36.17 38.92 36.15 38.93C36.16 38.93 36.17 38.92 36.19 38.92C36.16 38.93 36.14 38.94 36.11 38.95C36.12 38.94 36.14 38.94 36.15 38.93C36.12 38.94 36.08 38.95 36.05 38.96C36.06 38.96 36.07 38.96 36.09 38.96C36.06 38.96 36.03 38.97 36 38.97C36.02 38.97 36.03 38.96 36.05 38.96C36 38.96 35.95 38.96 35.9 38.96C35.92 38.96 35.93 38.97 35.95 38.97C35.92 38.97 35.89 38.96 35.86 38.96C35.87 38.96 35.88 38.96 35.89 38.96C35.8 38.94 35.72 38.92 35.64 38.89C35.65 38.89 35.66 38.9 35.67 38.9C35.64 38.89 35.62 38.88 35.59 38.87C35.61 38.88 35.62 38.88 35.64 38.89C35.4 38.78 35.18 38.63 34.96 38.49C34.76 38.36 34.57 38.24 34.37 38.1C34.27 38.03 34.18 37.96 34.09 37.89C34.12 37.9 34.13 37.91 34.14 37.92ZM49.14 44.34C49.04 45.12 48.5 45.78 47.77 46.04C46.69 46.41 44.82 46.86 42.02 46.86C39.22 46.86 37.35 46.42 36.27 46.04C35.54 45.79 35 45.12 34.9 44.34L34.15 38.73C34.28 38.82 34.41 38.9 34.54 38.99C34.85 39.19 35.17 39.41 35.52 39.53C35.75 39.61 36.01 39.64 36.25 39.58C36.45 39.53 36.65 39.41 36.78 39.25C36.91 39.09 37 38.9 37.03 38.7C37.06 38.49 37.06 38.29 37.01 38.09C36.9 37.67 36.6 37.32 36.28 37.05C36.02 36.83 35.74 36.64 35.47 36.44C35.41 36.4 35.35 36.35 35.29 36.31C35.3 36.32 35.32 36.33 35.33 36.34C35.31 36.32 35.29 36.31 35.27 36.29C35.28 36.3 35.29 36.3 35.3 36.31C35.15 36.19 35 36.07 34.88 35.92C34.89 35.93 34.9 35.94 34.9 35.96C34.88 35.94 34.87 35.92 34.85 35.9C34.86 35.91 34.87 35.92 34.88 35.93C34.81 35.83 34.75 35.71 34.7 35.6C34.7 35.61 34.71 35.61 34.71 35.62C34.7 35.59 34.69 35.57 34.68 35.54C34.69 35.56 34.7 35.58 34.7 35.59C34.62 35.39 34.57 35.19 34.54 34.98C34.54 35 34.54 35.01 34.55 35.03C34.55 35 34.54 34.97 34.54 34.94C34.54 34.95 34.54 34.97 34.55 34.98C34.5 34.57 34.52 34.16 34.46 33.75C34.43 33.53 34.37 33.32 34.27 33.12C34.22 33.02 34.17 32.93 34.1 32.85C34.04 32.77 33.98 32.7 33.92 32.63C33.95 32.58 33.97 32.52 33.99 32.47C36.15 33.35 38.95 33.79 42.38 33.79H42.76C45.45 33.79 47.76 33.52 49.67 32.98C49.55 33.17 49.47 33.39 49.42 33.61C49.34 34.03 49.36 34.45 49.32 34.88C49.32 34.92 49.31 34.95 49.31 34.99C49.31 34.98 49.31 34.97 49.32 34.95C49.32 34.98 49.31 35.01 49.31 35.04C49.31 35.02 49.31 35.01 49.32 34.99C49.29 35.2 49.24 35.41 49.16 35.61C49.17 35.59 49.18 35.57 49.18 35.56C49.17 35.59 49.16 35.61 49.15 35.64C49.15 35.63 49.16 35.63 49.16 35.62C49.11 35.74 49.05 35.85 48.98 35.95C48.99 35.94 49 35.93 49.01 35.92C48.99 35.94 48.98 35.96 48.96 35.98C48.97 35.97 48.98 35.96 48.98 35.94C48.86 36.09 48.71 36.21 48.56 36.33C48.57 36.32 48.58 36.32 48.58 36.31C48.56 36.33 48.54 36.34 48.52 36.36C48.53 36.35 48.55 36.34 48.56 36.33C48.32 36.52 48.06 36.68 47.82 36.87C47.49 37.12 47.16 37.42 46.96 37.8C46.86 38 46.8 38.21 46.79 38.43C46.78 38.64 46.83 38.84 46.92 39.04C47 39.22 47.14 39.38 47.31 39.49C47.5 39.62 47.75 39.67 47.97 39.64C48.22 39.61 48.46 39.53 48.68 39.41C48.83 39.33 48.97 39.24 49.12 39.14C49.37 38.98 49.63 38.82 49.87 38.64C49.9 38.62 49.92 38.6 49.95 38.58L49.14 44.34ZM51.53 34.26C51.51 34.51 51.48 34.76 51.45 35.01C51.38 35.39 51.27 35.77 51.12 36.13C51.13 36.12 51.13 36.11 51.14 36.09C51.13 36.12 51.12 36.14 51.11 36.17C51.12 36.16 51.12 36.14 51.12 36.13C51.07 36.24 51.02 36.34 50.97 36.45C50.86 36.65 50.74 36.85 50.6 37.03C50.61 37.02 50.62 37.01 50.63 37C50.61 37.02 50.6 37.04 50.58 37.06C50.59 37.05 50.59 37.04 50.6 37.03C50.43 37.25 50.24 37.44 50.04 37.63C50 37.67 49.96 37.7 49.92 37.74C49.86 37.79 49.79 37.85 49.72 37.9C49.73 37.89 49.74 37.88 49.75 37.88C49.73 37.9 49.71 37.91 49.69 37.93C49.7 37.92 49.71 37.91 49.72 37.9C49.36 38.18 48.97 38.42 48.59 38.66C48.46 38.74 48.32 38.82 48.18 38.89C48.19 38.88 48.21 38.88 48.22 38.87C48.19 38.88 48.17 38.89 48.14 38.9C48.15 38.89 48.16 38.89 48.17 38.88C48.09 38.91 48 38.94 47.91 38.95C47.92 38.95 47.93 38.95 47.94 38.95C47.91 38.95 47.88 38.96 47.85 38.96C47.87 38.96 47.89 38.95 47.9 38.95C47.85 38.95 47.8 38.96 47.75 38.95C47.77 38.95 47.78 38.96 47.8 38.96C47.77 38.96 47.74 38.95 47.71 38.95C47.72 38.95 47.73 38.95 47.75 38.95C47.71 38.94 47.68 38.93 47.65 38.92C47.66 38.93 47.68 38.93 47.69 38.94C47.66 38.93 47.64 38.92 47.61 38.91C47.62 38.91 47.63 38.92 47.65 38.92C47.62 38.91 47.6 38.89 47.58 38.88C47.59 38.89 47.6 38.9 47.61 38.91C47.59 38.89 47.57 38.88 47.55 38.86C47.56 38.87 47.57 38.87 47.58 38.88C47.56 38.86 47.53 38.84 47.51 38.81C47.52 38.82 47.52 38.83 47.53 38.84C47.51 38.82 47.5 38.8 47.48 38.78C47.49 38.79 47.5 38.8 47.51 38.81C47.49 38.77 47.46 38.74 47.44 38.7C47.44 38.71 47.45 38.73 47.45 38.74C47.44 38.71 47.43 38.69 47.42 38.66C47.43 38.67 47.43 38.69 47.44 38.7C47.42 38.64 47.4 38.59 47.39 38.53C47.39 38.54 47.39 38.56 47.39 38.57C47.39 38.54 47.38 38.51 47.38 38.48C47.38 38.49 47.39 38.51 47.39 38.52C47.38 38.45 47.38 38.39 47.39 38.32C47.39 38.33 47.38 38.35 47.38 38.36C47.38 38.33 47.39 38.3 47.39 38.27C47.39 38.28 47.39 38.3 47.39 38.31C47.4 38.24 47.42 38.17 47.45 38.11C47.44 38.12 47.44 38.13 47.43 38.14C47.44 38.11 47.45 38.09 47.46 38.06C47.45 38.07 47.45 38.09 47.44 38.1C47.49 38 47.54 37.91 47.61 37.82C47.6 37.83 47.59 37.84 47.58 37.86C47.6 37.84 47.61 37.82 47.63 37.8C47.62 37.81 47.62 37.82 47.61 37.83C47.76 37.65 47.93 37.49 48.11 37.35C48.1 37.36 48.09 37.36 48.08 37.37C48.1 37.35 48.12 37.34 48.14 37.32C48.13 37.33 48.12 37.34 48.1 37.35C48.28 37.21 48.46 37.09 48.65 36.96C48.87 36.8 49.1 36.63 49.29 36.43C49.52 36.2 49.66 35.9 49.77 35.6C49.87 35.3 49.92 34.99 49.93 34.68C49.95 34.4 49.94 34.11 49.98 33.83C49.98 33.85 49.97 33.86 49.97 33.88C49.97 33.85 49.98 33.82 49.98 33.79C49.98 33.8 49.98 33.82 49.98 33.83C50 33.7 50.03 33.56 50.08 33.44C50.08 33.45 50.07 33.46 50.07 33.47C50.08 33.44 50.09 33.42 50.1 33.39C50.09 33.41 50.09 33.42 50.08 33.44C50.13 33.33 50.19 33.24 50.25 33.14C50.24 33.15 50.23 33.16 50.22 33.17C50.24 33.15 50.25 33.13 50.27 33.11C50.26 33.12 50.26 33.13 50.25 33.14C50.31 33.06 50.39 32.99 50.47 32.92C50.46 32.93 50.45 32.94 50.43 32.94C50.45 32.92 50.47 32.91 50.49 32.89C50.48 32.9 50.47 32.91 50.46 32.92C50.52 32.88 50.57 32.85 50.64 32.82H50.63C50.63 32.82 50.64 32.82 50.64 32.81C50.66 32.8 50.68 32.79 50.7 32.78C50.69 32.79 50.68 32.79 50.66 32.8C50.71 32.78 50.77 32.77 50.82 32.76C50.81 32.76 50.79 32.76 50.78 32.76C50.81 32.76 50.84 32.75 50.87 32.75C50.86 32.75 50.84 32.76 50.83 32.76C50.87 32.76 50.91 32.76 50.96 32.76C50.95 32.76 50.93 32.75 50.92 32.75C50.95 32.75 50.98 32.76 51.01 32.76C51 32.76 50.98 32.76 50.97 32.76C51.01 32.77 51.05 32.78 51.09 32.79C51.08 32.78 51.07 32.78 51.05 32.77C51.08 32.78 51.1 32.79 51.13 32.8C51.12 32.79 51.1 32.79 51.09 32.79C51.13 32.81 51.17 32.83 51.21 32.86C51.2 32.85 51.19 32.84 51.18 32.83C51.2 32.85 51.22 32.86 51.24 32.88C51.23 32.87 51.22 32.86 51.2 32.86C51.25 32.9 51.29 32.94 51.33 32.99C51.32 32.98 51.32 32.97 51.31 32.96C51.33 32.98 51.34 33 51.36 33.02C51.35 33.01 51.34 33 51.33 32.99C51.35 33.02 51.37 33.05 51.39 33.09C51.41 33.13 51.43 33.16 51.45 33.2C51.45 33.19 51.44 33.18 51.44 33.16C51.45 33.19 51.46 33.21 51.47 33.24C51.46 33.23 51.46 33.21 51.45 33.2C51.48 33.28 51.51 33.37 51.52 33.46C51.52 33.44 51.52 33.43 51.52 33.41C51.52 33.44 51.53 33.47 51.53 33.5C51.53 33.49 51.52 33.47 51.52 33.46C51.57 33.74 51.55 34 51.53 34.26ZM52.21 32.04C52.12 32.32 52.05 32.58 51.99 32.84C51.91 32.69 51.81 32.54 51.68 32.43C51.63 32.39 51.57 32.35 51.52 32.31C51.51 32.3 51.5 32.3 51.49 32.29C51.5 32.29 51.51 32.28 51.52 32.28C51.77 32.17 52.01 32.05 52.25 31.92C52.24 31.96 52.22 32 52.21 32.04ZM53.02 38.39C53.02 38.36 53.03 38.33 53.03 38.3C53.03 38.32 53.03 38.34 53.02 38.36C53.05 38.16 53.09 37.95 53.16 37.76C53.15 37.77 53.15 37.78 53.14 37.79C53.15 37.76 53.16 37.74 53.17 37.71C53.16 37.72 53.16 37.74 53.15 37.75C53.19 37.67 53.23 37.59 53.28 37.52C53.27 37.53 53.26 37.54 53.25 37.55C53.27 37.53 53.28 37.51 53.3 37.49C53.29 37.5 53.29 37.51 53.28 37.52C53.32 37.48 53.36 37.43 53.4 37.4C53.39 37.41 53.38 37.41 53.37 37.42C53.39 37.4 53.41 37.39 53.43 37.37C53.42 37.38 53.41 37.39 53.4 37.4C53.42 37.39 53.44 37.37 53.46 37.36C53.47 37.39 53.48 37.43 53.49 37.46C53.54 37.6 53.61 37.73 53.69 37.85C53.72 37.89 53.75 37.93 53.78 37.97C53.98 38.22 54.2 38.46 54.41 38.7C54.85 39.18 55.31 39.63 55.8 40.05C55.94 40.17 56.08 40.29 56.22 40.4C56.34 40.5 56.47 40.59 56.57 40.7C56.56 40.69 56.55 40.67 56.55 40.66C56.56 40.67 56.57 40.69 56.58 40.7C56.58 40.69 56.58 40.69 56.58 40.68C56.58 40.69 56.59 40.7 56.59 40.7C56.59 40.69 56.59 40.69 56.59 40.68C56.59 40.69 56.59 40.7 56.59 40.71C56.59 40.7 56.6 40.69 56.6 40.69C56.6 40.7 56.6 40.71 56.6 40.72L56.61 40.71C56.61 40.72 56.61 40.72 56.6 40.73C56.6 40.73 56.6 40.73 56.6 40.74C56.6 40.75 56.61 40.76 56.61 40.77C56.61 40.76 56.6 40.76 56.6 40.75C56.6 40.76 56.6 40.77 56.6 40.78C56.6 40.77 56.59 40.76 56.59 40.75C56.59 40.76 56.58 40.77 56.58 40.78C56.58 40.77 56.58 40.77 56.59 40.76C56.58 40.77 56.58 40.78 56.57 40.79C56.57 40.79 56.57 40.79 56.58 40.79C56.58 40.79 56.58 40.79 56.57 40.79L56.56 40.8C56.56 40.8 56.56 40.79 56.57 40.79C56.55 40.8 56.53 40.82 56.52 40.83C56.53 40.82 56.55 40.81 56.56 40.8C56.53 40.82 56.5 40.84 56.46 40.86C56.47 40.86 56.49 40.85 56.5 40.85C56.47 40.86 56.45 40.87 56.42 40.88C56.43 40.87 56.45 40.87 56.46 40.86C56.37 40.9 56.27 40.92 56.18 40.95C56.06 40.98 55.94 41.02 55.82 41.05C55.59 41.11 55.37 41.16 55.14 41.2C55.15 41.2 55.17 41.2 55.18 41.2C55.15 41.2 55.12 41.21 55.09 41.21C55.11 41.21 55.12 41.21 55.14 41.2C54.89 41.23 54.64 41.24 54.4 41.21C54.42 41.21 54.43 41.22 54.45 41.22C54.42 41.22 54.39 41.21 54.36 41.21C54.37 41.21 54.39 41.21 54.4 41.21C54.24 41.18 54.08 41.14 53.93 41.09C53.94 41.09 53.95 41.1 53.96 41.1C53.93 41.09 53.91 41.08 53.88 41.07C53.9 41.08 53.91 41.08 53.93 41.09C53.81 41.04 53.71 40.98 53.6 40.9C53.61 40.91 53.62 40.92 53.63 40.93C53.61 40.91 53.59 40.9 53.57 40.88C53.58 40.89 53.59 40.89 53.6 40.9C53.51 40.83 53.43 40.74 53.36 40.65C53.37 40.66 53.38 40.68 53.39 40.69C53.37 40.67 53.36 40.65 53.34 40.63C53.35 40.64 53.35 40.65 53.36 40.65C53.28 40.54 53.21 40.42 53.15 40.29C53.15 40.3 53.16 40.31 53.16 40.32C53.15 40.29 53.14 40.27 53.13 40.24C53.14 40.25 53.14 40.27 53.15 40.28C53.11 40.18 53.08 40.08 53.05 39.98C53.03 39.89 53.01 39.8 52.99 39.7C52.99 39.72 52.99 39.73 53 39.75C53 39.72 52.99 39.69 52.99 39.66C52.99 39.67 52.99 39.69 53 39.7C52.95 39.25 52.98 38.78 53.04 38.33C53.02 38.38 53.02 38.39 53.02 38.39ZM53.5 37.36C53.53 37.35 53.55 37.34 53.58 37.33C53.57 37.34 53.55 37.34 53.54 37.35C53.53 37.35 53.52 37.36 53.5 37.36ZM53.62 37.32C53.65 37.32 53.68 37.31 53.71 37.31C53.7 37.31 53.68 37.32 53.67 37.32C53.65 37.32 53.63 37.32 53.62 37.32ZM53.81 36.68C53.83 36.68 53.85 36.68 53.88 36.69C53.93 36.7 53.98 36.73 54.01 36.77C54.01 36.77 54.01 36.77 54.02 36.78L54.03 36.79C54.03 36.78 54.02 36.78 54.02 36.78C53.95 36.72 53.89 36.69 53.81 36.68ZM67.22 42.74C66.3 44.39 63.98 45.22 60.31 45.23C56.64 45.23 54.32 44.39 53.4 42.74C53.13 42.26 53.01 41.74 52.97 41.22C53.03 41.28 53.09 41.34 53.16 41.4C53.36 41.56 53.57 41.67 53.81 41.75C54.03 41.83 54.26 41.87 54.49 41.88C54.98 41.92 55.47 41.82 55.93 41.7C56.05 41.67 56.17 41.64 56.29 41.6C56.4 41.57 56.51 41.54 56.62 41.5C56.76 41.45 56.89 41.38 57 41.28C57.1 41.19 57.19 41.05 57.22 40.91C57.26 40.74 57.23 40.57 57.15 40.42C57.09 40.32 57.01 40.23 56.92 40.16C56.75 40.01 56.57 39.88 56.4 39.73C55.7 39.14 55.05 38.48 54.45 37.79C54.39 37.72 54.33 37.65 54.28 37.58C54.28 37.59 54.29 37.59 54.29 37.6C54.27 37.58 54.26 37.56 54.24 37.54C54.25 37.56 54.26 37.57 54.28 37.59C54.22 37.51 54.17 37.42 54.12 37.33C54.13 37.34 54.13 37.36 54.13 37.37C54.12 37.34 54.11 37.32 54.1 37.29C54.1 37.3 54.11 37.31 54.12 37.32C54.1 37.28 54.09 37.23 54.08 37.19C54.08 37.21 54.08 37.22 54.08 37.24C54.08 37.21 54.07 37.18 54.07 37.16C54.07 37.15 54.07 37.14 54.07 37.13C54.07 37.12 54.07 37.12 54.07 37.11C54.07 37.1 54.07 37.09 54.07 37.07C54.07 37.08 54.07 37.09 54.07 37.1C54.07 37.09 54.08 37.08 54.08 37.07V37.08C54.08 37.09 54.08 37.1 54.07 37.11C54.09 37.07 54.1 37.05 54.11 37.05L54.28 36.77L54 36.6C52.52 35.73 52.13 34.3 52.8 32.22C52.9 31.92 53 31.64 53.12 31.36C53.66 30.99 54.13 30.58 54.54 30.12C55.19 29.39 55.57 28.65 55.8 28C55.91 27.92 56.03 27.85 56.15 27.77C56.16 27.78 56.17 27.79 56.18 27.81C56.3 27.92 56.45 27.97 56.61 27.99C56.56 28.22 56.55 28.48 56.68 28.69C56.79 28.89 56.99 29.01 57.2 29.07C57.48 29.15 57.79 29.15 58.08 29.1C58.59 29.02 59.07 28.84 59.58 28.79C60.09 28.74 60.6 28.77 61.1 28.87C61.6 28.97 62.09 29.09 62.6 29C62.84 28.96 63.05 28.86 63.24 28.71C63.41 28.58 63.54 28.39 63.51 28.16C63.51 28.15 63.5 28.14 63.5 28.13C63.58 28.1 63.66 28.07 63.74 28.02C63.91 27.92 64.04 27.76 64.12 27.59C65.86 28.54 67.09 30.1 67.78 32.21C68.45 34.28 68.06 35.71 66.58 36.59L66.3 36.76L66.46 37.02C66.46 37.01 66.46 37 66.46 36.99V36.98C66.46 36.97 66.46 36.96 66.46 36.96C66.46 36.97 66.46 36.98 66.46 36.99C66.46 37 66.46 37.01 66.46 37.02L66.47 37.04C66.47 37.04 66.52 37.11 66.58 37.24C66.57 37.23 66.56 37.22 66.55 37.21C66.52 37.18 66.49 37.14 66.48 37.09C66.48 37.11 66.48 37.12 66.49 37.14C66.49 37.17 66.48 37.2 66.48 37.22C66.48 37.2 66.48 37.19 66.48 37.17C66.47 37.22 66.46 37.26 66.44 37.3C66.45 37.29 66.45 37.28 66.46 37.27C66.45 37.3 66.44 37.32 66.43 37.35C66.44 37.34 66.44 37.32 66.44 37.31C66.4 37.4 66.35 37.49 66.29 37.57C66.3 37.56 66.31 37.54 66.32 37.53C66.3 37.55 66.29 37.57 66.27 37.59C66.28 37.58 66.28 37.57 66.29 37.57C66.16 37.74 66.02 37.9 65.88 38.05C65.73 38.22 65.57 38.39 65.42 38.55C65.1 38.88 64.77 39.2 64.42 39.5C64.25 39.65 64.08 39.8 63.9 39.94C63.73 40.08 63.53 40.21 63.42 40.41C63.34 40.56 63.31 40.73 63.36 40.9C63.4 41.04 63.48 41.17 63.59 41.27C63.79 41.45 64.05 41.52 64.3 41.59C64.79 41.73 65.29 41.86 65.8 41.87C66.25 41.88 66.72 41.79 67.12 41.58C67.32 41.47 67.5 41.33 67.65 41.16C67.62 41.72 67.49 42.25 67.22 42.74ZM54.04 36.8C54.07 36.83 54.08 36.86 54.09 36.9C54.08 36.86 54.06 36.83 54.04 36.8ZM54.11 36.97C54.11 36.98 54.11 36.99 54.11 37C54.11 37.01 54.11 37.01 54.11 37.02C54.11 37 54.11 36.99 54.11 36.97ZM66.64 36.72C66.57 36.76 66.51 36.82 66.49 36.9C66.51 36.85 66.53 36.81 66.56 36.78C66.59 36.75 66.62 36.73 66.64 36.72Z" fill="white"/>
<path d="M6.97998 50.28H14.52V52H11.8V59.24H9.70998V52H6.98998V50.28H6.97998Z" fill="white"/>
<path d="M15.5801 50.28H17.6901V53.9H21.2901V50.28H23.4001V59.25H21.2901V55.62H17.6901V59.25H15.5801V50.28Z" fill="white"/>
<path d="M24.75 50.28H30.95V52H26.85V53.89H30.63V55.61H26.85V57.52H30.96V59.24H24.74V50.28H24.75Z" fill="white"/>
<path d="M35.1399 50.28H37.2499V57.52H41.0099V59.24H35.1399V50.28Z" fill="white"/>
<path d="M44.2199 59.25H42.1099V50.28H44.2199V59.25Z" fill="white"/>
<path d="M45.27 50.28H52.81V52H50.09V59.24H48V52H45.28V50.28H45.27Z" fill="white"/>
<path d="M53.8699 50.28H60.0699V52H55.9699V53.89H59.7499V55.61H55.9699V57.52H60.0799V59.24H53.8599V50.28H53.8699Z" fill="white"/>
<path d="M61.4199 50.28H65.0899C67.1099 50.28 68.3499 51.42 68.3499 53.25C68.3499 54.48 67.7899 55.37 66.7999 55.81L68.6699 59.24H66.3499L64.6999 56.16H63.5199V59.24H61.4099V50.28H61.4199ZM64.6399 54.48C65.6299 54.48 66.1599 54.1 66.1599 53.25C66.1599 52.4 65.6299 51.99 64.6399 51.99H63.5299V54.48H64.6399Z" fill="white"/>
<path d="M69.6599 50.69H69.1099V50.29H70.6999V50.69H70.1499V52.09H69.6599V50.69ZM71.5099 51.12V52.08H71.0099V50.28H71.5999L72.0199 51.44L72.4399 50.28H73.0199V52.08H72.5299V51.13L72.1599 52.08H71.8799L71.5099 51.12Z" fill="white"/>
<path d="M26.5899 63.15C25.6699 63.15 25.1099 63.85 25.1099 65.06C25.1099 66.32 25.6899 66.97 26.5799 66.97C27.2499 66.97 27.7199 66.61 27.8299 66L29.3099 66.01C29.1899 67.12 28.2399 68.26 26.5599 68.26C24.8699 68.26 23.6199 67.11 23.6199 65.06C23.6199 63 24.8999 61.86 26.5599 61.86C28.0599 61.86 29.1599 62.7 29.3099 64.19H27.8299C27.7399 63.56 27.2799 63.15 26.5899 63.15Z" fill="white"/>
<path d="M33.0398 68.26C31.3598 68.26 30.0798 67.11 30.0798 65.06C30.0798 63 31.3598 61.86 33.0398 61.86C34.7098 61.86 35.9998 63 35.9998 65.06C35.9998 67.12 34.7098 68.26 33.0398 68.26ZM33.0398 63.15C32.1298 63.15 31.5798 63.82 31.5798 65.06C31.5798 66.3 32.1298 66.97 33.0398 66.97C33.9498 66.97 34.4998 66.3 34.4998 65.06C34.4998 63.82 33.9498 63.15 33.0398 63.15Z" fill="white"/>
<path d="M36.8599 61.95H41.0799V63.15H38.3199V64.47H40.8099V65.67H38.3199V68.19H36.8599V61.95Z" fill="white"/>
<path d="M41.8398 61.95H46.0598V63.15H43.3098V64.47H45.7998V65.67H43.3098V68.19H41.8498V61.95H41.8398Z" fill="white"/>
<path d="M46.8298 61.95H51.1398V63.15H48.2898V64.47H50.9098V65.67H48.2898V66.99H51.1498V68.19H46.8298V61.95Z" fill="white"/>
<path d="M52.0698 61.95H56.3798V63.15H53.5298V64.47H56.1498V65.67H53.5298V66.99H56.3898V68.19H52.0698V61.95Z" fill="white"/>
</svg>
