<svg width="64" height="64" viewBox="0 0 64 64" fill="none" xmlns="http://www.w3.org/2000/svg">
<path fill-rule="evenodd" clip-rule="evenodd" d="M45.86 33H57V52C57 52.552 56.55 53 56 53C45.69 53 18.31 53 8 53C7.74 53 7.48004 52.895 7.29004 52.707C7.11004 52.52 7 52.265 7 52V18C7 17.735 7.11004 17.48 7.29004 17.293C7.48004 17.105 7.74 17 8 17H19C19.89 17 20.7401 16.605 21.3101 15.921L25.4 11H38.6L42.6899 15.921C43.2699 16.605 44.11 17 45 17H56C56.55 17 57 17.448 57 18L57.01 18.184C57.05 19.156 57.47 19.795 57.98 20.212C58.51 20.701 59.22 21 60 21C60 21 63 20.828 63 18C63 14.134 59.87 11 56 11H46.4L42.3101 6.07901C41.7401 5.39501 40.89 5 40 5H24C23.11 5 22.2699 5.39501 21.6899 6.07901L17.6 11H8C6.14 11 4.36005 11.737 3.05005 13.05C1.74005 14.363 1 16.144 1 18V52C1 53.856 1.74005 55.637 3.05005 56.95C4.36005 58.262 6.14 59 8 59H56C59.87 59 63 55.866 63 52V30C63 28.343 61.66 27 60 27H43.49C40.96 23.374 36.75 21 32 21C24.27 21 18 27.273 18 35C18 42.727 24.27 49 32 49C39.73 49 46 42.727 46 35C46 34.321 45.95 33.653 45.86 33ZM32 27C36.41 27 40 30.585 40 35C40 39.415 36.41 43 32 43C27.59 43 24 39.415 24 35C24 30.585 27.59 27 32 27Z" fill="#7E8894"/>
</svg>
