<svg width="223" height="43" viewBox="0 0 223 43" fill="none" xmlns="http://www.w3.org/2000/svg">
<path d="M29.1618 1.17458L0.0133385 15.3912C0.00578233 15.3949 0.00276775 15.4037 0.00644827 15.4112L10.2563 36.4265C11.6614 39.3075 15.1386 40.5022 18.0234 39.0951L35.5479 30.5479C38.4327 29.1409 39.632 25.6653 38.2268 22.7843L34.422 14.9833C34.4183 14.9757 34.4213 14.967 34.4289 14.9633L35.7815 14.3036C39.51 12.4851 41.0172 7.91691 39.0516 4.22987C37.1757 0.709759 32.751 -0.575993 29.1618 1.17458ZM33.8712 10.6788L32.6202 11.289L29.7657 5.4365L31.1326 4.76985C32.8109 3.95128 34.8542 4.70776 35.5761 6.4585C36.238 8.0672 35.437 9.91515 33.8712 10.6788Z" fill="#EE6F8C"/>
<path d="M24.1482 41.8632V13.582H35.8279C42.156 13.582 45.4372 16.4726 45.4372 20.7695C45.4372 24.0117 43.2497 26.2382 40.1638 26.8632V27.1367C43.5622 27.2929 46.531 29.871 46.531 33.9726C46.531 38.5429 42.9763 41.8632 36.7263 41.8632H24.1482ZM35.1638 36.4726C38.2107 36.4726 39.5779 35.2617 39.5779 33.2304C39.5779 31.0038 37.9372 29.5976 35.281 29.5976H30.7888V36.4726H35.1638ZM34.7341 25.2617C36.9997 25.2617 38.6404 24.0507 38.6404 22.0195C38.6404 20.1054 37.1951 18.8945 34.8122 18.8945H30.7888V25.2617H34.7341Z" fill="#292929"/>
<path d="M59.656 42.2538C53.0154 42.2538 48.9529 38.1132 48.9529 31.3554C48.9529 24.7929 53.0544 20.3789 59.4216 20.3789C65.3591 20.3789 69.656 24.1679 69.656 31.1992V32.8788H55.4372V32.996C55.4372 35.7304 57.1169 37.4882 59.7732 37.4882C61.5701 37.4882 62.8982 36.707 63.4451 35.457H69.5779C68.7966 39.5976 65.1638 42.2538 59.656 42.2538ZM55.4372 29.0117H63.5232C63.4841 26.746 61.8435 25.1445 59.5779 25.1445C57.2341 25.1445 55.5349 26.8046 55.4372 29.0117Z" fill="#292929"/>
<path d="M85.281 27.2148C85.0857 25.8085 83.8357 24.9101 82.0779 24.9101C80.4372 24.9101 79.1482 25.6523 79.1872 26.746C79.1482 27.5664 79.7732 28.2304 81.6091 28.582L85.6326 29.3632C89.8513 30.1835 91.8826 32.0195 91.9216 35.1054C91.8826 39.4413 87.8982 42.2538 82.156 42.2538C76.1013 42.2538 72.5466 39.5585 72.1169 35.3398H78.6794C78.9138 36.8632 80.2419 37.6835 82.1951 37.6835C83.9919 37.6835 85.2029 36.9804 85.2419 35.8085C85.2029 34.871 84.3826 34.2851 82.5466 33.8945L78.9138 33.2304C74.7341 32.4492 72.6247 30.3398 72.6638 27.0976C72.6247 22.8789 76.2185 20.3789 81.9607 20.3789C87.6638 20.3789 91.1404 22.996 91.4138 27.2148H85.281Z" fill="#292929"/>
<path d="M107 20.6523V25.496H103.133V35.2226C103.133 36.5507 103.797 36.9413 104.929 36.9804C105.476 37.0195 106.531 36.9413 107.273 36.9023V41.9413C106.648 42.0195 105.554 42.1757 103.992 42.1757C99.3435 42.1757 96.531 40.2617 96.5701 35.9648V25.496H93.7185V20.6523H96.5701V15.5742H103.133V20.6523H107Z" fill="#292929"/>
<path d="M119.383 13.582H127.625L134.929 31.3945H135.242L142.547 13.582H150.789V41.8632H144.304V24.2851H144.07L137.195 41.707H132.976L126.101 24.207H125.867V41.8632H119.383V13.582Z" fill="#292929"/>
<path d="M164.929 42.2538C158.289 42.2538 154.226 38.1132 154.226 31.3554C154.226 24.7929 158.328 20.3789 164.695 20.3789C170.633 20.3789 174.929 24.1679 174.929 31.1992V32.8788H160.711V32.996C160.711 35.7304 162.39 37.4882 165.047 37.4882C166.843 37.4882 168.172 36.707 168.718 35.457H174.851C174.07 39.5976 170.437 42.2538 164.929 42.2538ZM160.711 29.0117H168.797C168.758 26.746 167.117 25.1445 164.851 25.1445C162.508 25.1445 160.808 26.8046 160.711 29.0117Z" fill="#292929"/>
<path d="M184.929 29.7148V41.8632H178.328V20.6523H184.578V24.5195H184.812C185.789 21.9414 188.133 20.3789 191.258 20.3789C195.711 20.3789 198.64 23.5429 198.601 28.3476V41.8632H192.039V29.5976C192.039 27.2148 190.75 25.7695 188.562 25.7695C186.375 25.7695 184.929 27.2539 184.929 29.7148Z" fill="#292929"/>
<path d="M216.414 32.7226V20.6523H222.976V41.8632H216.726V37.957H216.492C215.554 40.496 213.211 42.1367 210.008 42.1367C205.672 42.1367 202.742 39.0117 202.742 34.1679V20.6523H209.343V32.9179C209.343 35.2226 210.633 36.6679 212.742 36.6679C214.773 36.6679 216.414 35.2617 216.414 32.7226Z" fill="#292929"/>
</svg>
