<svg width="245" height="50" viewBox="0 0 245 50" fill="none" xmlns="http://www.w3.org/2000/svg">
<path d="M29.1618 1.31154L0.0133385 15.5282C0.00578233 15.5319 0.00276775 15.5406 0.00644827 15.5482L10.2563 36.5635C11.6614 39.4444 15.1386 40.6391 18.0234 39.2321L35.5479 30.6848C38.4327 29.2778 39.632 25.8023 38.2268 22.9213L34.422 15.1202C34.4183 15.1127 34.4213 15.1039 34.4289 15.1003L35.7815 14.4406C39.51 12.622 41.0172 8.05387 39.0516 4.36683C37.1757 0.846722 32.751 -0.439031 29.1618 1.31154ZM33.8712 10.8158L32.6202 11.4259L29.7657 5.57346L31.1326 4.90682C32.8109 4.08825 34.8542 4.84472 35.5761 6.59546C36.238 8.20416 35.437 10.0521 33.8712 10.8158Z" fill="#EE6F8C"/>
<path d="M42.9372 23.9143C42.5466 21.0236 40.4763 19.1877 37.3122 19.1877C33.1326 19.1877 30.5935 22.3518 30.5935 27.8596C30.5935 33.5627 33.2107 36.5314 37.2732 36.5314C40.3201 36.5314 42.4294 34.8908 42.9372 32.1174L49.656 32.1564C49.1091 37.1955 44.8122 42.3908 37.156 42.3908C29.4997 42.3908 23.7966 37.1564 23.7966 27.8596C23.7966 18.5236 29.6169 13.3283 37.156 13.3283C43.9529 13.3283 48.9529 17.1564 49.656 23.9143H42.9372Z" fill="#292929"/>
<path d="M63.3279 42.3908C56.6872 42.3908 52.6638 37.9768 52.6638 31.4533C52.6638 24.9299 56.6872 20.5158 63.3279 20.5158C69.9685 20.5158 73.9919 24.9299 73.9919 31.4533C73.9919 37.9768 69.9685 42.3908 63.3279 42.3908ZM63.3669 37.4299C65.8669 37.4299 67.2732 34.9689 67.2732 31.4143C67.2732 27.8596 65.8669 25.3986 63.3669 25.3986C60.7888 25.3986 59.3826 27.8596 59.3826 31.4143C59.3826 34.9689 60.7888 37.4299 63.3669 37.4299Z" fill="#292929"/>
<path d="M77.3904 42.0002V20.7893H83.6404V24.6564H83.8747C84.7732 22.0783 86.9607 20.5158 89.8904 20.5158C92.8201 20.5158 95.0857 22.1174 95.6326 24.6564H95.8669C96.6872 22.1564 99.1482 20.5158 102.273 20.5158C106.258 20.5158 109.031 23.2111 109.031 27.7033V42.0002H102.429V29.1877C102.429 27.0393 101.179 25.8674 99.4216 25.8674C97.5076 25.8674 96.3747 27.2346 96.3747 29.2658V42.0002H90.0466V29.1096C90.0466 27.1174 88.8357 25.8674 87.0779 25.8674C85.2419 25.8674 83.9919 27.2736 83.9919 29.4221V42.0002H77.3904Z" fill="#292929"/>
<path d="M113.172 42.0002V20.7893H119.422V24.6564H119.656C120.554 22.0783 122.742 20.5158 125.672 20.5158C128.601 20.5158 130.867 22.1174 131.414 24.6564H131.648C132.468 22.1564 134.929 20.5158 138.054 20.5158C142.039 20.5158 144.812 23.2111 144.812 27.7033V42.0002H138.211V29.1877C138.211 27.0393 136.961 25.8674 135.203 25.8674C133.289 25.8674 132.156 27.2346 132.156 29.2658V42.0002H125.828V29.1096C125.828 27.1174 124.617 25.8674 122.859 25.8674C121.023 25.8674 119.773 27.2736 119.773 29.4221V42.0002H113.172Z" fill="#292929"/>
<path d="M162.625 32.8596V20.7893H169.187V42.0002H162.937V38.0939H162.703C161.765 40.633 159.422 42.2736 156.218 42.2736C151.883 42.2736 148.953 39.1486 148.953 34.3049V20.7893H155.554V33.0549C155.554 35.3596 156.843 36.8049 158.953 36.8049C160.984 36.8049 162.625 35.3986 162.625 32.8596Z" fill="#292929"/>
<path d="M180.047 29.8518V42.0002H173.445V20.7893H179.695V24.6564H179.929C180.906 22.0783 183.25 20.5158 186.375 20.5158C190.828 20.5158 193.758 23.6799 193.718 28.4846V42.0002H187.156V29.7346C187.156 27.3518 185.867 25.9064 183.679 25.9064C181.492 25.9064 180.047 27.3908 180.047 29.8518Z" fill="#292929"/>
<path d="M197.859 42.0002V20.7893H204.461V42.0002H197.859ZM201.179 18.2502C199.304 18.2502 197.781 16.8439 197.781 15.0861C197.781 13.3283 199.304 11.9221 201.179 11.9221C203.054 11.9221 204.617 13.3283 204.617 15.0861C204.617 16.8439 203.054 18.2502 201.179 18.2502Z" fill="#292929"/>
<path d="M220.515 20.7893V25.633H216.648V35.3596C216.648 36.6877 217.312 37.0783 218.445 37.1174C218.992 37.1564 220.047 37.0783 220.789 37.0392V42.0783C220.164 42.1564 219.07 42.3127 217.508 42.3127C212.859 42.3127 210.047 40.3986 210.086 36.1017V25.633H207.234V20.7893H210.086V15.7111H216.648V20.7893H220.515Z" fill="#292929"/>
<path d="M227.742 49.9689C226.492 49.9689 225.32 49.9299 224.461 49.8517V44.8517C225.32 44.9299 226.258 44.9299 227.039 44.9299C228.133 44.9299 228.953 44.8127 229.539 43.4064L229.773 42.7424L222.234 20.7893H229.109L233.133 36.0236H233.367L237.39 20.7893H244.343L236.297 44.0705C235.125 47.5471 232.703 49.9689 227.742 49.9689Z" fill="#292929"/>
</svg>
