<svg width="300" height="103" viewBox="0 0 300 103" fill="none" xmlns="http://www.w3.org/2000/svg">
<path d="M293.896 103H47.0797C43.708 103 40.9752 100.278 40.9752 96.9189V66.57C40.9752 63.2112 43.708 60.4889 47.0797 60.4889H293.896C297.267 60.4889 300 63.2112 300 66.57V96.9189C300 100.278 297.267 103 293.896 103Z" fill="#E31E26"/>
<path d="M74.3178 103H10.1741C4.55597 103 0 98.4615 0 92.8648V10.1352C0 4.53855 4.55597 0 10.1741 0H74.3199C79.938 0 84.494 4.53855 84.494 10.1352V92.8648C84.4919 98.4615 79.938 103 74.3178 103Z" fill="#E31E26"/>
<path d="M42.5603 41.5949C42.5461 41.5989 42.5319 41.603 42.5176 41.6091C42.5278 41.605 42.538 41.603 42.5481 41.6009C42.5542 41.5989 42.5563 41.5969 42.5603 41.5949Z" fill="white"/>
<path d="M39.2131 45.2861C39.2131 45.2719 39.2029 45.2293 39.1805 45.1543C39.1805 45.1564 39.1805 45.1584 39.1805 45.1625C39.1927 45.203 39.2049 45.2435 39.2131 45.2861Z" fill="white"/>
<path d="M39.3148 45.578C39.3128 45.576 39.3107 45.576 39.3087 45.5739C39.3107 45.578 39.3128 45.5821 39.3168 45.5861C39.3189 45.5881 39.3209 45.5881 39.325 45.5902C39.3209 45.5881 39.3189 45.5821 39.3148 45.578Z" fill="white"/>
<path d="M45.1873 45.1543C45.1568 45.2537 45.1486 45.2942 45.1527 45.2983C45.1629 45.2517 45.1751 45.2071 45.1873 45.1625C45.1873 45.1584 45.1873 45.1564 45.1873 45.1543Z" fill="white"/>
<path d="M46.3288 43.8023C45.7103 43.8307 45.1995 44.2989 45.1954 44.9314C45.1954 45.0044 45.1914 45.0794 45.1873 45.1523C45.1914 45.1381 45.1934 45.128 45.1995 45.1118C45.1954 45.128 45.1914 45.1442 45.1873 45.1604C45.1873 45.1645 45.1873 45.1685 45.1873 45.1746C45.1832 45.2375 45.1568 45.3023 45.1527 45.2983C45.1385 45.3571 45.1242 45.4158 45.1079 45.4746C45.0896 45.505 45.0713 45.5334 45.055 45.5638C45.053 45.5658 45.051 45.5679 45.0489 45.5719C45.0123 45.5902 44.9777 45.6084 44.9431 45.6307C44.9289 45.6348 44.9146 45.6408 44.9004 45.6449C44.8638 45.655 44.8271 45.6631 44.7885 45.6692C44.7641 45.6712 44.7417 45.6713 44.7173 45.6713C44.6644 45.6713 44.6013 45.6631 44.5423 45.6611C44.5382 45.6591 44.5341 45.6591 44.528 45.6591C44.4548 45.6429 44.3815 45.6206 44.3083 45.5963C44.3062 45.5942 44.3062 45.5942 44.3042 45.5942C44.2493 45.5618 44.1923 45.5334 44.1373 45.499C44.1231 45.4908 44.1109 45.4807 44.0966 45.4726C44.0336 45.3854 43.9115 45.3084 43.8403 45.2294C43.828 45.2152 43.8158 45.201 43.8036 45.1868C43.7731 45.1422 43.7426 45.0976 43.7141 45.053C43.6592 44.9638 43.6001 44.8645 43.5533 44.7631C43.5432 44.7368 43.533 44.7104 43.5228 44.6821C43.4984 44.6111 43.476 44.5381 43.4557 44.4672C43.4068 44.2969 43.3906 44.1206 43.3458 43.9523C43.3682 44.0354 43.3784 44.078 43.3824 44.0922C43.3763 44.0638 43.3519 43.9645 43.3478 43.9138C43.3417 43.8469 43.3397 43.782 43.3356 43.7152C44.1577 43.3888 44.876 42.7665 45.2321 41.978C45.3603 41.6922 45.4335 41.4205 45.346 41.1084C45.2728 40.8469 45.0693 40.5631 44.8251 40.4334C44.3306 40.1719 43.533 40.2631 43.2725 40.8388C43.2278 40.9361 43.181 41.0314 43.124 41.1205C43.1057 41.1489 43.0853 41.1773 43.067 41.2057C42.9938 41.2787 42.9246 41.3537 42.8493 41.4246C42.8228 41.4428 42.7984 41.4611 42.772 41.4793C42.7028 41.5239 42.6316 41.5624 42.5583 41.5989C42.5685 41.5969 42.5787 41.5949 42.5848 41.5949C42.5746 41.5949 42.5583 41.601 42.5461 41.605C42.5359 41.6091 42.5278 41.6151 42.5197 41.6192C42.3894 41.682 42.4484 41.6395 42.5156 41.6131C42.4851 41.6253 42.4566 41.6395 42.4342 41.6455C42.3833 41.6618 42.3325 41.676 42.2795 41.6881C42.2612 41.6922 42.2205 41.6982 42.19 41.7043C42.1412 41.7064 42.0923 41.7084 42.0415 41.7084C42.0089 41.7084 41.9764 41.7064 41.9438 41.7043C41.8583 41.68 41.7647 41.6678 41.6833 41.6415C41.6691 41.6374 41.6264 41.6192 41.5938 41.607C41.5002 41.5604 41.4127 41.5037 41.3232 41.4489C41.2988 41.4287 41.2743 41.4084 41.252 41.3861C41.1868 41.3253 41.1299 41.2503 41.0648 41.1874C41.0444 41.157 41.0241 41.1266 41.0057 41.0962C40.9773 41.0516 40.9549 41.003 40.9284 40.9564C40.9203 40.9442 40.9183 40.9422 40.9142 40.9341C40.8084 40.6787 40.67 40.4638 40.4197 40.3178C40.1776 40.1759 39.8194 40.1151 39.5468 40.2043C39.0096 40.3766 38.5253 41.005 38.7552 41.5949C39.034 42.3124 39.4572 42.8658 40.0758 43.3239C40.3607 43.5347 40.6863 43.6908 41.0261 43.7962C41.0241 43.8246 41.0241 43.851 41.022 43.8793C41.02 43.9118 41.0159 43.9462 41.0139 43.9787C40.9915 44.0699 40.9325 44.3962 40.9223 44.4327C40.8999 44.5179 40.8735 44.601 40.845 44.6841C40.843 44.6881 40.8409 44.6922 40.8389 44.6983C40.847 44.6861 40.8511 44.676 40.8613 44.6618C40.8491 44.6821 40.8389 44.7043 40.8287 44.7246C40.8328 44.7165 40.8369 44.7064 40.8389 44.6983C40.7636 44.8199 40.7738 44.8199 40.8023 44.7753C40.7555 44.8706 40.7107 44.9658 40.6537 45.0571C40.6232 45.1057 40.5927 45.1503 40.5601 45.1969C40.556 45.203 40.554 45.203 40.5479 45.2091C40.4665 45.3023 40.3688 45.3814 40.2834 45.4685C40.2752 45.4746 40.2651 45.4807 40.2569 45.4868C40.1939 45.5273 40.1287 45.5598 40.0636 45.5983C39.9904 45.6226 39.9171 45.6469 39.8398 45.6652C39.8357 45.6672 39.8296 45.6672 39.8256 45.6672C39.7787 45.6692 39.7279 45.6773 39.6851 45.6773C39.6546 45.6773 39.6261 45.6753 39.5956 45.6753C39.5529 45.6672 39.5081 45.6611 39.4715 45.651C39.4471 45.6449 39.4227 45.6348 39.3982 45.6287C39.384 45.6246 39.3718 45.6185 39.3596 45.6125C39.3514 45.6044 39.3413 45.5983 39.3331 45.5902C39.3189 45.576 39.3046 45.5598 39.2904 45.5456C39.2802 45.5253 39.2721 45.5071 39.2639 45.4908C39.2456 45.426 39.2293 45.3611 39.2151 45.2942C39.2151 45.3226 39.1887 45.2577 39.1825 45.1827C39.1825 45.1787 39.1825 45.1746 39.1825 45.1685C39.1785 45.1523 39.1744 45.1361 39.1703 45.1219C39.1744 45.1381 39.1785 45.1483 39.1825 45.1625C39.1785 45.0895 39.1744 45.0145 39.1744 44.9395C39.1683 44.3496 38.6555 43.782 38.041 43.8104C37.4306 43.8368 36.9015 44.307 36.9076 44.9395C36.9137 45.578 37.0378 46.2854 37.4245 46.8125C37.9454 47.524 38.7064 47.8969 39.5875 47.9375C40.6171 47.9841 41.5287 47.4956 42.1798 46.7598C42.2633 46.853 42.3467 46.9483 42.4423 47.0334C43.0406 47.5686 43.7528 47.8787 44.5565 47.9334C45.3074 47.9861 46.1335 47.7084 46.6626 47.1672C47.2425 46.5733 47.4582 45.7483 47.4663 44.9395C47.4683 44.3415 46.9373 43.776 46.3288 43.8023ZM39.3168 45.5881C39.3006 45.578 39.2863 45.5658 39.2802 45.5517C39.2904 45.5598 39.3006 45.5679 39.3107 45.576C39.3087 45.5719 39.3067 45.5679 39.3046 45.5658C39.3087 45.5699 39.3128 45.576 39.3168 45.58C39.325 45.5861 39.3331 45.5922 39.3413 45.5983C39.3372 45.5962 39.3311 45.5942 39.327 45.5922C39.3392 45.6084 39.3535 45.6267 39.3657 45.6429C39.3453 45.6307 39.3311 45.6104 39.3168 45.5881ZM41.1034 41.2401C41.1339 41.2827 41.1258 41.2705 41.1034 41.2401Z" fill="white"/>
<path d="M21.7604 47.4571C23.2784 47.4652 23.2804 45.1179 21.7604 45.1077C19.048 45.0915 16.4414 45.726 14.024 46.9442C12.6708 47.6273 13.8612 49.6544 15.2144 48.9733C17.2594 47.9415 19.4712 47.4449 21.7604 47.4571Z" fill="white"/>
<path d="M61.9095 47.4571C64.1987 47.4429 66.4105 47.9415 68.4555 48.9733C69.8066 49.6544 71.0011 47.6294 69.6459 46.9442C67.2285 45.726 64.6219 45.0915 61.9095 45.1077C60.3915 45.1179 60.3895 47.4672 61.9095 47.4571Z" fill="white"/>
<path d="M27.0387 24.9002C27.0408 24.9022 27.0428 24.9022 27.0448 24.9042C27.0428 24.9022 27.0387 24.9002 27.0387 24.9002Z" fill="white"/>
<path d="M26.5341 24.2333C26.528 24.2171 26.5178 24.1968 26.4995 24.1826C26.5117 24.1948 26.5239 24.213 26.5341 24.2333Z" fill="white"/>
<path d="M26.4995 24.1806V24.1826H26.5015L26.4995 24.1806Z" fill="white"/>
<path d="M27.6329 25.2508C27.637 25.2529 27.641 25.2549 27.6431 25.2569C27.6675 25.265 27.6899 25.2752 27.7122 25.2853C27.7184 25.2812 27.6817 25.263 27.6329 25.2508Z" fill="white"/>
<path d="M32.0481 40.7597C33.6222 40.1102 34.3696 38.3125 33.7176 36.7445C33.0656 35.1765 31.2611 34.4319 29.687 35.0814C28.113 35.7309 27.3655 37.5286 28.0175 39.0966C28.6695 40.6646 30.4741 41.4092 32.0481 40.7597Z" fill="white"/>
<path d="M53.9594 40.7587C55.5334 40.1092 56.2809 38.3115 55.6289 36.7435C54.9769 35.1755 53.1723 34.4309 51.5983 35.0804C50.0243 35.7299 49.2768 37.5276 49.9288 39.0956C50.5808 40.6636 52.3854 41.4082 53.9594 40.7587Z" fill="white"/>
<path d="M56.5945 63.8234L56.6373 63.7464L57.3922 62.3964L56.0227 62.1572L53.4121 62.7835L52.651 64.1457L55.2617 63.5193L54.9809 64.022L54.9361 64.1011L53.7804 66.1707L51.5278 70.1944L52.8993 70.4315L56.5945 63.8234Z" fill="white"/>
<path d="M61.2522 63.1687C61.0467 63.0227 60.8025 62.9558 60.5584 62.972C60.481 62.9781 60.4037 62.9903 60.3264 63.0126C60.2776 63.0268 60.2267 63.045 60.1758 63.0653C59.5898 63.2903 58.7758 63.9045 57.9273 65.4896C57.8642 65.6072 57.8012 65.7288 57.7381 65.8585C57.1419 67.0707 56.8021 68.5079 56.9181 69.6248C56.4582 69.9126 56.041 70.0647 55.7338 70.0302C55.5893 70.014 55.4265 69.9511 55.3167 69.6126C55.2353 69.3653 54.9687 69.2295 54.7205 69.3106C54.4722 69.3917 54.3359 69.6572 54.4173 69.9045C54.5577 70.3322 54.8079 70.6444 55.1396 70.8187C55.2861 70.8957 55.4489 70.9444 55.6259 70.9647C56.0899 71.0174 56.621 70.8613 57.1683 70.5633C57.2884 70.8086 57.4492 71.0133 57.6547 71.1653C58.2285 71.589 59.3069 71.7228 61.1851 69.9653C61.3764 69.7869 61.3845 69.489 61.2054 69.2984C61.0264 69.1079 60.7272 69.0998 60.536 69.2782C59.2846 70.4498 58.5154 70.6282 58.2142 70.4072C58.1105 70.3302 58.027 70.2045 57.966 70.0383C58.9 69.3248 59.8075 68.2971 60.4281 67.2815C61.0874 66.2052 61.4903 65.3092 61.6348 64.6058C61.6816 64.3768 61.7019 64.17 61.6938 63.9815C61.6816 63.6572 61.5188 63.3612 61.2522 63.1687ZM60.5746 64.8937C60.418 65.3396 60.1331 65.9558 59.6203 66.795C59.138 67.5836 58.495 68.3336 57.85 68.9133C57.8948 68.1511 58.1288 67.2045 58.5866 66.2761C58.7942 65.8565 58.9915 65.5139 59.1808 65.2281C59.8014 64.2916 60.3101 64.0038 60.593 63.9207C60.6336 63.9085 60.6662 63.9187 60.6865 63.9288C60.6927 63.9308 60.6967 63.9349 60.7008 63.9369C60.7211 63.9511 60.7476 63.9795 60.7496 64.0261C60.7557 64.1842 60.7272 64.4579 60.5746 64.8937Z" fill="white"/>
<path d="M22.2793 50.972C19.6727 52.1071 17.353 53.7977 15.4667 55.9179C14.4635 57.045 16.126 58.7132 17.1332 57.5781C18.9035 55.5896 21.0238 54.0632 23.4696 52.999C24.8554 52.397 23.6568 50.372 22.2793 50.972Z" fill="white"/>
<path d="M70.5269 30.7097C74.2079 23.9008 70.4415 13.3217 70.2746 12.8616L70.0366 12.2068L69.3386 12.2149C64.6911 12.2717 61.2685 13.267 58.8308 14.4447C58.6924 14.2866 58.5479 14.1325 58.4157 13.9764C57.8215 13.2751 57.2335 12.5656 56.5579 11.9393C55.9413 11.3676 55.28 10.8426 54.5984 10.3521C51.9409 8.44262 48.8032 7.16559 45.578 6.60005C45.1649 6.52707 44.7519 6.46829 44.3388 6.41761C44.3876 6.16829 44.3795 5.90882 44.3225 5.6595C44.1394 4.85679 43.3906 4.30949 42.6906 3.96895C41.9092 3.58989 41.0648 3.40543 40.2 3.55543C39.3779 3.69732 38.5497 4.2203 38.1794 4.98449C37.9291 5.49734 37.8619 6.04058 37.9678 6.55342C37.3756 6.65072 36.7876 6.77031 36.2036 6.91221C33.4443 7.58924 30.7401 8.69803 28.3491 10.2345C26.7172 11.2825 25.1341 12.5879 23.9763 14.1771C21.5813 13.115 18.3297 12.2575 14.026 12.2048L13.3281 12.1967L13.09 12.8514C12.9232 13.3116 9.15874 23.8907 12.8377 30.6995C10.8924 33.3651 2.98305 45.1483 7.68349 54.7544C9.53721 58.545 13.1022 61.4578 18.3439 63.4808C18.5128 63.5457 18.6858 63.6106 18.8587 63.6754C18.6817 63.7768 18.5087 63.8862 18.3439 63.9957C18.175 64.1072 18.0102 64.2268 17.8474 64.3484C17.6094 64.5268 17.3794 64.7112 17.1576 64.9079C15.8065 66.0977 14.783 67.6403 13.9853 69.2396C13.5763 70.0586 13.1877 70.8998 12.9293 71.7795C12.6505 72.7322 12.5243 73.7802 12.795 74.7491C12.8519 74.9498 12.9293 75.1485 13.0188 75.339C13.0391 75.4019 13.0676 75.4627 13.1063 75.5174C13.1429 75.5883 13.1918 75.6512 13.2467 75.7079C13.731 76.3667 14.256 76.9971 14.8339 77.5769C15.4016 78.1465 16.0181 78.6613 16.6611 79.1417C17.5666 79.8208 18.5494 80.4005 19.5872 80.8566C19.6584 80.887 19.7296 80.9195 19.8009 80.9499L21.3188 89.9094C21.7116 92.3357 23.7077 94.3182 26.528 95.0844C29.5619 95.9074 34.8077 96.8885 42.5624 96.8885C50.3171 96.8885 55.5608 95.9074 58.5947 95.0844C61.415 94.3202 63.4112 92.3357 63.8039 89.9094L65.6108 76.5046C66.2823 76.5877 66.9721 76.5208 67.6192 76.2958C68.716 75.9147 69.6784 75.1931 70.4069 74.2951C70.7935 73.8187 71.1394 73.316 71.4101 72.7626C71.6929 72.187 71.8882 71.5951 72.0571 70.9788C72.1955 70.468 72.3542 69.9592 72.4499 69.4383C72.5679 68.7977 72.5658 68.1755 72.4315 67.5349C72.3176 66.9977 72.0897 66.4646 71.7865 66.0085C71.4263 65.4673 70.9868 65.0295 70.4598 64.6504C70.2563 64.5024 70.0366 64.3768 69.8107 64.2673C69.1779 63.9714 68.5267 63.7808 67.8308 63.7058C67.725 63.6957 67.6192 63.6896 67.5113 63.6876L67.8837 62.2099C71.583 60.3004 74.1896 57.8173 75.6852 54.7605C80.3796 45.1584 72.4722 33.3732 70.5269 30.7097ZM39.3942 5.94734C39.4104 5.87639 39.4288 5.80747 39.4491 5.73855C39.4532 5.72234 39.4572 5.71017 39.4572 5.70206C39.4633 5.69395 39.4695 5.68382 39.4796 5.66761C39.4898 5.65139 39.5793 5.51355 39.5773 5.50747C39.6282 5.44666 39.6872 5.39395 39.7421 5.3372C39.7747 5.31085 39.791 5.29666 39.793 5.2926C39.8174 5.27639 39.8398 5.25814 39.8642 5.24396C39.9415 5.19328 40.0229 5.15071 40.1043 5.11017C40.1186 5.10206 40.1308 5.09598 40.1389 5.09193C40.1491 5.0899 40.1633 5.08584 40.1837 5.07774C40.2732 5.04936 40.3607 5.02301 40.4523 5.00274C40.4909 4.99463 40.5316 4.98652 40.5723 4.98044C40.5825 4.98044 40.5886 4.97841 40.6008 4.97841C40.7005 4.97436 40.7982 4.96828 40.8999 4.9703C40.9223 4.9703 41.0709 4.98652 41.1116 4.98652L42.3955 5.49125C42.4138 5.50139 42.5522 5.60071 42.5644 5.60477C42.6153 5.64531 42.6621 5.68788 42.7089 5.73247C42.7394 5.76288 42.7679 5.79328 42.7964 5.82571C42.8025 5.83585 42.8106 5.84599 42.8208 5.86018C42.8412 5.89058 42.8574 5.92301 42.8757 5.95544C42.8798 5.96558 42.8818 5.97572 42.888 5.9899C42.8941 6.01626 42.8981 6.03247 42.9002 6.04058C42.9022 6.06491 42.9042 6.09126 42.9022 6.11558C42.9022 6.11761 42.9022 6.11761 42.9022 6.11964C42.9002 6.12775 42.8981 6.1318 42.8961 6.13788C42.8188 6.1845 42.7415 6.23315 42.6641 6.2818C41.8217 6.24329 40.9793 6.25342 40.1389 6.30815C39.8968 6.31018 39.6526 6.31221 39.4104 6.31423C39.4023 6.29193 39.3962 6.27369 39.3942 6.26761C39.3921 6.25139 39.3901 6.24329 39.3881 6.23315C39.386 6.20072 39.384 6.16626 39.382 6.13382C39.3799 6.10544 39.4003 5.9372 39.3942 5.94734ZM23.6609 18.5697C23.6609 18.5616 23.663 18.5515 23.663 18.5434C23.6609 18.5697 23.663 18.5778 23.6691 18.4866C23.6833 18.4015 23.6975 18.3163 23.7138 18.2332C23.7728 17.9474 23.8461 17.6657 23.9356 17.39C23.9783 17.2602 24.0231 17.1325 24.0719 17.0048C24.0964 16.942 24.1249 16.8792 24.1472 16.8163C24.1656 16.7758 24.1839 16.7352 24.2022 16.6947C24.2266 16.64 24.2551 16.5873 24.2815 16.5325C24.5094 16.0582 24.778 15.6042 25.0792 15.1724C25.1565 15.0609 25.2379 14.9515 25.3213 14.842C25.3254 14.8359 25.3295 14.8298 25.3356 14.8237C25.3519 14.8035 25.3742 14.7751 25.3864 14.7569C25.4434 14.6839 25.5024 14.6129 25.5635 14.542C25.7649 14.3008 25.9765 14.0697 26.1943 13.8427C26.6379 13.3866 27.112 12.9589 27.6085 12.5616C27.6695 12.5129 27.7285 12.4663 27.7896 12.4176C27.7977 12.4116 27.8018 12.4095 27.8058 12.4055C27.8303 12.3872 27.8547 12.369 27.8771 12.3508C28.0195 12.2433 28.164 12.1379 28.3085 12.0345C28.5832 11.8379 28.864 11.6494 29.1488 11.469C29.7186 11.1062 30.3046 10.7697 30.9028 10.4575C31.2101 10.2974 31.5214 10.1453 31.8348 9.99736C31.9813 9.92844 32.1278 9.86155 32.2764 9.79669C32.3496 9.76425 32.4249 9.73182 32.4981 9.69939C32.5409 9.68114 32.5836 9.6629 32.6243 9.64466C32.6345 9.6406 32.7037 9.61222 32.7342 9.59803C32.7505 9.59195 32.7647 9.58588 32.7667 9.58385C32.8095 9.56561 32.8522 9.54939 32.8949 9.53114C32.9702 9.50074 33.0435 9.47033 33.1188 9.44195C33.2795 9.37912 33.4403 9.31628 33.601 9.25547C33.9205 9.13587 34.244 9.02236 34.5696 8.9129C36.3908 8.30884 38.1733 7.91965 40.0087 7.77573C40.9162 7.76762 41.8237 7.75748 42.7313 7.74937C42.774 7.74937 42.8167 7.74938 42.8595 7.74735C43.2298 7.76965 43.6001 7.80005 43.9705 7.83856C44.3815 7.88316 44.5931 7.91357 45.0306 7.98654C45.7977 8.11627 46.5588 8.28452 47.3076 8.4933C48.8439 8.92101 50.1604 9.44398 51.54 10.1798C52.2278 10.5467 52.8952 10.9521 53.5362 11.394C54.1731 11.8339 54.6513 12.2048 55.2475 12.7339C55.8945 13.3075 56.4684 13.9481 57.0259 14.6048C57.1826 14.7893 57.3393 14.9737 57.4959 15.1582C57.6262 15.3123 57.7584 15.4663 57.8927 15.6183C57.909 15.6366 57.9212 15.6508 57.9314 15.6629C57.9558 15.6994 57.9762 15.74 57.9965 15.7765C58.0291 15.8352 58.0616 15.894 58.0921 15.9548C58.1328 16.0359 58.1715 16.117 58.2102 16.1981C58.2102 16.2001 58.2163 16.2123 58.2224 16.2265C58.2346 16.2569 58.2631 16.3258 58.2651 16.3359C58.3343 16.5204 58.3953 16.7089 58.4442 16.8994C58.4808 17.0352 58.5134 17.1751 58.5378 17.313C58.5418 17.3393 58.5602 17.4569 58.5663 17.4873C58.5683 17.5015 58.5703 17.5136 58.5703 17.5177C58.5744 17.5623 58.5785 17.6069 58.5825 17.6515C58.5968 17.8278 58.6029 18.0062 58.5988 18.1826C58.5968 18.3204 58.5846 18.4562 58.5703 18.592C58.5703 18.5717 58.5561 18.6954 58.5479 18.7339C58.5317 18.819 58.5133 18.9022 58.493 18.9853C58.4543 19.1413 58.4014 19.2913 58.3485 19.4434C58.3485 19.4454 58.3445 19.4555 58.3404 19.4657C58.3302 19.488 58.316 19.5224 58.3099 19.5305C58.2732 19.6055 58.2346 19.6826 58.1919 19.7555C58.1552 19.8204 58.1166 19.8832 58.0759 19.944C58.0535 19.9785 58.027 20.013 58.0047 20.0495C58.0026 20.0515 57.9965 20.0616 57.9884 20.0718C57.968 20.0961 57.8968 20.1812 57.8805 20.1995C57.8154 20.2724 57.7462 20.3413 57.675 20.4062C57.6262 20.4508 57.5753 20.4954 57.5224 20.538C57.5082 20.5461 57.3922 20.6292 57.3739 20.6434C57.2131 20.7508 57.0422 20.8461 56.8672 20.9292C56.8245 20.9495 56.7797 20.9697 56.7349 20.99C56.7227 20.9941 56.7085 21.0001 56.6861 21.0062C56.6006 21.0366 56.5152 21.067 56.4297 21.0934C56.2425 21.1522 56.0533 21.1988 55.862 21.2353C55.8111 21.2454 55.7582 21.2535 55.7073 21.2616C55.7073 21.2616 55.6768 21.2657 55.6544 21.2697C55.6341 21.2718 55.5975 21.2758 55.573 21.2799C55.5588 21.2819 55.5446 21.2819 55.5323 21.2839C55.4998 21.288 55.4672 21.29 55.4347 21.292C55.223 21.3082 55.0114 21.3164 54.8018 21.3123C54.5902 21.3082 54.4132 21.3001 54.2443 21.2839C54.2463 21.2819 54.2341 21.2778 54.1934 21.2718C54.1588 21.2657 54.1222 21.2616 54.0876 21.2555C54.0205 21.2454 53.9533 21.2332 53.8862 21.2231C53.7214 21.1947 53.5586 21.1623 53.3958 21.1278C53.0499 21.0528 52.708 20.9637 52.3682 20.8643C51.5258 20.5988 50.7057 20.2643 49.8796 19.9501C49.725 19.8913 49.5683 19.8346 49.4116 19.7778C47.7064 19.0501 45.8995 18.6103 44.0722 18.3244C43.535 18.2413 42.9958 18.1684 42.4545 18.1076C41.6915 18.0123 40.9244 17.9413 40.1552 17.9008C39.2354 17.8501 38.3137 17.84 37.3919 17.8684C35.9838 17.8907 34.5676 17.99 33.192 18.2677C33.1656 18.2738 33.1412 18.2778 33.1147 18.2839C31.729 18.5089 30.3596 18.817 29.0166 19.2245C28.689 19.3238 28.3654 19.4292 28.0521 19.565C27.9605 19.6055 27.8689 19.6461 27.7794 19.6927C27.6186 19.7758 27.4599 19.865 27.3012 19.9522C27.2219 19.9947 27.1425 20.0373 27.0611 20.0778C27.0163 20.1001 26.9695 20.1224 26.9227 20.1447C26.9126 20.1488 26.8983 20.1549 26.8841 20.1609C26.7925 20.1934 26.703 20.2197 26.6094 20.2461C26.6073 20.2461 26.5911 20.2501 26.5748 20.2542C26.5483 20.2562 26.4934 20.2623 26.4832 20.2623C26.4018 20.2684 26.3184 20.2785 26.237 20.2927C26.1861 20.3008 26.1373 20.313 26.0885 20.3211C26.06 20.3251 26.0335 20.3292 26.005 20.3332C25.9949 20.3353 25.9867 20.3353 25.9765 20.3373C25.8463 20.3515 25.7161 20.3616 25.5838 20.3657C25.4373 20.3718 25.2888 20.3718 25.1423 20.3636C25.0751 20.3596 25.008 20.3535 24.9408 20.3474C24.9306 20.3454 24.9184 20.3434 24.9062 20.3413C24.9144 20.3434 24.9225 20.3454 24.9286 20.3454C24.9184 20.3454 24.9083 20.3434 24.9001 20.3434C24.8106 20.3353 24.8554 20.3353 24.9062 20.3413C24.8757 20.3373 24.8452 20.3332 24.8167 20.3292C24.6661 20.3008 24.5216 20.2562 24.3772 20.2076C24.2164 20.088 24.0516 19.9724 23.8847 19.8589C23.8441 19.79 23.7993 19.7231 23.7606 19.6522C23.7586 19.6481 23.7566 19.644 23.7545 19.642C23.7403 19.5913 23.7199 19.5427 23.7057 19.492C23.6894 19.4332 23.665 19.3603 23.6507 19.2913C23.6507 19.2913 23.6507 19.2792 23.6487 19.2427C23.6467 19.2184 23.6446 19.194 23.6426 19.1697C23.6385 19.1109 23.6365 19.0501 23.6345 18.9913C23.6406 18.8474 23.6507 18.7096 23.6609 18.5697ZM56.7573 20.9819C56.7858 20.9718 56.7756 20.9758 56.7573 20.9819ZM55.0562 23.7042C54.9992 23.7671 54.9382 23.8258 54.8751 23.8846C54.7266 24.0245 54.6248 24.1035 54.4925 24.1948C54.3359 24.3042 54.1771 24.4076 54.0103 24.4988C53.9309 24.5434 53.8495 24.5839 53.7681 24.6245C53.7336 24.6407 53.6969 24.6569 53.6623 24.6752C53.642 24.6853 53.6278 24.6914 53.6135 24.6975C53.6074 24.6995 53.5993 24.7035 53.585 24.7096C53.2269 24.8556 52.8525 24.961 52.476 25.04C52.063 25.1252 51.8168 25.1535 51.3711 25.1779C50.5714 25.2204 49.7433 25.1616 48.9802 25.0421C47.1468 24.7583 45.3562 24.2698 43.5065 24.0752C41.6996 23.8866 39.8703 23.9049 38.0675 24.1279C36.2239 24.3549 34.4516 24.8394 32.6487 25.265C32.1767 25.3765 31.7025 25.4819 31.2264 25.565C31.1552 25.5731 31.0819 25.5812 31.0107 25.5894C30.502 25.638 29.9913 25.6542 29.4805 25.6299C29.3177 25.6218 29.1549 25.6096 28.9942 25.5934C28.9616 25.5894 28.9311 25.5853 28.8985 25.5833C28.8233 25.5711 28.75 25.561 28.6747 25.5468C28.3532 25.49 28.0338 25.409 27.7265 25.2934C27.7224 25.2914 27.7163 25.2894 27.7122 25.2873C27.7102 25.2894 27.6919 25.2833 27.6553 25.265C27.6512 25.263 27.6471 25.261 27.6431 25.2589C27.6349 25.2569 27.6248 25.2508 27.6166 25.2508C27.6227 25.2508 27.6268 25.2529 27.6309 25.2549C27.5637 25.2225 27.4966 25.1921 27.4294 25.1556C27.2951 25.0846 27.173 24.9772 27.0408 24.9062C27.0977 24.9427 27.1323 24.9894 27.0469 24.9144C27.0428 24.9103 27.0387 24.9083 27.0346 24.9042C27.0102 24.8819 26.9858 24.8616 26.9614 24.8394C26.9004 24.7846 26.8434 24.7258 26.7884 24.665C26.7681 24.6427 26.7498 24.6204 26.7315 24.5981C26.6867 24.5312 26.6419 24.4643 26.6012 24.3954C26.5829 24.361 26.5585 24.292 26.5321 24.2373C26.5443 24.2718 26.5341 24.288 26.5036 24.2049C26.5015 24.1988 26.4995 24.1907 26.4975 24.1846C26.4832 24.1461 26.469 24.1076 26.4568 24.067C26.4303 23.9819 26.4079 23.8968 26.3896 23.8116C26.3794 23.7671 26.3733 23.7225 26.3652 23.6799C26.3652 23.6758 26.3652 23.6738 26.3652 23.6698C26.3469 23.4468 26.3428 23.2258 26.3591 23.0029C26.3632 22.9461 26.3693 22.8893 26.3754 22.8326C26.3774 22.8204 26.3774 22.8123 26.3774 22.8042C26.3774 22.8022 26.3774 22.8022 26.3774 22.8022C26.3998 22.6684 26.4222 22.5366 26.4527 22.4049C26.4914 22.2306 26.5382 22.0583 26.5911 21.886C26.6155 21.8738 26.6399 21.8616 26.6643 21.8515C26.7945 21.7907 26.9268 21.7319 27.057 21.6751C27.1018 21.6549 27.1486 21.6305 27.1954 21.6103C27.2056 21.6062 27.2137 21.6042 27.2239 21.6001C27.2381 21.5961 27.2544 21.59 27.2788 21.5799C27.3623 21.5495 27.4457 21.517 27.5271 21.4805C28.6157 21.0407 29.7308 20.6657 30.8601 20.3454C31.7392 20.0961 32.6284 19.8812 33.5237 19.6967C34.6856 19.5143 35.8597 19.3988 37.0378 19.3481C37.3105 19.34 37.5832 19.3339 37.8558 19.3319C38.7695 19.3258 39.6811 19.3542 40.5927 19.4109C41.0668 19.4413 41.5409 19.4799 42.013 19.5285C42.1168 19.5386 42.2205 19.5508 42.3243 19.563C43.9847 19.7717 45.7733 20.1549 47.4297 20.6596C48.0727 20.8562 48.7014 21.0893 49.3302 21.3285C49.5744 21.4319 49.8206 21.5312 50.0668 21.6285C50.543 21.815 51.0232 21.9873 51.5095 22.1414C51.5848 22.1657 51.6601 22.186 51.7374 22.2103C52.0589 22.3137 52.3845 22.4089 52.7121 22.492C53.176 22.6076 53.6542 22.6927 54.1344 22.7393C54.5129 22.792 54.9117 22.8285 55.2943 22.8042C55.2983 22.8103 55.3004 22.8164 55.3044 22.8224C55.3044 22.8326 55.339 22.9238 55.3492 22.9542C55.3512 22.9623 55.3553 22.9826 55.3594 23.0008C55.3614 23.0191 55.3634 23.0414 55.3634 23.0474C55.3634 23.1002 55.3512 23.163 55.3512 23.1711C55.337 23.2157 55.3228 23.2643 55.3187 23.3049C55.3187 23.3069 55.3187 23.3089 55.3187 23.311C55.3085 23.3333 55.2983 23.3556 55.2861 23.3758C55.2434 23.4549 55.1946 23.5319 55.1417 23.6049C55.1152 23.6373 55.0867 23.6698 55.0562 23.7042ZM55.1417 23.6069C55.1396 23.611 55.1376 23.613 55.1356 23.617C55.0949 23.6738 55.1274 23.6272 55.1417 23.6069ZM23.8135 21.811C21.5264 22.9137 19.4895 24.4461 17.7233 26.2684C16.885 23.9677 16.7018 21.4542 17.1943 19.0562C19.6177 19.34 21.9313 20.2745 23.8135 21.811ZM21.6871 79.6059C21.4592 79.5431 21.2354 79.462 21.0136 79.3809C20.8956 79.3363 20.7796 79.2897 20.6616 79.2411C20.2322 79.0566 19.8131 78.8519 19.4041 78.6269C19.0215 78.4161 18.6491 78.1911 18.2869 77.9498C18.0428 77.7877 17.8067 77.6154 17.5727 77.439C16.6326 76.7032 15.7841 75.8579 15.0455 74.9235C14.9519 74.7998 14.8583 74.6762 14.7667 74.5505C14.7504 74.5201 14.7362 74.4877 14.7219 74.4572C14.6629 74.2971 14.6182 74.1329 14.5876 73.9647C14.5612 73.6829 14.5673 73.3991 14.5958 73.1174C14.6975 72.4849 14.901 71.8707 15.1452 71.2788C15.6946 70.0038 16.3661 68.7633 17.2085 67.6565C17.3001 67.543 17.3916 67.4295 17.4873 67.32C17.9268 66.8092 18.409 66.3369 18.9422 65.9194C19.2637 65.6781 19.6076 65.441 19.9698 65.2646C19.9901 65.2565 20.0104 65.2504 20.0308 65.2443C20.1 65.222 20.1692 65.2038 20.2404 65.1876C20.3116 65.1835 20.3849 65.1835 20.4561 65.1876C20.5151 65.2018 20.5761 65.218 20.6331 65.2362C20.6657 65.2545 20.6982 65.2727 20.7287 65.293C20.7491 65.3133 20.7694 65.3335 20.7898 65.3538C20.8203 65.4004 20.8488 65.4491 20.8732 65.4998C20.9017 65.5849 20.9241 65.6721 20.9404 65.7592C20.9627 65.9964 20.9566 66.2335 20.9322 66.4687C20.7979 67.316 20.4825 68.143 20.1529 68.9376C20.1427 68.9619 20.1325 68.9883 20.1203 69.0126C19.8477 69.6532 19.5506 70.2815 19.223 70.8957C18.9564 71.3984 18.6715 71.8971 18.3399 72.3633C18.3195 72.3937 18.2992 72.4241 18.2788 72.4525C18.1018 72.6937 18.1201 73.0485 18.23 73.3079C18.3053 73.4863 18.4212 73.6262 18.5718 73.7295C18.6553 73.7863 18.7509 73.8329 18.8547 73.8654C19.0215 73.9181 19.1863 73.9768 19.3491 74.0417C19.7948 74.2383 20.216 74.4836 20.6066 74.7714C20.8244 74.9458 21.0319 75.1323 21.2334 75.3248C21.4369 75.5194 21.6322 75.7201 21.8296 75.9208C22.2284 76.3282 22.6476 76.7397 23.1481 77.0215C23.4656 77.2019 23.8095 77.289 24.1472 77.4167C24.249 77.4654 24.3466 77.5181 24.4403 77.5789C24.4891 77.6215 24.5339 77.666 24.5786 77.7127C24.5949 77.739 24.6132 77.7674 24.6275 77.7958C24.6397 77.8343 24.6519 77.8748 24.6621 77.9154C24.6661 78.0025 24.6661 78.0877 24.66 78.1748C24.6376 78.2823 24.6091 78.3857 24.5725 78.489C24.5216 78.5924 24.4626 78.6938 24.3975 78.789C24.3019 78.9025 24.1961 79.0079 24.0842 79.1052C23.9722 79.1823 23.8542 79.2532 23.7301 79.312C23.4249 79.4235 23.1095 79.4985 22.788 79.5492C22.5133 79.5796 22.2386 79.5978 21.9618 79.6039C21.8703 79.6039 21.7787 79.6059 21.6871 79.6059ZM61.474 89.5506C61.2278 91.0263 59.8563 92.3074 57.9762 92.8182C55.0806 93.6047 50.0566 94.5412 42.5624 94.5412C35.0681 94.5412 30.0442 93.6047 27.1486 92.8182C25.2623 92.3053 23.8888 91.0182 23.6467 89.5283L22.2874 81.5093C22.7595 81.485 23.2336 81.4323 23.6935 81.3269C24.1757 81.2174 24.6743 81.0411 25.0792 80.7553C25.5045 80.4532 25.8667 80.0944 26.1373 79.6444C26.3449 79.3019 26.4934 78.9127 26.5483 78.5174C26.6073 78.0897 26.6277 77.6559 26.4791 77.2404C26.3367 76.8431 26.1149 76.4701 25.7873 76.1964C25.4048 75.8782 24.9897 75.6613 24.5155 75.5093C24.426 75.4809 24.3344 75.4525 24.2469 75.4221C24.1269 75.3613 24.0109 75.2924 23.899 75.2154C23.4798 74.8768 23.1197 74.4714 22.7391 74.0924C22.1938 73.5512 21.5915 73.0505 20.92 72.6714C20.8732 72.6451 20.8244 72.6207 20.7776 72.5964C20.7043 72.5559 20.6311 72.5153 20.5558 72.4789C20.6087 72.3876 20.6596 72.2944 20.7125 72.2011C20.8223 72.0025 20.9281 71.8038 21.0319 71.6032C21.4389 70.8106 21.8031 69.9957 22.1287 69.1687C22.3851 68.5201 22.6293 67.8532 22.7656 67.166C22.845 66.7646 22.9019 66.345 22.8877 65.9335C22.8734 65.5545 22.8104 65.2038 22.6862 64.8592C27.6614 66.1383 33.7455 66.8254 40.9223 66.9085V66.9248C41.3659 66.9248 41.8054 66.9227 42.2409 66.9187H42.4505V66.9167C44.0702 66.8984 45.6329 66.8477 47.1407 66.7667L46.6992 71.3153C46.689 71.3032 46.6788 71.291 46.6687 71.2788C45.4091 69.9329 43.3193 70.0363 41.8868 71.0295C40.4319 72.037 39.4837 73.7518 38.9241 75.3897C38.0878 77.8465 38.1916 80.7613 39.3779 83.1026C38.2872 84.0229 37.0907 84.8215 35.8108 85.4783C34.4618 86.1715 35.6542 88.2006 37.0012 87.5073C38.3401 86.8181 39.5936 85.983 40.7433 85.0262C40.9386 85.2269 41.1461 85.4195 41.3659 85.5999C44.583 88.2188 49.5846 87.4729 51.1086 83.3924C51.6377 81.9735 49.3607 81.3613 48.8357 82.7681C48.3006 84.2033 46.7114 85.006 45.2239 84.8316C44.1495 84.706 43.2013 84.1708 42.4667 83.4168C43.2766 82.5695 44.0193 81.6553 44.6806 80.6803C45.519 79.4458 46.2129 78.1079 46.7562 76.7174L46.7053 77.2384C46.5486 78.8498 47.6739 80.3276 49.2671 80.6032L59.2561 82.3242C59.4311 82.3546 59.6061 82.3688 59.779 82.3688C61.0976 82.3688 62.3042 81.5174 62.7336 80.2505L61.474 89.5506ZM44.7722 75.2883C44.294 76.687 43.6144 78.0106 42.8045 79.2451C42.3141 79.9911 41.7688 80.6945 41.1767 81.3532C40.6944 80.06 40.6069 78.6106 40.8613 77.2667C41.1482 75.7404 41.9194 73.7336 43.3275 72.8883C43.8789 72.5579 44.7824 72.4018 45.0815 73.1336C45.344 73.7782 44.9818 74.6741 44.7722 75.2883ZM48.2456 77.3843L48.4512 75.2701L61.8118 77.5728L61.2929 79.6343C61.0935 80.4249 60.3121 80.9357 59.5145 80.7999L49.5255 79.0789C48.7299 78.939 48.1663 78.1951 48.2456 77.3843ZM61.9685 73.2309C62.1679 73.9525 62.5199 74.6397 63.0164 75.1931L62.7682 76.1762L48.0177 73.6343L48.8785 64.7984L48.8886 64.6971L49.5154 58.247L65.794 61.0524L66.5509 61.1822L66.0768 63.0653L65.8469 63.9774C65.3951 64.1356 64.9617 64.3565 64.5649 64.6302C64.1071 64.9443 63.696 65.3254 63.3583 65.7572C63.1385 66.0369 62.933 66.3227 62.7621 66.6349C62.5891 66.9471 62.4467 67.2775 62.3164 67.6079C62.1048 68.145 61.9603 68.7065 61.8688 69.2761C61.6572 70.5775 61.6124 71.9478 61.9685 73.2309ZM50.2459 56.8119L50.3456 55.7902L66.5957 58.5916L66.3454 59.5869L50.2459 56.8119ZM67.7881 65.6315C68.134 65.6903 68.4758 65.7876 68.8014 65.9153C68.8116 65.9193 68.8238 65.9254 68.834 65.9295C69.0619 66.0389 69.2776 66.1667 69.4831 66.3126C69.6825 66.4768 69.8636 66.6572 70.0284 66.8538C70.1729 67.0545 70.297 67.2653 70.4008 67.4883C70.4862 67.7153 70.5514 67.9464 70.5921 68.1856C70.6144 68.4167 70.6144 68.6498 70.5921 68.8829C70.5208 69.3086 70.3988 69.7261 70.2848 70.1417C70.1525 70.6221 70.0284 71.1025 69.8453 71.5667C69.6296 72.0471 69.363 72.5011 69.0497 72.9228C68.7628 73.2775 68.4413 73.6039 68.0852 73.8917C67.8145 74.0883 67.5276 74.2606 67.2244 74.3985C66.9843 74.4897 66.7361 74.5586 66.4817 74.6032C66.2762 74.6235 66.0707 74.6255 65.8652 74.6113C65.8408 74.6093 65.8163 74.6073 65.7919 74.6052C65.5884 74.5687 65.389 74.514 65.1937 74.4431C65.0736 74.3863 64.9576 74.3214 64.8457 74.2525C64.7989 74.2241 64.7542 74.1917 64.7094 74.1613C64.571 74.0437 64.4428 73.916 64.3248 73.7782C64.1966 73.5978 64.0867 73.4072 63.9931 73.2066C63.9016 72.9735 63.8283 72.7343 63.7734 72.491C63.7612 72.4403 63.749 72.3897 63.7388 72.337C63.7184 72.2376 63.7022 72.1383 63.6859 72.037C63.6065 71.3295 63.6248 70.6119 63.7103 69.9065C63.8039 69.2883 63.9565 68.6782 64.1864 68.0944C64.2617 67.9241 64.3431 67.7579 64.4327 67.5977C64.5466 67.393 64.6728 67.1944 64.8111 67.0058C64.9271 66.8639 65.0512 66.7281 65.1835 66.6004C65.2832 66.5052 65.387 66.4119 65.4928 66.3248C65.7431 66.1444 66.0096 65.9883 66.2905 65.8606C66.5245 65.7694 66.7666 65.7004 67.0128 65.6518C67.023 65.6498 67.0352 65.6477 67.0454 65.6457C67.0657 65.6417 67.0881 65.6376 67.1084 65.6356C67.3363 65.6112 67.5622 65.6092 67.7881 65.6315ZM49.1674 54.0186H49.1633L49.2956 53.2564L68.3924 56.5483L68.4148 56.5524L68.2825 57.3146L49.1674 54.0186ZM50.9479 51.9713L51.1249 50.9497C51.1392 50.8686 51.3528 50.7125 51.7069 50.7733L67.0067 53.4105C67.1675 53.4389 67.3079 53.5037 67.4015 53.597C67.4747 53.6679 67.5012 53.7368 67.4951 53.7713L67.318 54.7929L67.0779 54.7524L50.9479 51.9713ZM73.9109 53.9132C72.7591 56.2646 70.7955 58.2632 68.0546 59.8808L67.8776 59.8504L68.1279 58.8551C68.9093 58.9869 69.654 58.4639 69.7883 57.6835L69.9592 56.7044C70.0915 55.9443 69.595 55.2186 68.8442 55.0565L69.0212 54.0348C69.1921 53.0456 68.4067 52.0828 67.2672 51.8862L51.9673 49.249C50.8278 49.0523 49.7636 49.6969 49.5907 50.6861L49.4136 51.7078C48.6424 51.5922 47.914 52.1132 47.7797 52.8835L47.6087 53.8625C47.5436 54.2396 47.6291 54.6206 47.8509 54.9348C48.0727 55.249 48.4044 55.4578 48.7828 55.5227L48.8052 55.5267L48.7055 56.5483L48.1337 56.449L47.3218 64.7964C45.7204 64.8856 44.0539 64.9403 42.3223 64.9606C33.0292 64.9525 25.5146 63.9572 19.9535 61.9991C19.6116 61.8774 19.2759 61.7538 18.9462 61.6261C14.2519 59.7936 11.0532 57.195 9.44158 53.9051C4.75538 44.3354 14.6751 31.5022 14.7769 31.3745L15.2022 30.8333L14.8379 30.2516C11.6392 25.1535 13.9507 16.6136 14.7097 14.1812C18.2259 14.3069 20.9302 15.0244 22.9508 15.894C22.9243 15.9488 22.8979 16.0035 22.8734 16.0602C22.6211 16.6359 22.4136 17.2258 22.2874 17.842C22.2223 18.1704 22.1796 18.517 22.1735 18.8636C20.4337 18.0123 18.5189 17.5177 16.5553 17.3778C16.1931 17.3515 15.9571 17.5319 15.8472 17.7792C15.8167 17.8359 15.7923 17.8988 15.7739 17.9697C14.8908 21.3731 15.2673 24.965 16.7568 28.1434C16.9704 28.5995 17.707 28.6745 18.0306 28.3076C19.9392 26.1367 22.2243 24.2596 24.8757 23.0738C24.8431 23.7873 24.9591 24.4988 25.3213 25.1312C25.826 26.013 26.7396 26.5522 27.696 26.8259C28.9596 27.1867 30.3596 27.1826 31.6517 26.9718C32.8095 26.7833 33.9469 26.4468 35.0844 26.1691C36.2259 25.8894 37.3838 25.6583 38.5253 25.5407C40.8511 25.3015 43.1993 25.4029 45.4579 25.8427C47.7532 26.2907 50.0261 26.8806 52.3784 26.538C53.4202 26.386 54.4396 26.0292 55.2963 25.411C56.0899 24.8394 56.9038 24.0164 56.8245 22.9583C56.8122 22.8062 56.7858 22.6623 56.7451 22.5245C57.1236 22.413 57.4939 22.265 57.8459 22.0684C57.8683 22.0562 57.8907 22.042 57.9131 22.0278C57.9985 22.0664 58.0921 22.0927 58.1959 22.1069C59.8299 22.3238 61.4008 23.4366 62.6135 24.4806C63.8507 25.5468 65.1184 26.8583 65.6881 28.4171C65.7736 28.6502 65.9303 28.8022 66.1114 28.8873C66.4309 29.0941 66.8561 29.1002 67.0983 28.7353C67.2143 28.6259 67.2916 28.4799 67.3018 28.3056C67.957 26.7306 68.1788 25.0562 68.0953 23.3495C68.0201 21.7603 67.8817 19.6988 67.0616 18.292C66.1073 16.6562 64.4245 17.1204 63.0042 17.8015C61.9665 18.2981 60.9226 18.7704 59.9133 19.3076C59.9967 18.9751 60.0476 18.6305 60.0619 18.2799C60.0903 17.5785 59.9805 16.8548 59.7607 16.1879C61.8383 15.1927 64.7358 14.3271 68.6325 14.1893C69.3915 16.6217 71.7031 25.1617 68.5043 30.2597L68.1401 30.8414L68.5633 31.3806C68.6773 31.5103 78.5971 44.3435 73.9109 53.9132ZM60.1514 21.0224C60.8107 20.6474 61.4883 20.3049 62.1781 19.9785C62.8333 19.6684 63.4865 19.3481 64.1437 19.0461C65.0004 18.6528 65.5884 18.6954 65.8835 19.6359C66.5082 21.6143 66.7686 24.0204 66.3128 26.1468C65.564 25.0157 64.5853 24.0184 63.5577 23.165C62.526 22.3076 61.3926 21.5272 60.1514 21.0224Z" fill="white"/>
<path d="M77.4719 67.4376H101.633V72.9309H92.906V96.0513H86.2013V72.9309H77.4739V67.4376H77.4719Z" fill="white"/>
<path d="M105.005 67.4376H111.751V78.9775H123.296V67.4376H130.042V96.0513H123.296V84.4708H111.751V96.0513H105.005V67.4376Z" fill="white"/>
<path d="M154.278 67.4376V72.9309H141.146V78.9775H153.247V84.4708H141.146V90.558H154.317V96.0513H134.4V67.4376H154.278Z" fill="white"/>
<path d="M167.688 67.4376H174.433V90.558H186.494V96.0513H167.688V67.4376Z" fill="white"/>
<path d="M196.767 96.0513H190.022V67.4376H196.767V96.0513Z" fill="white"/>
<path d="M200.141 67.4376H224.303V72.9309H215.575V96.0513H208.871V72.9309H200.143V67.4376H200.141Z" fill="white"/>
<path d="M247.55 67.4376V72.9309H234.418V78.9775H246.519V84.4708H234.418V90.558H247.589V96.0513H227.672V67.4376H247.55Z" fill="white"/>
<path d="M251.874 67.4376H263.617C270.084 67.4376 274.052 71.0741 274.052 76.9221C274.052 80.8546 272.247 83.6803 269.093 85.1033L275.084 96.0513H267.665L262.388 86.21H258.62V96.0513H251.874V67.4376ZM262.189 80.8343C265.363 80.8343 267.069 79.61 267.069 76.9221C267.069 74.2343 265.363 72.8903 262.189 72.8903H258.618V80.8343H262.189Z" fill="white"/>
<path d="M278.278 68.7207H276.522V67.4376H281.609V68.7207H279.853V73.1924H278.276V68.7207H278.278ZM284.187 70.1153V73.1924H282.61V67.4376H284.499L285.832 71.1329L287.164 67.4376H289.03V73.1924H287.453V70.1599L286.275 73.1924H285.386L284.187 70.1153Z" fill="white"/>
<path d="M88.6054 39.1535H93.6368L98.0959 49.9855H98.2867L102.746 39.1535H107.777V56.3517H103.819V45.6622H103.676L99.479 56.2567H96.9037L92.7068 45.6147H92.5638V56.3517H88.6054V39.1535Z" fill="#E40616"/>
<path d="M110.4 56.3517V39.1535H122.347V42.4554H114.454V46.0898H121.727V49.3917H114.454V53.0499H122.371V56.3517H110.4Z" fill="#E40616"/>
<path d="M124.946 39.1535H129.977L134.437 49.9855H134.627L139.086 39.1535H144.118V56.3517H140.16V45.6622H140.016L135.82 56.2567H133.244L129.047 45.6147H128.904V56.3517H124.946V39.1535Z" fill="#E40616"/>
<path d="M146.741 56.3517V39.1535H153.871C157.734 39.1535 159.737 40.9114 159.737 43.5244C159.737 45.496 158.401 46.85 156.518 47.23V47.3963C158.592 47.4913 160.404 49.0591 160.404 51.5533C160.404 54.3326 158.234 56.3517 154.419 56.3517H146.741ZM153.465 53.0736C155.325 53.0736 156.16 52.3372 156.16 51.102C156.16 49.748 155.158 48.8928 153.537 48.8928H150.795V53.0736H153.465ZM153.203 46.2561C154.586 46.2561 155.588 45.5197 155.588 44.2845C155.588 43.1205 154.705 42.3841 153.251 42.3841H150.795V46.2561H153.203Z" fill="#E40616"/>
<path d="M162.407 56.3517V39.1535H174.354V42.4554H166.461V46.0898H173.734V49.3917H166.461V53.0499H174.378V56.3517H162.407Z" fill="#E40616"/>
<path d="M176.953 56.3517V39.1535H184.012C187.898 39.1535 190.283 41.339 190.283 44.8546C190.283 47.2182 189.198 48.9166 187.302 49.7718L190.903 56.3517H186.444L183.272 50.4369H181.007V56.3517H176.953ZM181.007 47.2063H183.153C185.061 47.2063 186.086 46.4699 186.086 44.8546C186.086 43.2393 185.061 42.4317 183.153 42.4317H181.007V47.2063Z" fill="#E40616"/>
<path d="M207.356 44.2607C207.261 43.0018 206.331 42.2654 204.662 42.2654C203.016 42.2654 202.182 42.978 202.158 43.9519C202.134 45.0209 203.183 45.5435 204.733 45.876L206.236 46.2324C209.55 46.9687 211.482 48.6078 211.505 51.3633C211.482 54.6176 208.954 56.5893 204.662 56.5893C200.37 56.5893 197.58 54.6414 197.508 50.6982H201.419C201.514 52.361 202.754 53.2161 204.614 53.2161C206.331 53.2161 207.356 52.456 207.38 51.3633C207.356 50.3656 206.474 49.843 204.566 49.4154L202.754 48.9879C199.773 48.299 197.961 46.8262 197.961 44.237C197.937 41.0539 200.775 38.916 204.686 38.916C208.668 38.916 211.219 41.0777 211.267 44.2607H207.356Z" fill="#E40616"/>
<path d="M213.604 56.3517V39.1535H217.658V46.0898H224.597V39.1535H228.65V56.3517H224.597V49.3917H217.658V56.3517H213.604Z" fill="#E40616"/>
<path d="M235.327 39.1535V56.3517H231.273V39.1535H235.327Z" fill="#E40616"/>
<path d="M237.95 56.3517V39.1535H245.009C248.895 39.1535 251.28 41.5765 251.28 45.0684C251.28 48.6315 248.848 50.9595 244.889 50.9595H242.004V56.3517H237.95ZM242.004 47.7526H244.15C246.058 47.7526 247.083 46.6837 247.083 45.0684C247.083 43.4531 246.058 42.4317 244.15 42.4317H242.004V47.7526Z" fill="#E40616"/>
</svg>
