<svg width="239" height="35" viewBox="0 0 239 35" fill="none" xmlns="http://www.w3.org/2000/svg">
<path d="M29.52 0.999999V7.44H18.92V33.6H11.64V7.44H1.04V0.999999H29.52ZM55.1069 0.999999H62.3869V33.6H55.1069V20.36H40.7069V33.6H33.4269V0.999999H40.7069V13.92H55.1069V0.999999ZM68.1534 33.6V0.999999H92.3934V7.32H75.4334V13.96H90.9934V20.28H75.4334V27.28H92.7534V33.6H68.1534ZM108.857 0.999999H116.137V27.16H132.417V33.6H108.857V0.999999ZM136.083 0.999999H143.363V33.6H136.083V0.999999ZM175.77 0.999999V7.44H165.17V33.6H157.89V7.44H147.29V0.999999H175.77ZM179.677 33.6V0.999999H203.917V7.32H186.957V13.96H202.517V20.28H186.957V27.28H204.277V33.6H179.677ZM237.009 33.6H228.569L222.249 23.32H216.449V33.6H209.169V0.999999H222.289C230.569 0.999999 235.409 5.4 235.409 12.16C235.409 16.64 233.289 20.08 229.449 21.88L237.009 33.6ZM216.449 7.44V16.88H221.969C225.809 16.88 228.129 15.24 228.129 12.16C228.129 9.08 225.809 7.44 221.969 7.44H216.449Z" fill="#F7406B"/>
<path d="M29.52 0.999999H30.52V-9.53674e-07H29.52V0.999999ZM29.52 7.44V8.44H30.52V7.44H29.52ZM18.92 7.44V6.44H17.92V7.44H18.92ZM18.92 33.6V34.6H19.92V33.6H18.92ZM11.64 33.6H10.64V34.6H11.64V33.6ZM11.64 7.44H12.64V6.44H11.64V7.44ZM1.04 7.44H0.04V8.44H1.04V7.44ZM1.04 0.999999V-9.53674e-07H0.04V0.999999H1.04ZM29.52 0.999999H28.52V7.44H29.52H30.52V0.999999H29.52ZM29.52 7.44V6.44H18.92V7.44V8.44H29.52V7.44ZM18.92 7.44H17.92V33.6H18.92H19.92V7.44H18.92ZM18.92 33.6V32.6H11.64V33.6V34.6H18.92V33.6ZM11.64 33.6H12.64V7.44H11.64H10.64V33.6H11.64ZM11.64 7.44V6.44H1.04V7.44V8.44H11.64V7.44ZM1.04 7.44H2.04V0.999999H1.04H0.04V7.44H1.04ZM1.04 0.999999V2H29.52V0.999999V-9.53674e-07H1.04V0.999999ZM55.1069 0.999999V-9.53674e-07H54.1069V0.999999H55.1069ZM62.3869 0.999999H63.3869V-9.53674e-07H62.3869V0.999999ZM62.3869 33.6V34.6H63.3869V33.6H62.3869ZM55.1069 33.6H54.1069V34.6H55.1069V33.6ZM55.1069 20.36H56.1069V19.36H55.1069V20.36ZM40.7069 20.36V19.36H39.7069V20.36H40.7069ZM40.7069 33.6V34.6H41.7069V33.6H40.7069ZM33.4269 33.6H32.4269V34.6H33.4269V33.6ZM33.4269 0.999999V-9.53674e-07H32.4269V0.999999H33.4269ZM40.7069 0.999999H41.7069V-9.53674e-07H40.7069V0.999999ZM40.7069 13.92H39.7069V14.92H40.7069V13.92ZM55.1069 13.92V14.92H56.1069V13.92H55.1069ZM55.1069 0.999999V2H62.3869V0.999999V-9.53674e-07H55.1069V0.999999ZM62.3869 0.999999H61.3869V33.6H62.3869H63.3869V0.999999H62.3869ZM62.3869 33.6V32.6H55.1069V33.6V34.6H62.3869V33.6ZM55.1069 33.6H56.1069V20.36H55.1069H54.1069V33.6H55.1069ZM55.1069 20.36V19.36H40.7069V20.36V21.36H55.1069V20.36ZM40.7069 20.36H39.7069V33.6H40.7069H41.7069V20.36H40.7069ZM40.7069 33.6V32.6H33.4269V33.6V34.6H40.7069V33.6ZM33.4269 33.6H34.4269V0.999999H33.4269H32.4269V33.6H33.4269ZM33.4269 0.999999V2H40.7069V0.999999V-9.53674e-07H33.4269V0.999999ZM40.7069 0.999999H39.7069V13.92H40.7069H41.7069V0.999999H40.7069ZM40.7069 13.92V14.92H55.1069V13.92V12.92H40.7069V13.92ZM55.1069 13.92H56.1069V0.999999H55.1069H54.1069V13.92H55.1069ZM68.1534 33.6H67.1534V34.6H68.1534V33.6ZM68.1534 0.999999V-9.53674e-07H67.1534V0.999999H68.1534ZM92.3934 0.999999H93.3934V-9.53674e-07H92.3934V0.999999ZM92.3934 7.32V8.32H93.3934V7.32H92.3934ZM75.4334 7.32V6.32H74.4334V7.32H75.4334ZM75.4334 13.96H74.4334V14.96H75.4334V13.96ZM90.9934 13.96H91.9934V12.96H90.9934V13.96ZM90.9934 20.28V21.28H91.9934V20.28H90.9934ZM75.4334 20.28V19.28H74.4334V20.28H75.4334ZM75.4334 27.28H74.4334V28.28H75.4334V27.28ZM92.7534 27.28H93.7534V26.28H92.7534V27.28ZM92.7534 33.6V34.6H93.7534V33.6H92.7534ZM68.1534 33.6H69.1534V0.999999H68.1534H67.1534V33.6H68.1534ZM68.1534 0.999999V2H92.3934V0.999999V-9.53674e-07H68.1534V0.999999ZM92.3934 0.999999H91.3934V7.32H92.3934H93.3934V0.999999H92.3934ZM92.3934 7.32V6.32H75.4334V7.32V8.32H92.3934V7.32ZM75.4334 7.32H74.4334V13.96H75.4334H76.4334V7.32H75.4334ZM75.4334 13.96V14.96H90.9934V13.96V12.96H75.4334V13.96ZM90.9934 13.96H89.9934V20.28H90.9934H91.9934V13.96H90.9934ZM90.9934 20.28V19.28H75.4334V20.28V21.28H90.9934V20.28ZM75.4334 20.28H74.4334V27.28H75.4334H76.4334V20.28H75.4334ZM75.4334 27.28V28.28H92.7534V27.28V26.28H75.4334V27.28ZM92.7534 27.28H91.7534V33.6H92.7534H93.7534V27.28H92.7534ZM92.7534 33.6V32.6H68.1534V33.6V34.6H92.7534V33.6ZM108.857 0.999999V-9.53674e-07H107.857V0.999999H108.857ZM116.137 0.999999H117.137V-9.53674e-07H116.137V0.999999ZM116.137 27.16H115.137V28.16H116.137V27.16ZM132.417 27.16H133.417V26.16H132.417V27.16ZM132.417 33.6V34.6H133.417V33.6H132.417ZM108.857 33.6H107.857V34.6H108.857V33.6ZM108.857 0.999999V2H116.137V0.999999V-9.53674e-07H108.857V0.999999ZM116.137 0.999999H115.137V27.16H116.137H117.137V0.999999H116.137ZM116.137 27.16V28.16H132.417V27.16V26.16H116.137V27.16ZM132.417 27.16H131.417V33.6H132.417H133.417V27.16H132.417ZM132.417 33.6V32.6H108.857V33.6V34.6H132.417V33.6ZM108.857 33.6H109.857V0.999999H108.857H107.857V33.6H108.857ZM136.083 0.999999V-9.53674e-07H135.083V0.999999H136.083ZM143.363 0.999999H144.363V-9.53674e-07H143.363V0.999999ZM143.363 33.6V34.6H144.363V33.6H143.363ZM136.083 33.6H135.083V34.6H136.083V33.6ZM136.083 0.999999V2H143.363V0.999999V-9.53674e-07H136.083V0.999999ZM143.363 0.999999H142.363V33.6H143.363H144.363V0.999999H143.363ZM143.363 33.6V32.6H136.083V33.6V34.6H143.363V33.6ZM136.083 33.6H137.083V0.999999H136.083H135.083V33.6H136.083ZM175.77 0.999999H176.77V-9.53674e-07H175.77V0.999999ZM175.77 7.44V8.44H176.77V7.44H175.77ZM165.17 7.44V6.44H164.17V7.44H165.17ZM165.17 33.6V34.6H166.17V33.6H165.17ZM157.89 33.6H156.89V34.6H157.89V33.6ZM157.89 7.44H158.89V6.44H157.89V7.44ZM147.29 7.44H146.29V8.44H147.29V7.44ZM147.29 0.999999V-9.53674e-07H146.29V0.999999H147.29ZM175.77 0.999999H174.77V7.44H175.77H176.77V0.999999H175.77ZM175.77 7.44V6.44H165.17V7.44V8.44H175.77V7.44ZM165.17 7.44H164.17V33.6H165.17H166.17V7.44H165.17ZM165.17 33.6V32.6H157.89V33.6V34.6H165.17V33.6ZM157.89 33.6H158.89V7.44H157.89H156.89V33.6H157.89ZM157.89 7.44V6.44H147.29V7.44V8.44H157.89V7.44ZM147.29 7.44H148.29V0.999999H147.29H146.29V7.44H147.29ZM147.29 0.999999V2H175.77V0.999999V-9.53674e-07H147.29V0.999999ZM179.677 33.6H178.677V34.6H179.677V33.6ZM179.677 0.999999V-9.53674e-07H178.677V0.999999H179.677ZM203.917 0.999999H204.917V-9.53674e-07H203.917V0.999999ZM203.917 7.32V8.32H204.917V7.32H203.917ZM186.957 7.32V6.32H185.957V7.32H186.957ZM186.957 13.96H185.957V14.96H186.957V13.96ZM202.517 13.96H203.517V12.96H202.517V13.96ZM202.517 20.28V21.28H203.517V20.28H202.517ZM186.957 20.28V19.28H185.957V20.28H186.957ZM186.957 27.28H185.957V28.28H186.957V27.28ZM204.277 27.28H205.277V26.28H204.277V27.28ZM204.277 33.6V34.6H205.277V33.6H204.277ZM179.677 33.6H180.677V0.999999H179.677H178.677V33.6H179.677ZM179.677 0.999999V2H203.917V0.999999V-9.53674e-07H179.677V0.999999ZM203.917 0.999999H202.917V7.32H203.917H204.917V0.999999H203.917ZM203.917 7.32V6.32H186.957V7.32V8.32H203.917V7.32ZM186.957 7.32H185.957V13.96H186.957H187.957V7.32H186.957ZM186.957 13.96V14.96H202.517V13.96V12.96H186.957V13.96ZM202.517 13.96H201.517V20.28H202.517H203.517V13.96H202.517ZM202.517 20.28V19.28H186.957V20.28V21.28H202.517V20.28ZM186.957 20.28H185.957V27.28H186.957H187.957V20.28H186.957ZM186.957 27.28V28.28H204.277V27.28V26.28H186.957V27.28ZM204.277 27.28H203.277V33.6H204.277H205.277V27.28H204.277ZM204.277 33.6V32.6H179.677V33.6V34.6H204.277V33.6ZM237.009 33.6V34.6H238.844L237.849 33.0579L237.009 33.6ZM228.569 33.6L227.717 34.1237L228.01 34.6H228.569V33.6ZM222.249 23.32L223.101 22.7963L222.808 22.32H222.249V23.32ZM216.449 23.32V22.32H215.449V23.32H216.449ZM216.449 33.6V34.6H217.449V33.6H216.449ZM209.169 33.6H208.169V34.6H209.169V33.6ZM209.169 0.999999V-9.53674e-07H208.169V0.999999H209.169ZM229.449 21.88L229.025 20.9745L227.988 21.4603L228.609 22.4221L229.449 21.88ZM216.449 7.44V6.44H215.449V7.44H216.449ZM216.449 16.88H215.449V17.88H216.449V16.88ZM237.009 33.6V32.6H228.569V33.6V34.6H237.009V33.6ZM228.569 33.6L229.421 33.0763L223.101 22.7963L222.249 23.32L221.397 23.8437L227.717 34.1237L228.569 33.6ZM222.249 23.32V22.32H216.449V23.32V24.32H222.249V23.32ZM216.449 23.32H215.449V33.6H216.449H217.449V23.32H216.449ZM216.449 33.6V32.6H209.169V33.6V34.6H216.449V33.6ZM209.169 33.6H210.169V0.999999H209.169H208.169V33.6H209.169ZM209.169 0.999999V2H222.289V0.999999V-9.53674e-07H209.169V0.999999ZM222.289 0.999999V2C226.26 2 229.283 3.05438 231.299 4.8008C233.299 6.53324 234.409 9.03365 234.409 12.16H235.409H236.409C236.409 8.52635 235.099 5.44676 232.609 3.2892C230.135 1.14562 226.598 -9.53674e-07 222.289 -9.53674e-07V0.999999ZM235.409 12.16H234.409C234.409 16.277 232.491 19.3495 229.025 20.9745L229.449 21.88L229.873 22.7855C234.087 20.8105 236.409 17.003 236.409 12.16H235.409ZM229.449 21.88L228.609 22.4221L236.169 34.1421L237.009 33.6L237.849 33.0579L230.289 21.3379L229.449 21.88ZM216.449 7.44H215.449V16.88H216.449H217.449V7.44H216.449ZM216.449 16.88V17.88H221.969V16.88V15.88H216.449V16.88ZM221.969 16.88V17.88C224.011 17.88 225.793 17.4467 227.089 16.475C228.426 15.4719 229.129 13.9813 229.129 12.16H228.129H227.129C227.129 13.4187 226.672 14.2881 225.889 14.875C225.065 15.4933 223.767 15.88 221.969 15.88V16.88ZM228.129 12.16H229.129C229.129 10.3387 228.426 8.84806 227.089 7.845C225.793 6.87327 224.011 6.44 221.969 6.44V7.44V8.44C223.767 8.44 225.065 8.82673 225.889 9.445C226.672 10.0319 227.129 10.9013 227.129 12.16H228.129ZM221.969 7.44V6.44H216.449V7.44V8.44H221.969V7.44Z" fill="#F7406B"/>
</svg>
