<svg width="100" height="100" viewBox="0 0 100 100" fill="none" xmlns="http://www.w3.org/2000/svg">
<path d="M100 50C100 77.6142 77.6142 100 50 100C22.3858 100 0 77.6142 0 50C0 22.3858 22.3858 0 50 0C77.6142 0 100 22.3858 100 50Z" fill="white"/>
<path d="M95 50C95 25.1472 74.8528 5 50 5C25.1472 5 5 25.1472 5 50C5 74.8528 25.1472 95 50 95V100C22.3858 100 0 77.6142 0 50C0 22.3858 22.3858 0 50 0C77.6142 0 100 22.3858 100 50C100 77.6142 77.6142 100 50 100V95C74.8528 95 95 74.8528 95 50Z" fill="#D6D9DC"/>
<path d="M90 50C90 27.9086 72.0914 10 50 10C27.9086 10 10 27.9086 10 50C10 72.0914 27.9086 90 50 90V92.5C26.5279 92.5 7.5 73.4721 7.5 50C7.5 26.5279 26.5279 7.5 50 7.5C73.4721 7.5 92.5 26.5279 92.5 50C92.5 73.4721 73.4721 92.5 50 92.5V90C72.0914 90 90 72.0914 90 50Z" fill="#D6D9DC"/>
<path d="M70.6766 28.0609H68.7633H68.6204H23.8658C23.8537 28.0609 23.8442 28.0704 23.8442 28.0825V61.8766C23.8442 66.5094 27.5993 70.2645 32.2321 70.2645H60.3754C65.0082 70.2645 68.7633 66.5094 68.7633 61.8766V49.3319C68.7633 49.3198 68.7727 49.3103 68.7849 49.3103H70.957C76.9449 49.3103 81.7907 44.331 81.5736 38.296C81.3673 32.5346 76.4406 28.0609 70.6766 28.0609ZM70.7723 43.3912H68.7633V42.8452V34.5261V33.98H70.9584C73.6536 33.98 75.8258 36.2573 75.6545 38.989C75.4954 41.4982 73.2869 43.3912 70.7723 43.3912Z" fill="#D6D9DC"/>
<path d="M34.7427 45.9342L40.6591 42.5944L35.015 58.7998L38.7054 58.6919L45.3876 38.1895L42.0465 38.6883L36.1894 42.2317L34.7427 45.9342Z" fill="white"/>
<path d="M56.7375 52.2305C55.5253 53.8336 53.1954 56.1824 51.5896 56.2255C51.2862 56.235 50.8817 56.1716 50.4354 55.6242C50.3775 55.5527 50.3235 55.4772 50.2723 55.395C54.0624 51.7869 57.0287 45.1208 57.8121 42.5213C58.7775 39.319 57.4264 38.026 56.5366 37.5406C55.2543 36.8381 53.6228 37.1294 52.5671 38.2417C52.1424 38.688 51.7231 39.2098 51.3199 39.7923C48.7972 43.4341 46.559 50.2592 47.4921 54.6413C46.9999 54.977 46.5105 55.221 46.0318 55.3464C45.1959 55.5662 44.4543 55.3896 43.7195 54.7936L41.4921 55.1024C41.3829 55.5069 41.4867 55.9572 41.8103 56.2673C42.3927 56.8242 43.0157 57.2314 43.6696 57.4862C44.608 57.8529 45.6085 57.9069 46.6332 57.6359C47.2332 57.4781 47.8238 57.2111 48.4022 56.8579C48.4642 56.9469 48.5289 57.0318 48.5963 57.1154C49.4067 58.1132 50.4638 58.6228 51.6516 58.5918C54.955 58.5015 58.288 54.1208 58.7721 53.4615L56.7375 52.2305ZM49.6548 52.6228C49.5995 49.2925 51.0125 44.3954 53.2669 41.1392C53.6013 40.6565 53.9437 40.2291 54.2835 39.8705C54.5721 39.5658 54.9954 39.4525 55.3231 39.5806C55.35 39.5914 55.377 39.6035 55.404 39.6183C56.0107 39.9487 55.7545 41.1514 55.5482 41.8377C54.7028 44.6381 52.3136 49.5311 49.6548 52.6228Z" fill="white"/>
<path d="M38.1841 64.3968L38.9743 64.4831C38.923 64.9577 38.7397 65.3473 38.4241 65.6534C38.1086 65.9595 37.6947 66.1132 37.181 66.1132C36.7482 66.1132 36.3976 66.004 36.128 65.7869C35.8583 65.5698 35.6507 65.2745 35.505 64.9024C35.3594 64.5303 35.2866 64.1204 35.2866 63.6714C35.2866 62.95 35.4579 62.3635 35.8003 61.9118C36.1428 61.4602 36.6134 61.2336 37.212 61.2336C37.6812 61.2336 38.0722 61.3779 38.3837 61.6678C38.6952 61.9563 38.892 62.3703 38.9729 62.9096L38.1828 62.9932C38.0372 62.2786 37.7163 61.9213 37.2188 61.9213C36.8992 61.9213 36.6511 62.0696 36.4745 62.3676C36.2979 62.6656 36.2089 63.0957 36.2089 63.6593C36.2089 64.2323 36.3033 64.6651 36.4934 64.9577C36.6835 65.2503 36.9343 65.3959 37.2457 65.3959C37.4952 65.3959 37.7082 65.2975 37.8835 65.1006C38.0615 64.9051 38.1612 64.6705 38.1841 64.3968Z" fill="white"/>
<path d="M41.3941 66.1142C40.7657 66.1142 40.2763 65.8782 39.9257 65.4063C39.5752 64.9344 39.3999 64.3519 39.3999 63.6589C39.3999 62.9699 39.586 62.3942 39.9581 61.9303C40.3302 61.4665 40.821 61.2346 41.4318 61.2346C42.0466 61.2346 42.5334 61.4665 42.8907 61.9303C43.248 62.3942 43.426 62.9739 43.426 63.6697C43.426 64.4005 43.2399 64.991 42.8691 65.44C42.4983 65.889 42.0062 66.1142 41.3941 66.1142ZM41.4008 65.4265C41.7082 65.4265 41.9684 65.2998 42.1815 65.045C42.3945 64.7901 42.501 64.329 42.501 63.6616C42.501 63.1182 42.4134 62.6921 42.2381 62.3834C42.0628 62.0746 41.7891 61.9209 41.4197 61.9209C40.6889 61.9209 40.3235 62.5088 40.3235 63.6859C40.3235 64.2575 40.4165 64.6903 40.6026 64.9843C40.7873 65.2796 41.0543 65.4265 41.4008 65.4265Z" fill="white"/>
<path d="M45.098 66.0412H44.2202V61.3073H47.2135V62.0394H45.098V63.3324H46.7631V64.043H45.098V66.0412Z" fill="white"/>
<path d="M48.7039 66.0411H47.8262V61.3071H50.8194V62.0393H48.7039V63.3323H50.3691V64.0429H48.7039V66.0411Z" fill="white"/>
<path d="M54.5091 66.0415H51.4336V61.3076H54.4781V62.0114H52.2857V63.295H54.048V63.9813H52.2857V65.3067H54.5091V66.0415Z" fill="white"/>
<path d="M58.3196 66.0411H55.2441V61.3071H58.2886V62.0109H56.0963V63.2945H57.8585V63.9808H56.0963V65.3062H58.3196V66.0411Z" fill="white"/>
</svg>
