<svg width="100" height="100" viewBox="0 0 100 100" fill="none" xmlns="http://www.w3.org/2000/svg">
<path d="M100 50C100 77.6142 77.6142 100 50 100C22.3858 100 0 77.6142 0 50C0 22.3858 22.3858 0 50 0C77.6142 0 100 22.3858 100 50Z" fill="white"/>
<path d="M95 50C95 25.1472 74.8528 5 50 5C25.1472 5 5 25.1472 5 50C5 74.8528 25.1472 95 50 95V100C22.3858 100 0 77.6142 0 50C0 22.3858 22.3858 0 50 0C77.6142 0 100 22.3858 100 50C100 77.6142 77.6142 100 50 100V95C74.8528 95 95 74.8528 95 50Z" fill="#EE6F8C"/>
<path d="M90 49.5C90 27.4086 72.0914 9.5 50 9.5C27.9086 9.5 10 27.4086 10 49.5C10 71.5914 27.9086 89.5 50 89.5V92C26.5279 92 7.5 72.9721 7.5 49.5C7.5 26.0279 26.5279 7 50 7C73.4721 7 92.5 26.0279 92.5 49.5C92.5 72.9721 73.4721 92 50 92V89.5C72.0914 89.5 90 71.5914 90 49.5Z" fill="#EE6F8C"/>
<path d="M70.8323 29H68.9191H68.7761H24.0216C24.0094 29 24 29.0094 24 29.0216V62.8157C24 67.4485 27.7551 71.2035 32.3879 71.2035H60.5312C65.164 71.2035 68.9191 67.4485 68.9191 62.8157V50.271C68.9191 50.2589 68.9285 50.2494 68.9406 50.2494H71.1128C77.1006 50.2494 81.9465 45.2701 81.7294 39.235C81.5231 33.4737 76.5964 29 70.8323 29ZM70.928 44.3303H68.9191V43.7843V35.4652V34.9191H71.1141C73.8094 34.9191 75.9815 37.1964 75.8103 39.9281C75.6512 42.4373 73.4427 44.3303 70.928 44.3303Z" fill="#EE6F8C"/>
<path d="M34.7427 46.9344L40.6591 43.5946L35.015 59.8L38.7054 59.6922L45.3876 39.1897L42.0465 39.6886L36.1894 43.2319L34.7427 46.9344Z" fill="white"/>
<path d="M56.7375 53.2307C55.5253 54.8339 53.1954 57.1826 51.5896 57.2258C51.2862 57.2352 50.8817 57.1718 50.4354 56.6244C50.3775 56.553 50.3235 56.4775 50.2723 56.3952C54.0624 52.7871 57.0287 46.1211 57.8121 43.5215C58.7775 40.3193 57.4264 39.0262 56.5366 38.5408C55.2543 37.8384 53.6228 38.1296 52.5671 39.242C52.1424 39.6883 51.7231 40.2101 51.3199 40.7925C48.7972 44.4343 46.559 51.2595 47.4921 55.6415C46.9999 55.9772 46.5105 56.2213 46.0318 56.3467C45.1959 56.5664 44.4543 56.3898 43.7195 55.7939L41.4921 56.1026C41.3829 56.5071 41.4867 56.9575 41.8103 57.2676C42.3927 57.8244 43.0157 58.2316 43.6696 58.4864C44.608 58.8532 45.6085 58.9071 46.6332 58.6361C47.2332 58.4784 47.8238 58.2114 48.4022 57.8581C48.4642 57.9471 48.5289 58.0321 48.5963 58.1157C49.4067 59.1134 50.4638 59.6231 51.6516 59.5921C54.955 59.5017 58.288 55.1211 58.7721 54.4617L56.7375 53.2307ZM49.6548 53.6231C49.5995 50.2927 51.0125 45.3957 53.2669 42.1395C53.6013 41.6568 53.9437 41.2294 54.2835 40.8707C54.5721 40.566 54.9954 40.4527 55.3231 40.5808C55.35 40.5916 55.377 40.6038 55.404 40.6186C56.0107 40.9489 55.7545 42.1516 55.5482 42.8379C54.7028 45.6384 52.3136 50.5314 49.6548 53.6231Z" fill="white"/>
<path d="M38.1841 65.397L38.9743 65.4833C38.923 65.9579 38.7397 66.3476 38.4241 66.6537C38.1086 66.9597 37.6947 67.1134 37.181 67.1134C36.7482 67.1134 36.3976 67.0042 36.128 66.7871C35.8583 66.5701 35.6507 66.2748 35.505 65.9026C35.3594 65.5305 35.2866 65.1206 35.2866 64.6716C35.2866 63.9503 35.4579 63.3638 35.8003 62.9121C36.1428 62.4604 36.6134 62.2339 37.212 62.2339C37.6812 62.2339 38.0722 62.3782 38.3837 62.668C38.6952 62.9566 38.892 63.3705 38.9729 63.9098L38.1828 63.9934C38.0372 63.2788 37.7163 62.9215 37.2188 62.9215C36.8992 62.9215 36.6511 63.0698 36.4745 63.3678C36.2979 63.6658 36.2089 64.0959 36.2089 64.6595C36.2089 65.2325 36.3033 65.6653 36.4934 65.9579C36.6835 66.2505 36.9343 66.3961 37.2457 66.3961C37.4952 66.3961 37.7082 66.2977 37.8835 66.1008C38.0615 65.9053 38.1612 65.6707 38.1841 65.397Z" fill="white"/>
<path d="M41.3941 67.1144C40.7657 67.1144 40.2763 66.8785 39.9257 66.4065C39.5752 65.9346 39.3999 65.3522 39.3999 64.6591C39.3999 63.9701 39.586 63.3944 39.9581 62.9306C40.3302 62.4668 40.821 62.2349 41.4318 62.2349C42.0466 62.2349 42.5334 62.4668 42.8907 62.9306C43.248 63.3944 43.426 63.9742 43.426 64.6699C43.426 65.4007 43.2399 65.9913 42.8691 66.4403C42.4983 66.8892 42.0062 67.1144 41.3941 67.1144ZM41.4008 66.4268C41.7082 66.4268 41.9684 66.3 42.1815 66.0452C42.3945 65.7904 42.501 65.3292 42.501 64.6618C42.501 64.1185 42.4134 63.6924 42.2381 63.3836C42.0628 63.0749 41.7891 62.9212 41.4197 62.9212C40.6889 62.9212 40.3235 63.509 40.3235 64.6861C40.3235 65.2578 40.4165 65.6906 40.6026 65.9845C40.7873 66.2798 41.0543 66.4268 41.4008 66.4268Z" fill="white"/>
<path d="M45.098 67.0414H44.2202V62.3075H47.2135V63.0396H45.098V64.3327H46.7631V65.0432H45.098V67.0414Z" fill="white"/>
<path d="M48.7039 67.0413H47.8262V62.3074H50.8194V63.0395H48.7039V64.3325H50.3691V65.0431H48.7039V67.0413Z" fill="white"/>
<path d="M54.5091 67.0418H51.4336V62.3079H54.4781V63.0117H52.2857V64.2953H54.048V64.9816H52.2857V66.307H54.5091V67.0418Z" fill="white"/>
<path d="M58.3196 67.0413H55.2441V62.3074H58.2886V63.0112H56.0963V64.2948H57.8585V64.9811H56.0963V66.3065H58.3196V67.0413Z" fill="white"/>
</svg>
