<svg width="37" height="48" viewBox="0 0 37 48" fill="none" xmlns="http://www.w3.org/2000/svg">
<path d="M37 18.5C37 28.7173 18.5 47.2385 18.5 47.2385C18.5 47.2385 0 28.7173 0 18.5C0 8.28273 8.28273 0 18.5 0C28.7173 0 37 8.28273 37 18.5Z" fill="#E40616"/>
<path d="M24.4997 10.9341H25.7787V10.5647C25.7787 10.1111 25.4101 9.74246 24.9565 9.74246H13.2718V9.18877C13.2924 9.16096 13.3758 9.0998 13.5196 9.0998H24.8906C24.8453 8.43648 24.2201 7.9082 23.4551 7.9082H13.5196C12.7546 7.9082 12.1294 8.43648 12.0841 9.0998C12.0825 9.12522 12.0794 9.14984 12.0794 9.17606V9.74246H11.9999C11.5463 9.74246 11.1777 10.1111 11.1777 10.5647V11.6013C11.1777 12.0549 11.5463 12.4235 11.9999 12.4235H12.1223L12.1707 13.0662L12.2097 13.5913L12.2986 14.7829L12.3439 15.3898L13.0072 24.2505L13.0557 24.8932L13.1041 25.5358L13.1613 26.3032C13.2432 27.3923 14.1575 28.2455 15.2442 28.2455H21.7305C22.8164 28.2455 23.7315 27.3923 23.8134 26.3032L23.8706 25.5358H22.6758L22.625 26.2142C22.59 26.6853 22.1968 27.0539 21.7305 27.0539H15.2442C14.7779 27.0539 14.3847 26.6853 14.3498 26.2142L14.2989 25.5358L14.2505 24.8932L14.202 24.2505H23.9659L24.6292 15.3898H23.4408L22.8625 23.0589H14.1098L13.5315 15.3898L13.4854 14.7829H24.6737L24.7627 13.5913H13.4028L13.3639 13.0662L13.3154 12.4235H24.9541C25.4077 12.4235 25.7763 12.0549 25.7763 11.6013V11.232H12.3677V10.9341H24.4973H24.4997Z" fill="white"/>
<path d="M17.7757 21.2609H15.9955H15.9883L15.553 15.3911H14.3574L14.7999 21.2609L14.8897 22.4525H16.0765H17.7757H20.4655V21.2609H17.7757Z" fill="white"/>
<path d="M31.2168 18.0762C31.2168 11.0567 25.5264 5.36632 18.5069 5.36632C11.4874 5.36632 5.79698 11.0567 5.79698 18.0762C5.79698 25.0957 11.4874 30.7862 18.5069 30.7862V32.1984C10.7075 32.1984 4.38477 25.8757 4.38477 18.0762C4.38477 10.2768 10.7075 3.9541 18.5069 3.9541C26.3063 3.9541 32.629 10.2768 32.629 18.0762C32.629 25.8757 26.3063 32.1984 18.5069 32.1984V30.7862C25.5264 30.7862 31.2168 25.0957 31.2168 18.0762Z" fill="white"/>
</svg>
