<svg width="100" height="140" viewBox="0 0 100 140" fill="none" xmlns="http://www.w3.org/2000/svg">
<path d="M100 54.5557C100 84.6202 50 139.119 50 139.119C50 139.119 0 84.6202 0 54.5557C0 24.4913 22.3858 0.119263 50 0.119263C77.6142 0.119263 100 24.4913 100 54.5557Z" fill="#E40616"/>
<path fill-rule="evenodd" clip-rule="evenodd" d="M50.0001 8.91142C72.5935 8.91142 90.9092 27.3337 90.9092 50.0587C90.9092 72.7837 72.5935 91.206 50.0001 91.206C27.4066 91.206 9.09097 72.7837 9.09097 50.0587C9.09097 27.3337 27.4066 8.91142 50.0001 8.91142ZM48.8774 89.7831C49.0809 89.7889 49.2849 89.7936 49.4892 89.7962L48.9801 89.7862C48.9459 89.7853 48.9116 89.7841 48.8774 89.7831ZM28.7779 23.1324C20.8948 29.4266 15.8392 39.1487 15.8392 50.0587C15.8392 69.0351 31.1336 84.4185 50.0001 84.4185C60.1397 84.4185 69.2474 79.9749 75.5037 72.9183H32.9222L28.7779 23.1324ZM50.0001 15.6989C46.9304 15.6989 43.9553 16.1063 41.1253 16.87L44.7417 61.0249H82.3837C83.536 57.581 84.161 53.8933 84.161 50.0587C84.161 31.0823 68.8666 15.6989 50.0001 15.6989ZM10.5135 51.4596C10.5266 51.842 10.5453 52.223 10.5691 52.6026C10.5375 52.0991 10.5154 51.593 10.5025 51.0846L10.5135 51.4596Z" fill="white"/>
</svg>
